<svg width="341" height="223" viewBox="0 0 341 223" fill="none" xmlns="http://www.w3.org/2000/svg">
<g filter="url(#filter0_d_432_1606)">
<rect x="4" width="333" height="215" rx="24" fill="#C7CF5D"/>
</g>
<path d="M51 158.92C51 147.787 62.5754 140.433 72.6528 145.164C74.531 146.045 76.2088 147.302 77.5827 148.857L87.0769 159.6C91.9511 165.116 98.104 169.352 104.996 171.936L110.5 174L130.903 180.423C135.275 181.8 139.832 182.5 144.416 182.5H165.5H191.277C194.747 182.5 198.206 182.099 201.584 181.304L218.068 177.425C220.684 176.81 223.24 175.961 225.704 174.889L228.008 173.888C231.653 172.303 235.073 170.242 238.176 167.759L246 161.5C256.448 154.97 270 162.481 270 174.802V181.887C270 192.719 261.219 201.5 250.387 201.5H76.8346C62.5665 201.5 51 189.933 51 175.665V158.92Z" fill="#2D2323" fill-opacity="0.17"/>
<path d="M268 108C268 157.153 259 197 166.5 197C78.5 193 65 157.153 65 108C65 58.8468 110.443 77 166.5 77C222.557 77 268 58.8468 268 108Z" fill="url(#paint0_linear_432_1606)"/>
<path d="M262.5 85C263.5 96.5 216.184 86.0066 163.995 86.0066C111.805 86.0066 70 95.9513 70 86.0066C69 73.5 111.805 68 163.995 68C216.184 68 261.5 73.5 262.5 85Z" fill="#402204"/>
<path d="M260 78.1895C260 114.745 217.467 25.7282 165 25.7282C112.533 25.7282 70 114.745 70 78.1895C93.5238 48.772 112.524 20.335 165 12C221.095 22.7864 226.071 42.3982 260 78.1895Z" fill="url(#paint1_linear_432_1606)"/>
<path d="M262 86.3825C262 98.3215 219.019 108 166 108C112.981 108 70 98.3215 70 86.3825C70 74.4435 112.981 97.9452 166 97.9452C219.019 97.9452 262 74.4435 262 86.3825Z" fill="url(#paint2_linear_432_1606)"/>
<defs>
<filter id="filter0_d_432_1606" x="0" y="0" width="341" height="223" filterUnits="userSpaceOnUse" color-interpolation-filters="sRGB">
<feFlood flood-opacity="0" result="BackgroundImageFix"/>
<feColorMatrix in="SourceAlpha" type="matrix" values="0 0 0 0 0 0 0 0 0 0 0 0 0 0 0 0 0 0 127 0" result="hardAlpha"/>
<feOffset dy="4"/>
<feGaussianBlur stdDeviation="2"/>
<feComposite in2="hardAlpha" operator="out"/>
<feColorMatrix type="matrix" values="0 0 0 0 0 0 0 0 0 0 0 0 0 0 0 0 0 0 0.25 0"/>
<feBlend mode="normal" in2="BackgroundImageFix" result="effect1_dropShadow_432_1606"/>
<feBlend mode="normal" in="SourceGraphic" in2="effect1_dropShadow_432_1606" result="shape"/>
</filter>
<linearGradient id="paint0_linear_432_1606" x1="166.5" y1="73.7236" x2="166.5" y2="197" gradientUnits="userSpaceOnUse">
<stop stop-color="#794500"/>
<stop offset="1" stop-color="#4B2602"/>
</linearGradient>
<linearGradient id="paint1_linear_432_1606" x1="165" y1="12" x2="165" y2="87" gradientUnits="userSpaceOnUse">
<stop stop-color="#782A03"/>
<stop offset="1" stop-color="#4A1900"/>
</linearGradient>
<linearGradient id="paint2_linear_432_1606" x1="70" y1="95.5" x2="262" y2="95.5" gradientUnits="userSpaceOnUse">
<stop stop-color="#653300"/>
<stop offset="1" stop-color="#301800"/>
</linearGradient>
</defs>
</svg>
