<svg width="203" height="479" viewBox="0 290 203 189" fill="none" xmlns="http://www.w3.org/2000/svg">
<path d="M104.5 7L98.8708 1.75L110.129 1.75L104.5 7Z" fill="#F4A208"/>
<path d="M203 390C203 439.153 194 479 101.5 479C13.5 475 0 439.153 0 390C0 340.847 45.4431 359 101.5 359C157.557 359 203 340.847 203 390Z" fill="url(#paint0_linear_159_4643)"/>
<path d="M197.5 367C198.5 378.5 151.184 368.007 98.9947 368.007C46.8052 368.007 4.99996 377.951 4.99996 368.007C4 355.5 46.8052 350 98.9947 350C151.184 350 196.5 355.5 197.5 367Z" fill="#402204"/>
<g filter="url(#filter0_d_159_4643)">
<path d="M168.235 362.444C165.01 376.563 161.025 386.24 147.364 386.24C133.702 386.24 128.769 374.476 126.492 362.444C123.31 345.628 136.169 349.62 147.364 351.897C158.369 348.671 172.451 343.993 168.235 362.444Z" fill="#9D2C2C"/>
</g>
<path d="M162.922 363.46C160.709 372.443 158.401 381.306 147.174 381.306C135.947 381.306 134.841 373.918 131.995 365.179C128.02 352.974 142.051 353.035 147.174 359.297C151.917 353.225 165.958 351.138 162.922 363.46Z" fill="#D4BA84"/>
<ellipse cx="1.00031" cy="2.95844" rx="1.00031" ry="2.95844" transform="matrix(0.947032 -0.321139 0.32114 0.947032 139.395 364.582)" fill="#413333"/>
<ellipse cx="151.925" cy="366.942" rx="1.00031" ry="2.95844" transform="rotate(10.5518 151.925 366.942)" fill="#413333"/>
<path d="M150.969 372.578C150.969 372.788 149.335 374.096 147.553 374.096C145.772 374.096 143.948 372.788 143.948 372.578C143.948 372.369 145.772 373.148 147.553 373.148C149.335 373.148 150.969 372.369 150.969 372.578Z" fill="#413333"/>
<path d="M144.138 347.153L144.707 344.497L146.415 345.446L147.174 346.584L147.364 349.43L147.364 350.379L147.743 351.897L146.984 351.897L146.415 350.379L146.605 346.774L145.846 346.015L145.087 346.015L144.138 347.153Z" fill="#272525"/>
<g filter="url(#filter1_d_159_4643)">
<path d="M142.235 364.444C139.01 378.563 135.025 388.24 121.364 388.24C107.702 388.24 102.769 376.476 100.492 364.444C97.31 347.628 110.169 351.62 121.364 353.897C132.369 350.671 146.451 345.993 142.235 364.444Z" fill="#9D2C2C"/>
</g>
<path d="M136.922 365.46C134.709 374.443 132.401 383.306 121.174 383.306C109.947 383.306 108.841 375.918 105.995 367.179C102.02 354.974 116.051 355.035 121.174 361.297C125.917 355.225 139.958 353.138 136.922 365.46Z" fill="#E1C486"/>
<ellipse cx="1.00031" cy="2.95844" rx="1.00031" ry="2.95844" transform="matrix(0.947032 -0.321139 0.32114 0.947032 113.395 366.582)" fill="#413333"/>
<ellipse cx="125.925" cy="368.942" rx="1.00031" ry="2.95844" transform="rotate(10.5518 125.925 368.942)" fill="#413333"/>
<path d="M124.969 374.578C124.969 374.788 123.335 376.096 121.553 376.096C119.772 376.096 117.948 374.788 117.948 374.578C117.948 374.369 119.772 375.148 121.553 375.148C123.335 375.148 124.969 374.369 124.969 374.578Z" fill="#413333"/>
<path d="M118.138 349.153L118.707 346.497L120.415 347.446L121.174 348.584L121.364 351.43L121.364 352.379L121.743 353.897L120.984 353.897L120.415 352.379L120.605 348.774L119.846 348.015L119.087 348.015L118.138 349.153Z" fill="#272525"/>
<g filter="url(#filter2_d_159_4643)">
<path d="M121.235 364.444C118.01 378.563 114.025 388.24 100.364 388.24C86.7025 388.24 81.7693 376.476 79.4924 364.444C76.31 347.628 89.1691 351.62 100.364 353.897C111.369 350.671 125.451 345.993 121.235 364.444Z" fill="#9D2C2C"/>
</g>
<path d="M115.922 365.46C113.709 374.443 111.401 383.306 100.174 383.306C88.9466 383.306 87.8409 375.918 84.9948 367.179C81.0199 354.974 95.051 355.035 100.174 361.297C104.917 355.225 118.958 353.138 115.922 365.46Z" fill="#E1C486"/>
<ellipse cx="1.00031" cy="2.95844" rx="1.00031" ry="2.95844" transform="matrix(0.947032 -0.321139 0.32114 0.947032 92.3947 366.582)" fill="#413333"/>
<ellipse cx="104.925" cy="368.942" rx="1.00031" ry="2.95844" transform="rotate(10.5518 104.925 368.942)" fill="#413333"/>
<path d="M103.969 374.578C103.969 374.788 102.335 376.096 100.553 376.096C98.772 376.096 96.9484 374.788 96.9484 374.578C96.9484 374.369 98.772 375.148 100.553 375.148C102.335 375.148 103.969 374.369 103.969 374.578Z" fill="#413333"/>
<path d="M97.1382 349.153L97.7074 346.497L99.415 347.446L100.174 348.584L100.364 351.43L100.364 352.379L100.743 353.897L99.9842 353.897L99.415 352.379L99.6048 348.774L98.8458 348.015L98.0869 348.015L97.1382 349.153Z" fill="#272525"/>
<g filter="url(#filter3_d_159_4643)">
<path d="M95.2351 363.444C92.0096 377.563 88.025 387.24 74.3638 387.24C60.7025 387.24 55.7693 375.476 53.4924 363.444C50.31 346.628 63.1691 350.62 74.3638 352.897C85.3687 349.671 99.4505 344.993 95.2351 363.444Z" fill="#9D2C2C"/>
</g>
<path d="M89.9224 364.46C87.7093 373.443 85.4014 382.306 74.174 382.306C62.9466 382.306 61.8409 374.918 58.9948 366.179C55.0199 353.974 69.051 354.035 74.174 360.297C78.9175 354.225 92.9582 352.138 89.9224 364.46Z" fill="#E2C586"/>
<ellipse cx="1.00031" cy="2.95844" rx="1.00031" ry="2.95844" transform="matrix(0.947032 -0.321139 0.32114 0.947032 66.3947 365.582)" fill="#413333"/>
<ellipse cx="78.9248" cy="367.942" rx="1.00031" ry="2.95844" transform="rotate(10.5518 78.9248 367.942)" fill="#413333"/>
<path d="M77.9688 373.578C77.9688 373.788 76.3349 375.096 74.5535 375.096C72.772 375.096 70.9484 373.788 70.9484 373.578C70.9484 373.369 72.772 374.148 74.5535 374.148C76.3349 374.148 77.9688 373.369 77.9688 373.578Z" fill="#413333"/>
<path d="M71.1382 348.153L71.7074 345.497L73.415 346.446L74.174 347.584L74.3637 350.43L74.3637 351.379L74.7432 352.897L73.9842 352.897L73.415 351.379L73.6048 347.774L72.8458 347.015L72.0869 347.015L71.1382 348.153Z" fill="#272525"/>
<g filter="url(#filter4_d_159_4643)">
<path d="M75.2351 362.444C72.0096 376.563 68.025 386.24 54.3638 386.24C40.7025 386.24 35.7693 374.476 33.4924 362.444C30.31 345.628 43.1691 349.62 54.3638 351.897C65.3687 348.671 79.4505 343.993 75.2351 362.444Z" fill="#9D2C2C"/>
</g>
<path d="M69.9224 363.46C67.7093 372.443 65.4014 381.306 54.174 381.306C42.9466 381.306 41.8409 373.918 38.9948 365.179C35.0199 352.974 49.051 353.035 54.174 359.297C58.9175 353.225 72.9582 351.138 69.9224 363.46Z" fill="#E2C586"/>
<ellipse cx="1.00031" cy="2.95844" rx="1.00031" ry="2.95844" transform="matrix(0.947032 -0.321139 0.32114 0.947032 46.3947 364.582)" fill="#413333"/>
<ellipse cx="58.9248" cy="366.942" rx="1.00031" ry="2.95844" transform="rotate(10.5518 58.9248 366.942)" fill="#413333"/>
<path d="M57.9688 372.578C57.9688 372.788 56.3349 374.096 54.5535 374.096C52.772 374.096 50.9484 372.788 50.9484 372.578C50.9484 372.369 52.772 373.148 54.5535 373.148C56.3349 373.148 57.9688 372.369 57.9688 372.578Z" fill="#413333"/>
<path d="M51.1382 347.153L51.7074 344.497L53.415 345.446L54.174 346.584L54.3637 349.43L54.3637 350.379L54.7432 351.897L53.9842 351.897L53.415 350.379L53.6048 346.774L52.8458 346.015L52.0869 346.015L51.1382 347.153Z" fill="#272525"/>
<g filter="url(#filter5_d_159_4643)">
<path d="M174.235 358.444C171.01 372.563 167.025 382.24 153.364 382.24C139.702 382.24 134.769 370.476 132.492 358.444C129.31 341.628 142.169 345.62 153.364 347.897C164.369 344.671 178.451 339.993 174.235 358.444Z" fill="#9D2C2C"/>
</g>
<path d="M168.922 359.46C166.709 368.443 164.401 377.306 153.174 377.306C141.947 377.306 140.841 369.918 137.995 361.179C134.02 348.974 148.051 349.035 153.174 355.297C157.917 349.225 171.958 347.138 168.922 359.46Z" fill="#E1C486"/>
<ellipse cx="1.00031" cy="2.95844" rx="1.00031" ry="2.95844" transform="matrix(0.947032 -0.321139 0.32114 0.947032 145.395 360.582)" fill="#413333"/>
<ellipse cx="157.925" cy="362.942" rx="1.00031" ry="2.95844" transform="rotate(10.5518 157.925 362.942)" fill="#413333"/>
<path d="M156.969 368.578C156.969 368.788 155.335 370.096 153.553 370.096C151.772 370.096 149.948 368.788 149.948 368.578C149.948 368.369 151.772 369.148 153.553 369.148C155.335 369.148 156.969 368.369 156.969 368.578Z" fill="#413333"/>
<path d="M150.138 343.153L150.707 340.497L152.415 341.446L153.174 342.584L153.364 345.43L153.364 346.379L153.743 347.897L152.984 347.897L152.415 346.379L152.605 342.774L151.846 342.015L151.087 342.015L150.138 343.153Z" fill="#272525"/>
<path d="M195 360.19C195 396.745 152.467 307.728 100 307.728C47.5329 307.728 5 396.745 5 360.19C28.5238 330.772 47.5238 302.335 100 294C156.095 304.786 161.071 324.398 195 360.19Z" fill="url(#paint1_linear_159_4643)"/>
<path d="M197 368.382C197 380.322 154.019 390 101 390C47.9807 390 5 380.322 5 368.382C5 356.443 47.9807 379.945 101 379.945C154.019 379.945 197 356.443 197 368.382Z" fill="url(#paint2_linear_159_4643)"/>
<defs>
<filter id="filter0_d_159_4643" x="122" y="348.884" width="51" height="47.3555" filterUnits="userSpaceOnUse" color-interpolation-filters="sRGB">
<feFlood flood-opacity="0" result="BackgroundImageFix"/>
<feColorMatrix in="SourceAlpha" type="matrix" values="0 0 0 0 0 0 0 0 0 0 0 0 0 0 0 0 0 0 127 0" result="hardAlpha"/>
<feOffset dy="6"/>
<feGaussianBlur stdDeviation="2"/>
<feComposite in2="hardAlpha" operator="out"/>
<feColorMatrix type="matrix" values="0 0 0 0 0 0 0 0 0 0 0 0 0 0 0 0 0 0 0.25 0"/>
<feBlend mode="normal" in2="BackgroundImageFix" result="effect1_dropShadow_159_4643"/>
<feBlend mode="normal" in="SourceGraphic" in2="effect1_dropShadow_159_4643" result="shape"/>
</filter>
<filter id="filter1_d_159_4643" x="96" y="350.884" width="51" height="47.3555" filterUnits="userSpaceOnUse" color-interpolation-filters="sRGB">
<feFlood flood-opacity="0" result="BackgroundImageFix"/>
<feColorMatrix in="SourceAlpha" type="matrix" values="0 0 0 0 0 0 0 0 0 0 0 0 0 0 0 0 0 0 127 0" result="hardAlpha"/>
<feOffset dy="6"/>
<feGaussianBlur stdDeviation="2"/>
<feComposite in2="hardAlpha" operator="out"/>
<feColorMatrix type="matrix" values="0 0 0 0 0 0 0 0 0 0 0 0 0 0 0 0 0 0 0.25 0"/>
<feBlend mode="normal" in2="BackgroundImageFix" result="effect1_dropShadow_159_4643"/>
<feBlend mode="normal" in="SourceGraphic" in2="effect1_dropShadow_159_4643" result="shape"/>
</filter>
<filter id="filter2_d_159_4643" x="75" y="350.884" width="51" height="47.3555" filterUnits="userSpaceOnUse" color-interpolation-filters="sRGB">
<feFlood flood-opacity="0" result="BackgroundImageFix"/>
<feColorMatrix in="SourceAlpha" type="matrix" values="0 0 0 0 0 0 0 0 0 0 0 0 0 0 0 0 0 0 127 0" result="hardAlpha"/>
<feOffset dy="6"/>
<feGaussianBlur stdDeviation="2"/>
<feComposite in2="hardAlpha" operator="out"/>
<feColorMatrix type="matrix" values="0 0 0 0 0 0 0 0 0 0 0 0 0 0 0 0 0 0 0.25 0"/>
<feBlend mode="normal" in2="BackgroundImageFix" result="effect1_dropShadow_159_4643"/>
<feBlend mode="normal" in="SourceGraphic" in2="effect1_dropShadow_159_4643" result="shape"/>
</filter>
<filter id="filter3_d_159_4643" x="49" y="349.884" width="51" height="47.3555" filterUnits="userSpaceOnUse" color-interpolation-filters="sRGB">
<feFlood flood-opacity="0" result="BackgroundImageFix"/>
<feColorMatrix in="SourceAlpha" type="matrix" values="0 0 0 0 0 0 0 0 0 0 0 0 0 0 0 0 0 0 127 0" result="hardAlpha"/>
<feOffset dy="6"/>
<feGaussianBlur stdDeviation="2"/>
<feComposite in2="hardAlpha" operator="out"/>
<feColorMatrix type="matrix" values="0 0 0 0 0 0 0 0 0 0 0 0 0 0 0 0 0 0 0.25 0"/>
<feBlend mode="normal" in2="BackgroundImageFix" result="effect1_dropShadow_159_4643"/>
<feBlend mode="normal" in="SourceGraphic" in2="effect1_dropShadow_159_4643" result="shape"/>
</filter>
<filter id="filter4_d_159_4643" x="29" y="348.884" width="51" height="47.3555" filterUnits="userSpaceOnUse" color-interpolation-filters="sRGB">
<feFlood flood-opacity="0" result="BackgroundImageFix"/>
<feColorMatrix in="SourceAlpha" type="matrix" values="0 0 0 0 0 0 0 0 0 0 0 0 0 0 0 0 0 0 127 0" result="hardAlpha"/>
<feOffset dy="6"/>
<feGaussianBlur stdDeviation="2"/>
<feComposite in2="hardAlpha" operator="out"/>
<feColorMatrix type="matrix" values="0 0 0 0 0 0 0 0 0 0 0 0 0 0 0 0 0 0 0.25 0"/>
<feBlend mode="normal" in2="BackgroundImageFix" result="effect1_dropShadow_159_4643"/>
<feBlend mode="normal" in="SourceGraphic" in2="effect1_dropShadow_159_4643" result="shape"/>
</filter>
<filter id="filter5_d_159_4643" x="128" y="344.884" width="51" height="47.3555" filterUnits="userSpaceOnUse" color-interpolation-filters="sRGB">
<feFlood flood-opacity="0" result="BackgroundImageFix"/>
<feColorMatrix in="SourceAlpha" type="matrix" values="0 0 0 0 0 0 0 0 0 0 0 0 0 0 0 0 0 0 127 0" result="hardAlpha"/>
<feOffset dy="6"/>
<feGaussianBlur stdDeviation="2"/>
<feComposite in2="hardAlpha" operator="out"/>
<feColorMatrix type="matrix" values="0 0 0 0 0 0 0 0 0 0 0 0 0 0 0 0 0 0 0.25 0"/>
<feBlend mode="normal" in2="BackgroundImageFix" result="effect1_dropShadow_159_4643"/>
<feBlend mode="normal" in="SourceGraphic" in2="effect1_dropShadow_159_4643" result="shape"/>
</filter>
<linearGradient id="paint0_linear_159_4643" x1="101.5" y1="355.724" x2="101.5" y2="479" gradientUnits="userSpaceOnUse">
<stop stop-color="#794500"/>
<stop offset="1" stop-color="#4B2602"/>
</linearGradient>
<linearGradient id="paint1_linear_159_4643" x1="100" y1="294" x2="100" y2="369" gradientUnits="userSpaceOnUse">
<stop stop-color="#782A03"/>
<stop offset="1" stop-color="#4A1900"/>
</linearGradient>
<linearGradient id="paint2_linear_159_4643" x1="5" y1="377.5" x2="197" y2="377.5" gradientUnits="userSpaceOnUse">
<stop stop-color="#653300"/>
<stop offset="1" stop-color="#301800"/>
</linearGradient>
</defs>
</svg>
