<svg width="393" height="852" viewBox="0 0 393 852" fill="none" xmlns="http://www.w3.org/2000/svg">
<g clip-path="url(#clip0_558_2)">
<rect width="393" height="852" fill="#ECEECD"/>
<rect width="393" height="852" fill="url(#paint0_linear_558_2)"/>
<rect x="17" y="209" width="358" height="68" rx="10" fill="#F3EFD4"/>
<rect x="17" y="291" width="358" height="617" fill="#ADB35E"/>
<path d="M355.75 242.66L343 251.321L350.25 242.66L343 234L355.75 242.66Z" fill="#394648"/>
<path d="M70.434 242.415C70.434 252.506 65.4914 262 53.217 262C40.9426 262 36 252.506 36 242.415C36 228.329 43.7083 231.384 53.217 231.384C62.7257 231.384 70.434 226.837 70.434 242.415Z" fill="url(#paint1_linear_558_2)"/>
<path d="M48.4337 250.648C48.202 249.798 50.0943 252.944 53.9329 252.961C57.7715 252.978 59.8634 250.08 59.8634 250.648C59.8634 251.215 57.7678 253.827 53.9291 253.81C50.0905 253.794 48.571 251.151 48.4337 250.648Z" fill="black"/>
<path d="M59.6413 233.194C59.6413 233.706 56.8406 234.121 53.3858 234.121C49.931 234.121 47.1304 233.706 47.1304 233.194C47.1304 232.682 50.0179 233.117 53.4727 233.117C56.9275 233.117 59.6413 232.682 59.6413 233.194Z" fill="#272525"/>
<path d="M48.504 223.776L49.9117 223.212L51.6291 226.689L53.5206 230.786L53.8416 233.033L54.1388 233.194L52.9089 233.349L53.1651 232.721L52.9089 230.658L51.4721 227.47L50.4393 225.91L49.6766 224.551L48.504 223.776Z" fill="#272525"/>
<ellipse cx="45.5762" cy="246.246" rx="0.772278" ry="2.70297" fill="black"/>
<ellipse cx="61.6397" cy="246.246" rx="0.772278" ry="2.70297" fill="black"/>
<path d="M65.2446 234.863C65.9166 236.073 66.0266 237.296 65.4904 237.593C64.9541 237.891 65.48 236.158 64.808 234.948C64.136 233.738 62.5205 233.509 63.0568 233.211C63.5931 232.913 64.5726 233.653 65.2446 234.863Z" fill="#D9D9D9"/>
<rect y="780" width="393" height="72" fill="#BAC15B"/>
<circle cx="44.9811" cy="816" r="22.9811" fill="#EC9808"/>
<path d="M45.5284 803.963L57.3749 814.632H33.6818L45.5284 803.963Z" fill="white"/>
<rect x="36.2263" y="812.717" width="5.4717" height="13.1321" fill="white"/>
<rect x="48.2642" y="812.717" width="5.4717" height="13.1321" fill="white"/>
<circle cx="120.943" cy="816" r="22.9811" fill="#EC9808"/>
<circle cx="114.925" cy="809.981" r="4.92453" fill="white"/>
<path d="M123.132 820.896C123.132 826.018 119.457 826.944 114.925 826.944C110.392 826.944 106.717 826.018 106.717 820.896C106.717 815.775 110.392 811.623 114.925 811.623C119.457 811.623 123.132 815.775 123.132 820.896Z" fill="white"/>
<circle cx="126.962" cy="809.981" r="4.92453" fill="white"/>
<path d="M135.17 820.896C135.17 826.018 131.495 826.944 126.962 826.944C122.429 826.944 118.755 826.018 118.755 820.896C118.755 815.775 122.429 811.623 126.962 811.623C131.495 811.623 135.17 815.775 135.17 820.896Z" fill="white"/>
<circle cx="196.906" cy="816" r="22.9811" fill="#EC9808"/>
<rect x="185.962" y="814.906" width="22.9811" height="3.28302" fill="white"/>
<rect x="195.811" y="829.132" width="24.0755" height="3.28302" transform="rotate(-90 195.811 829.132)" fill="white"/>
<circle cx="272.868" cy="816" r="22.9811" fill="#EC9808"/>
<path d="M259.736 803.963L273.941 805.969L287.094 803.963V828.038L273.941 826.032L259.736 828.038V803.963Z" fill="white"/>
<path d="M261.925 806.151L271.774 807.843V823.064L261.925 824.755V806.151Z" fill="#EC9808"/>
<path d="M284.906 824.755L276.151 823.064V807.843L284.906 806.151V824.755Z" fill="#EC9808"/>
<circle cx="348.83" cy="816" r="22.9811" fill="#A2A652"/>
<rect x="333.614" y="810.5" width="30.4873" height="15.7752" rx="7" fill="black"/>
<path d="M367.065 810.062C367.065 811.03 358.49 811.376 348.434 811.376C338.378 811.376 330.227 811.03 330.227 810.062C330.227 809.094 338.378 807.871 348.434 807.871C358.49 807.871 367.065 809.094 367.065 810.062Z" fill="#8C704E"/>
<path d="M364.101 806.995C364.101 815.708 357.466 822.77 349.281 822.77C341.096 822.77 334.461 815.708 334.461 806.995C334.461 798.283 341.096 799.546 349.281 799.546C357.466 799.546 364.101 798.283 364.101 806.995Z" fill="#D8C59D"/>
<path d="M361.842 800.688C364.698 806.881 365.412 813.023 362.695 814.341C359.977 815.66 355.458 811.708 352.602 805.515C349.746 799.322 349.885 802.007 352.602 800.688C355.803 799.135 359.077 793.736 361.842 800.688Z" fill="black"/>
<path d="M344.217 806.989C342.134 812.646 338.221 816.37 335.477 815.307C332.734 814.244 332.84 809.437 334.923 803.781C337.006 798.124 340.449 797.713 342.93 799.545C345.673 800.608 346.3 801.333 344.217 806.989Z" fill="black"/>
<path d="M367.065 810.062C367.065 810.788 358.49 810.5 348.434 810.5C338.378 810.5 330.227 810.788 330.227 810.062C330.227 809.336 338.378 807.871 348.434 807.871C358.49 807.871 367.065 809.336 367.065 810.062Z" fill="#5B4A36"/>
<path d="M336.578 796.477H361.279L365.372 809.185H333.191L336.578 796.477Z" fill="#726058"/>
<ellipse cx="342.93" cy="815.319" rx="0.846869" ry="1.3146" fill="black"/>
<ellipse cx="342.93" cy="815.319" rx="0.846869" ry="1.3146" fill="black"/>
<ellipse cx="342.93" cy="815.319" rx="0.846869" ry="1.3146" fill="black"/>
<ellipse cx="354.786" cy="815.319" rx="0.846869" ry="1.3146" fill="black"/>
<ellipse cx="354.786" cy="815.319" rx="0.846869" ry="1.3146" fill="black"/>
<ellipse cx="354.786" cy="815.319" rx="0.846869" ry="1.3146" fill="black"/>
<path d="M351.398 818.509C351.398 818.926 350.261 819.264 348.858 819.264C347.455 819.264 346.317 818.926 346.317 818.509C346.317 818.092 347.455 818.886 348.858 818.886C350.261 818.886 351.398 818.092 351.398 818.509Z" fill="black"/>
<path d="M351.398 818.509C351.398 818.926 350.261 819.264 348.858 819.264C347.455 819.264 346.317 818.926 346.317 818.509C346.317 818.092 347.455 818.886 348.858 818.886C350.261 818.886 351.398 818.092 351.398 818.509Z" fill="black"/>
<path d="M351.398 818.509C351.398 818.926 350.261 819.264 348.858 819.264C347.455 819.264 346.317 818.926 346.317 818.509C346.317 818.092 347.455 818.886 348.858 818.886C350.261 818.886 351.398 818.092 351.398 818.509Z" fill="black"/>
<rect x="346.317" y="821.017" width="5.08121" height="3.5056" fill="#D8C59D"/>
<path d="M340.912 826.04C341.199 824.646 342.427 823.646 343.85 823.646H353.866C355.289 823.646 356.516 824.646 356.804 826.04L358.277 833.186C358.661 835.048 357.239 836.792 355.339 836.792H349.535H342.377C340.476 836.792 339.055 835.048 339.439 833.186L340.912 826.04Z" fill="#A71515"/>
<rect x="343.777" y="826.275" width="1.69374" height="2.6292" fill="#726058"/>
<rect x="352.245" y="826.275" width="1.69374" height="2.6292" fill="#726058"/>
<rect x="341.236" y="828.905" width="15.2436" height="7.88761" fill="#726058"/>
<path d="M35.6169 97L34.3929 86.2L30.8169 93.616L27.2409 86.2L26.0169 97H22.9929L25.1049 80.2H27.4809L30.8169 87.568L34.1529 80.2H36.5289L38.6409 97H35.6169ZM43.4171 96.448L39.3131 85H42.3131L44.8571 93.16L47.4011 85H50.4011L43.8491 102.808H40.9211L43.4171 96.448ZM55.1501 98.536C55.6781 98.536 56.0541 98.416 56.2781 98.176C56.5181 97.952 56.6381 97.568 56.6381 97.024V80.2H59.5661V97.576C59.5661 98.76 59.2381 99.648 58.5821 100.24C57.9261 100.832 57.0221 101.128 55.8701 101.128H55.3661L55.1501 98.536ZM66.6808 97.24C65.5928 97.24 64.6488 96.96 63.8488 96.4C63.0488 95.84 62.4328 95.088 62.0008 94.144C61.5848 93.2 61.3768 92.16 61.3768 91.024C61.3768 89.888 61.5848 88.848 62.0008 87.904C62.4328 86.96 63.0488 86.208 63.8488 85.648C64.6488 85.088 65.5928 84.808 66.6808 84.808C67.7688 84.808 68.7128 85.088 69.5128 85.648C70.3288 86.208 70.9448 86.96 71.3608 87.904C71.7928 88.848 72.0088 89.888 72.0088 91.024C72.0088 92.16 71.7928 93.2 71.3608 94.144C70.9448 95.088 70.3288 95.84 69.5128 96.4C68.7128 96.96 67.7688 97.24 66.6808 97.24ZM66.6808 94.888C67.4328 94.888 68.0168 94.536 68.4328 93.832C68.8648 93.128 69.0808 92.192 69.0808 91.024C69.0808 89.856 68.8648 88.92 68.4328 88.216C68.0168 87.512 67.4328 87.16 66.6808 87.16C65.9448 87.16 65.3608 87.52 64.9288 88.24C64.5128 88.944 64.3048 89.872 64.3048 91.024C64.3048 92.176 64.5128 93.112 64.9288 93.832C65.3608 94.536 65.9448 94.888 66.6808 94.888ZM82.9338 85V97H80.4378L80.3178 96.064C79.5338 96.816 78.5578 97.192 77.3898 97.192C76.1898 97.192 75.2698 96.8 74.6298 96.016C74.0058 95.216 73.6938 94.144 73.6938 92.8V85H76.5738V92.416C76.5738 94.032 77.1178 94.84 78.2058 94.84C78.9578 94.84 79.5738 94.496 80.0538 93.808V85H82.9338ZM84.8964 85H87.4164L87.6084 86.272C88.0564 85.776 88.4724 85.408 88.8564 85.168C89.2564 84.928 89.7204 84.808 90.2484 84.808C90.4724 84.808 90.6804 84.832 90.8724 84.88L90.6564 87.784C90.4164 87.704 90.1604 87.664 89.8884 87.664C89.5044 87.664 89.1604 87.752 88.8564 87.928C88.5524 88.104 88.1924 88.4 87.7764 88.816V97H84.8964V85ZM97.451 84.808C98.651 84.808 99.563 85.208 100.187 86.008C100.827 86.792 101.147 87.856 101.147 89.2V97H98.267V89.584C98.267 87.968 97.723 87.16 96.635 87.16C95.883 87.16 95.267 87.504 94.787 88.192V97H91.907V85H94.403L94.523 85.936C95.307 85.184 96.283 84.808 97.451 84.808ZM105.742 97.24C104.846 97.24 104.086 96.952 103.462 96.376C102.854 95.784 102.55 94.96 102.55 93.904C102.55 92.8 102.878 91.92 103.534 91.264C104.206 90.592 104.974 90.112 105.838 89.824C106.718 89.536 107.518 89.376 108.238 89.344C108.238 88.64 108.11 88.136 107.854 87.832C107.598 87.528 107.158 87.376 106.534 87.376C106.054 87.376 105.59 87.456 105.142 87.616C104.694 87.76 104.19 87.984 103.63 88.288L103.438 85.864C104.718 85.16 106.006 84.808 107.302 84.808C108.502 84.808 109.438 85.168 110.11 85.888C110.798 86.592 111.142 87.712 111.142 89.248V92.872C111.142 93.464 111.166 93.896 111.214 94.168C111.262 94.44 111.334 94.616 111.43 94.696C111.542 94.76 111.71 94.792 111.934 94.792H112.318L112.126 97.24H110.854C110.406 97.24 109.974 97.112 109.558 96.856C109.158 96.6 108.862 96.264 108.67 95.848C108.238 96.312 107.798 96.664 107.35 96.904C106.902 97.128 106.366 97.24 105.742 97.24ZM106.726 94.96C107.27 94.96 107.782 94.672 108.262 94.096V91.36C107.494 91.456 106.854 91.688 106.342 92.056C105.83 92.408 105.574 92.928 105.574 93.616C105.574 94.08 105.678 94.424 105.886 94.648C106.094 94.856 106.374 94.96 106.726 94.96ZM116.154 97.24C115.274 97.24 114.61 96.96 114.162 96.4C113.73 95.84 113.514 95.072 113.514 94.096V79H116.394V93.112C116.394 93.784 116.458 94.232 116.586 94.456C116.73 94.68 117.026 94.792 117.474 94.792L117.234 97.24H116.154Z" fill="white"/>
<line x1="337.998" y1="157.5" x2="37.9983" y2="156.5" stroke="black"/>
</g>
<defs>
<linearGradient id="paint0_linear_558_2" x1="37" y1="13" x2="433" y2="102.5" gradientUnits="userSpaceOnUse">
<stop stop-color="#BAC15B"/>
<stop offset="1" stop-color="#AAB05F"/>
</linearGradient>
<linearGradient id="paint1_linear_558_2" x1="70.4436" y1="227.325" x2="39.9386" y2="263.622" gradientUnits="userSpaceOnUse">
<stop stop-color="#FF4747"/>
<stop offset="0.73641" stop-color="#D71A1A"/>
<stop offset="0.96582" stop-color="#991514"/>
</linearGradient>
<clipPath id="clip0_558_2">
<rect width="393" height="852" fill="white"/>
</clipPath>
</defs>
</svg>
