<svg width="393" height="852" viewBox="0 0 393 852" fill="none" xmlns="http://www.w3.org/2000/svg">
<g clip-path="url(#clip0_582_2)">
<rect width="393" height="852" fill="#B3BA5D"/>
<rect x="38" y="57" width="319" height="356" rx="20" fill="#F3EFD4"/>
<path d="M85.9512 364.2H94.8072V366.192H88.1352V371.184H93.2952V373.2H88.1352V381H85.9512V364.2ZM95.8133 369.24H97.5173L97.7813 371.208C98.3093 370.44 98.8053 369.88 99.2693 369.528C99.7493 369.176 100.253 369 100.781 369C100.989 369 101.173 369.024 101.333 369.072L101.117 371.448C100.909 371.4 100.669 371.376 100.397 371.376C99.8693 371.376 99.3733 371.512 98.9093 371.784C98.4453 372.04 98.1093 372.344 97.9013 372.696V381H95.8133V369.24ZM102.915 364.2H105.003V366.576H102.915V364.2ZM102.915 369.24H105.003V381H102.915V369.24ZM112.638 381.24C111.454 381.24 110.438 380.968 109.59 380.424C108.758 379.864 108.126 379.112 107.694 378.168C107.278 377.224 107.07 376.176 107.07 375.024C107.07 373.92 107.262 372.912 107.646 372C108.046 371.072 108.614 370.344 109.35 369.816C110.102 369.272 110.99 369 112.014 369C113.326 369 114.39 369.44 115.206 370.32C116.038 371.2 116.454 372.416 116.454 373.968C116.454 374.24 116.422 374.616 116.358 375.096H109.206C109.254 376.488 109.598 377.544 110.238 378.264C110.894 378.984 111.742 379.344 112.782 379.344C113.278 379.344 113.798 379.288 114.342 379.176C114.902 379.048 115.39 378.872 115.806 378.648L115.998 380.52C115.118 381 113.998 381.24 112.638 381.24ZM114.318 373.632C114.318 372.832 114.118 372.184 113.718 371.688C113.334 371.176 112.774 370.92 112.038 370.92C111.318 370.92 110.718 371.144 110.238 371.592C109.774 372.04 109.462 372.72 109.302 373.632H114.318ZM123.329 369C124.545 369 125.473 369.48 126.113 370.44C126.769 371.384 127.097 372.664 127.097 374.28V381H125.009V374.544C125.009 373.296 124.825 372.376 124.457 371.784C124.105 371.176 123.569 370.872 122.849 370.872C122.321 370.872 121.833 371.024 121.385 371.328C120.937 371.616 120.561 372.024 120.257 372.552V381H118.169V369.24H119.945L120.089 370.704C120.425 370.176 120.873 369.76 121.433 369.456C122.009 369.152 122.641 369 123.329 369ZM138.66 363V381H136.812L136.644 379.92C136.276 380.352 135.836 380.68 135.324 380.904C134.812 381.128 134.252 381.24 133.644 381.24C132.732 381.24 131.916 380.976 131.196 380.448C130.476 379.904 129.908 379.168 129.492 378.24C129.076 377.312 128.868 376.28 128.868 375.144C128.868 374.04 129.06 373.024 129.444 372.096C129.844 371.152 130.404 370.4 131.124 369.84C131.86 369.28 132.7 369 133.644 369C134.812 369 135.788 369.408 136.572 370.224V363H138.66ZM133.86 379.392C134.74 379.392 135.444 379.048 135.972 378.36C136.5 377.656 136.764 376.584 136.764 375.144C136.764 373.752 136.5 372.696 135.972 371.976C135.444 371.24 134.74 370.872 133.86 370.872C133.316 370.872 132.828 371.056 132.396 371.424C131.964 371.792 131.62 372.304 131.364 372.96C131.124 373.6 131.004 374.328 131.004 375.144C131.004 375.912 131.124 376.624 131.364 377.28C131.62 377.92 131.964 378.432 132.396 378.816C132.844 379.2 133.332 379.392 133.86 379.392ZM144.352 381.24C142.976 381.24 141.784 380.92 140.776 380.28L141.04 378.168C142.064 378.968 143.12 379.368 144.208 379.368C144.784 379.368 145.232 379.248 145.552 379.008C145.888 378.768 146.056 378.416 146.056 377.952C146.056 377.6 145.976 377.312 145.816 377.088C145.672 376.864 145.424 376.648 145.072 376.44C144.72 376.232 144.176 375.96 143.44 375.624C142.576 375.224 141.944 374.768 141.544 374.256C141.144 373.744 140.944 373.08 140.944 372.264C140.944 371.304 141.28 370.52 141.952 369.912C142.624 369.304 143.528 369 144.664 369C145.816 369 146.824 369.256 147.688 369.768L147.424 371.712C146.992 371.424 146.584 371.216 146.2 371.088C145.816 370.944 145.36 370.872 144.832 370.872C144.272 370.872 143.832 370.992 143.512 371.232C143.192 371.472 143.032 371.808 143.032 372.24C143.032 372.672 143.168 373 143.44 373.224C143.728 373.448 144.28 373.744 145.096 374.112C146.232 374.624 147.032 375.144 147.496 375.672C147.96 376.184 148.192 376.864 148.192 377.712C148.192 378.816 147.848 379.68 147.16 380.304C146.472 380.928 145.536 381.24 144.352 381.24Z" fill="black"/>
<path d="M220.76 364.2H222.944V379.008H229.352V381H220.76V364.2ZM233.136 381.24C232.24 381.24 231.504 380.92 230.928 380.28C230.352 379.64 230.064 378.824 230.064 377.832C230.064 376.36 230.68 375.304 231.912 374.664C233.144 374.008 234.52 373.664 236.04 373.632C236.04 372.608 235.888 371.896 235.584 371.496C235.28 371.096 234.768 370.896 234.048 370.896C233.12 370.896 232.176 371.256 231.216 371.976L230.952 370.224C231.96 369.408 233.128 369 234.456 369C235.72 369 236.656 369.368 237.264 370.104C237.872 370.824 238.176 371.992 238.176 373.608V377.04C238.176 377.952 238.24 378.6 238.368 378.984C238.496 379.352 238.776 379.536 239.208 379.536H239.472L239.208 381.24H238.752C238.016 381.24 237.472 381.104 237.12 380.832C236.768 380.56 236.48 380.12 236.256 379.512C235.888 380.04 235.432 380.464 234.888 380.784C234.344 381.088 233.76 381.24 233.136 381.24ZM233.784 379.536C234.168 379.536 234.568 379.392 234.984 379.104C235.4 378.8 235.752 378.408 236.04 377.928V375.12C234.808 375.184 233.872 375.424 233.232 375.84C232.592 376.24 232.272 376.864 232.272 377.712C232.272 378.928 232.776 379.536 233.784 379.536ZM244.263 381.24C242.887 381.24 241.695 380.92 240.687 380.28L240.951 378.168C241.975 378.968 243.031 379.368 244.119 379.368C244.695 379.368 245.143 379.248 245.463 379.008C245.799 378.768 245.967 378.416 245.967 377.952C245.967 377.6 245.887 377.312 245.727 377.088C245.583 376.864 245.335 376.648 244.983 376.44C244.631 376.232 244.087 375.96 243.351 375.624C242.487 375.224 241.855 374.768 241.455 374.256C241.055 373.744 240.855 373.08 240.855 372.264C240.855 371.304 241.191 370.52 241.863 369.912C242.535 369.304 243.439 369 244.575 369C245.727 369 246.735 369.256 247.599 369.768L247.335 371.712C246.903 371.424 246.495 371.216 246.111 371.088C245.727 370.944 245.271 370.872 244.743 370.872C244.183 370.872 243.743 370.992 243.423 371.232C243.103 371.472 242.943 371.808 242.943 372.24C242.943 372.672 243.079 373 243.351 373.224C243.639 373.448 244.191 373.744 245.007 374.112C246.143 374.624 246.943 375.144 247.407 375.672C247.871 376.184 248.103 376.864 248.103 377.712C248.103 378.816 247.759 379.68 247.071 380.304C246.383 380.928 245.447 381.24 244.263 381.24ZM253.271 381.24C252.359 381.24 251.679 380.968 251.231 380.424C250.799 379.88 250.583 379.216 250.583 378.432V370.896H248.951L249.143 369.24H250.583V366.336L252.671 366.12V369.24H255.215V370.896H252.671V377.592C252.671 378.312 252.799 378.816 253.055 379.104C253.327 379.392 253.791 379.536 254.447 379.536H255.191L254.999 381.24H253.271ZM269.451 376.44H264.243L262.899 381H260.547L265.707 364.2H267.963L273.123 381H270.795L269.451 376.44ZM268.851 374.4L266.835 367.584L264.843 374.4H268.851ZM279.153 381.24C277.361 381.24 276.001 380.68 275.073 379.56C274.145 378.424 273.681 376.968 273.681 375.192C273.681 373.352 274.145 371.864 275.073 370.728C276.001 369.576 277.377 369 279.201 369C280.177 369 281.049 369.2 281.817 369.6L281.481 371.448C280.761 371.064 280.009 370.872 279.225 370.872C278.153 370.872 277.313 371.248 276.705 372C276.113 372.736 275.817 373.768 275.817 375.096C275.817 376.424 276.121 377.472 276.729 378.24C277.353 379.008 278.209 379.392 279.297 379.392C280.129 379.392 280.865 379.2 281.505 378.816L281.793 380.688C281.473 380.848 281.073 380.976 280.593 381.072C280.113 381.184 279.633 381.24 279.153 381.24ZM287.068 381.24C286.156 381.24 285.476 380.968 285.028 380.424C284.596 379.88 284.38 379.216 284.38 378.432V370.896H282.748L282.94 369.24H284.38V366.336L286.468 366.12V369.24H289.012V370.896H286.468V377.592C286.468 378.312 286.596 378.816 286.852 379.104C287.124 379.392 287.588 379.536 288.244 379.536H288.988L288.796 381.24H287.068ZM290.88 364.2H292.968V366.576H290.88V364.2ZM290.88 369.24H292.968V381H290.88V369.24ZM294.483 369.24H296.715L299.451 378.528L302.139 369.24H304.371L300.483 381H298.395L294.483 369.24ZM310.493 381.24C309.309 381.24 308.293 380.968 307.445 380.424C306.613 379.864 305.981 379.112 305.549 378.168C305.133 377.224 304.925 376.176 304.925 375.024C304.925 373.92 305.117 372.912 305.501 372C305.901 371.072 306.469 370.344 307.205 369.816C307.957 369.272 308.845 369 309.869 369C311.181 369 312.245 369.44 313.061 370.32C313.893 371.2 314.309 372.416 314.309 373.968C314.309 374.24 314.277 374.616 314.213 375.096H307.061C307.109 376.488 307.453 377.544 308.093 378.264C308.749 378.984 309.597 379.344 310.637 379.344C311.133 379.344 311.653 379.288 312.197 379.176C312.757 379.048 313.245 378.872 313.661 378.648L313.853 380.52C312.973 381 311.853 381.24 310.493 381.24ZM312.173 373.632C312.173 372.832 311.973 372.184 311.573 371.688C311.189 371.176 310.629 370.92 309.893 370.92C309.173 370.92 308.573 371.144 308.093 371.592C307.629 372.04 307.317 372.72 307.157 373.632H312.173Z" fill="black"/>
<rect x="77" y="73" width="239" height="198" fill="#DCE8F5"/>
<g filter="url(#filter0_d_582_2)">
<rect width="112.649" height="61.9309" rx="7" transform="matrix(0.999996 0.00282491 -0.00258767 0.999997 141.579 167.776)" fill="black"/>
<path d="M265.185 166.405C265.175 170.206 233.486 171.477 196.33 171.372C159.175 171.267 129.058 169.821 129.067 166.021C129.077 162.22 159.21 157.504 196.366 157.609C233.522 157.714 265.195 162.605 265.185 166.405Z" fill="#8C704E"/>
<path d="M254.264 154.332C254.175 188.535 229.587 216.194 199.344 216.108C169.101 216.023 144.655 188.226 144.744 154.023C144.832 119.819 169.336 124.847 199.58 124.932C229.823 125.018 254.352 120.129 254.264 154.332Z" fill="#D8C59D"/>
<path d="M245.979 129.551C256.47 153.894 259.046 178.012 248.991 183.16C238.935 188.307 222.28 172.746 211.789 148.403C201.299 124.06 201.784 134.602 211.839 129.454C223.682 123.391 235.834 102.231 245.979 129.551Z" fill="black"/>
<path d="M180.791 154.105C173.037 176.29 158.542 190.869 148.415 186.669C138.288 182.468 138.729 163.597 146.483 141.412C154.237 119.227 166.962 117.649 176.111 124.866C186.238 129.067 188.545 131.92 180.791 154.105Z" fill="black"/>
<path d="M265.185 166.405C265.177 169.255 233.495 168.036 196.339 167.931C159.184 167.826 129.06 168.871 129.067 166.021C129.075 163.17 159.21 157.504 196.366 157.609C233.522 157.714 265.192 163.555 265.185 166.405Z" fill="#5B4A36"/>
<path d="M153.027 115.173L244.487 115.173L259.221 162.61L140.028 162.611L153.027 115.173Z" fill="#6C5850"/>
<ellipse cx="3.12915" cy="5.1609" rx="3.12915" ry="5.1609" transform="matrix(0.999996 0.00282491 -0.00258767 0.999997 172.835 181.627)" fill="black"/>
<ellipse cx="3.12915" cy="5.1609" rx="3.12915" ry="5.1609" transform="matrix(0.999996 0.00282491 -0.00258767 0.999997 172.835 181.627)" fill="black"/>
<ellipse cx="3.12915" cy="5.1609" rx="3.12915" ry="5.1609" transform="matrix(0.999996 0.00282491 -0.00258767 0.999997 172.835 181.627)" fill="black"/>
<ellipse cx="3.12915" cy="5.1609" rx="3.12915" ry="5.1609" transform="matrix(0.999996 0.00282491 -0.00258767 0.999997 216.643 181.75)" fill="black"/>
<ellipse cx="3.12915" cy="5.1609" rx="3.12915" ry="5.1609" transform="matrix(0.999996 0.00282491 -0.00258767 0.999997 216.643 181.75)" fill="black"/>
<ellipse cx="3.12915" cy="5.1609" rx="3.12915" ry="5.1609" transform="matrix(0.999996 0.00282491 -0.00258767 0.999997 216.643 181.75)" fill="black"/>
<path d="M207.21 199.403C207.205 201.04 202.999 202.356 197.815 202.341C192.63 202.327 188.431 200.987 188.435 199.35C188.439 197.712 192.634 200.844 197.818 200.859C203.003 200.873 207.214 197.765 207.21 199.403Z" fill="black"/>
<path d="M207.21 199.403C207.205 201.04 202.999 202.356 197.815 202.341C192.63 202.327 188.431 200.987 188.435 199.35C188.439 197.712 192.634 200.844 197.818 200.859C203.003 200.873 207.214 197.765 207.21 199.403Z" fill="black"/>
<path d="M207.21 199.403C207.205 201.04 202.999 202.356 197.815 202.341C192.63 202.327 188.431 200.987 188.435 199.35C188.439 197.712 192.634 200.844 197.818 200.859C203.003 200.873 207.214 197.765 207.21 199.403Z" fill="black"/>
<rect width="18.7749" height="13.7624" transform="matrix(0.999996 0.00282491 -0.00258767 0.999997 188.409 209.196)" fill="#D8C59D"/>
<path d="M172.708 219.523L222.832 219.665C224.245 219.669 225.457 220.674 225.723 222.062L234.453 267.695C234.802 269.516 233.403 271.203 231.549 271.198L163.725 271.007C161.87 271.001 160.48 269.307 160.838 267.487L169.805 221.904C170.078 220.518 171.295 219.519 172.708 219.523Z" fill="#A71515" stroke="black" stroke-width="0.1"/>
<rect width="6.25829" height="10.3218" transform="matrix(0.999996 0.00282491 -0.00258767 0.999997 178.969 229.813)" fill="#726058"/>
<rect width="6.25829" height="10.3218" transform="matrix(0.999996 0.00282491 -0.00258767 0.999997 210.26 229.902)" fill="#726058"/>
<rect width="56.3246" height="30.9654" transform="matrix(0.999996 0.00282491 -0.00258767 0.999997 169.554 240.108)" fill="#726058"/>
</g>
<path d="M116.03 429.4H119.446V445.864H126.054V449H116.03V429.4ZM130.273 449.28C129.228 449.28 128.341 448.944 127.613 448.272C126.904 447.581 126.549 446.62 126.549 445.388C126.549 444.1 126.932 443.073 127.697 442.308C128.481 441.524 129.377 440.964 130.385 440.628C131.412 440.292 132.345 440.105 133.185 440.068C133.185 439.247 133.036 438.659 132.737 438.304C132.438 437.949 131.925 437.772 131.197 437.772C130.637 437.772 130.096 437.865 129.573 438.052C129.05 438.22 128.462 438.481 127.809 438.836L127.585 436.008C129.078 435.187 130.581 434.776 132.093 434.776C133.493 434.776 134.585 435.196 135.369 436.036C136.172 436.857 136.573 438.164 136.573 439.956V444.184C136.573 444.875 136.601 445.379 136.657 445.696C136.713 446.013 136.797 446.219 136.909 446.312C137.04 446.387 137.236 446.424 137.497 446.424H137.945L137.721 449.28H136.237C135.714 449.28 135.21 449.131 134.725 448.832C134.258 448.533 133.913 448.141 133.689 447.656C133.185 448.197 132.672 448.608 132.149 448.888C131.626 449.149 131.001 449.28 130.273 449.28ZM131.421 446.62C132.056 446.62 132.653 446.284 133.213 445.612V442.42C132.317 442.532 131.57 442.803 130.973 443.232C130.376 443.643 130.077 444.249 130.077 445.052C130.077 445.593 130.198 445.995 130.441 446.256C130.684 446.499 131.01 446.62 131.421 446.62ZM150.121 435V449H147.209L147.069 447.908C146.154 448.785 145.015 449.224 143.653 449.224C142.253 449.224 141.179 448.767 140.433 447.852C139.705 446.919 139.341 445.668 139.341 444.1V435H142.701V443.652C142.701 445.537 143.335 446.48 144.605 446.48C145.482 446.48 146.201 446.079 146.761 445.276V435H150.121ZM152.41 435H155.35L155.574 436.484C156.097 435.905 156.582 435.476 157.03 435.196C157.497 434.916 158.038 434.776 158.654 434.776C158.916 434.776 159.158 434.804 159.382 434.86L159.13 438.248C158.85 438.155 158.552 438.108 158.234 438.108C157.786 438.108 157.385 438.211 157.03 438.416C156.676 438.621 156.256 438.967 155.77 439.452V449H152.41V435ZM166.167 449.28C164.748 449.28 163.544 448.953 162.555 448.3C161.565 447.647 160.819 446.769 160.315 445.668C159.829 444.567 159.587 443.344 159.587 442C159.587 440.619 159.82 439.387 160.287 438.304C160.753 437.203 161.444 436.344 162.359 435.728C163.273 435.093 164.365 434.776 165.635 434.776C167.221 434.776 168.472 435.336 169.387 436.456C170.301 437.576 170.759 439.079 170.759 440.964C170.759 441.505 170.703 442.103 170.591 442.756H163.059C163.171 444.025 163.544 444.977 164.179 445.612C164.813 446.228 165.597 446.536 166.531 446.536C167.8 446.536 169.004 446.163 170.143 445.416L170.227 448.356C169.088 448.972 167.735 449.28 166.167 449.28ZM167.371 440.404C167.371 438.481 166.717 437.52 165.411 437.52C164.123 437.52 163.348 438.481 163.087 440.404H167.371ZM179.335 434.776C180.735 434.776 181.799 435.243 182.527 436.176C183.273 437.091 183.647 438.332 183.647 439.9V449H180.287V440.348C180.287 438.463 179.652 437.52 178.383 437.52C177.505 437.52 176.787 437.921 176.227 438.724V449H172.867V435H175.779L175.919 436.092C176.833 435.215 177.972 434.776 179.335 434.776ZM185.747 436.568L186.951 433.208H185.523V429.4H188.939V432.872L187.147 436.568H185.747ZM194.822 449.28C194.057 449.28 193.357 449.196 192.722 449.028C192.106 448.879 191.471 448.636 190.818 448.3L191.126 445.332C192.433 446.228 193.581 446.676 194.57 446.676C195.205 446.676 195.69 446.555 196.026 446.312C196.362 446.069 196.53 445.733 196.53 445.304C196.53 444.856 196.371 444.492 196.054 444.212C195.755 443.913 195.158 443.549 194.262 443.12C193.067 442.541 192.199 441.953 191.658 441.356C191.135 440.74 190.874 439.9 190.874 438.836C190.874 437.623 191.303 436.643 192.162 435.896C193.021 435.149 194.178 434.776 195.634 434.776C196.941 434.776 198.163 435.121 199.302 435.812L198.994 438.696C198.453 438.229 197.93 437.875 197.426 437.632C196.941 437.389 196.418 437.268 195.858 437.268C195.317 437.268 194.878 437.389 194.542 437.632C194.225 437.856 194.066 438.183 194.066 438.612C194.066 439.041 194.234 439.396 194.57 439.676C194.925 439.937 195.625 440.339 196.67 440.88C197.715 441.421 198.481 442.019 198.966 442.672C199.47 443.307 199.722 444.137 199.722 445.164C199.722 446.433 199.274 447.441 198.378 448.188C197.501 448.916 196.315 449.28 194.822 449.28ZM205.644 450.792C206.26 450.792 206.699 450.652 206.96 450.372C207.24 450.111 207.38 449.663 207.38 449.028V429.4H210.796V449.672C210.796 451.053 210.413 452.089 209.648 452.78C208.883 453.471 207.828 453.816 206.484 453.816H205.896L205.644 450.792ZM219.096 449.28C217.827 449.28 216.726 448.953 215.792 448.3C214.859 447.647 214.14 446.769 213.636 445.668C213.151 444.567 212.908 443.353 212.908 442.028C212.908 440.703 213.151 439.489 213.636 438.388C214.14 437.287 214.859 436.409 215.792 435.756C216.726 435.103 217.827 434.776 219.096 434.776C220.366 434.776 221.467 435.103 222.4 435.756C223.352 436.409 224.071 437.287 224.556 438.388C225.06 439.489 225.312 440.703 225.312 442.028C225.312 443.353 225.06 444.567 224.556 445.668C224.071 446.769 223.352 447.647 222.4 448.3C221.467 448.953 220.366 449.28 219.096 449.28ZM219.096 446.536C219.974 446.536 220.655 446.125 221.14 445.304C221.644 444.483 221.896 443.391 221.896 442.028C221.896 440.665 221.644 439.573 221.14 438.752C220.655 437.931 219.974 437.52 219.096 437.52C218.238 437.52 217.556 437.94 217.052 438.78C216.567 439.601 216.324 440.684 216.324 442.028C216.324 443.372 216.567 444.464 217.052 445.304C217.556 446.125 218.238 446.536 219.096 446.536ZM238.058 435V449H235.146L235.006 447.908C234.092 448.785 232.953 449.224 231.59 449.224C230.19 449.224 229.117 448.767 228.37 447.852C227.642 446.919 227.278 445.668 227.278 444.1V435H230.638V443.652C230.638 445.537 231.273 446.48 232.542 446.48C233.42 446.48 234.138 446.079 234.698 445.276V435H238.058ZM240.348 435H243.288L243.512 436.484C244.035 435.905 244.52 435.476 244.968 435.196C245.435 434.916 245.976 434.776 246.592 434.776C246.853 434.776 247.096 434.804 247.32 434.86L247.068 438.248C246.788 438.155 246.489 438.108 246.172 438.108C245.724 438.108 245.323 438.211 244.968 438.416C244.613 438.621 244.193 438.967 243.708 439.452V449H240.348V435ZM254.995 434.776C256.395 434.776 257.459 435.243 258.187 436.176C258.934 437.091 259.307 438.332 259.307 439.9V449H255.947V440.348C255.947 438.463 255.312 437.52 254.043 437.52C253.166 437.52 252.447 437.921 251.887 438.724V449H248.527V435H251.439L251.579 436.092C252.494 435.215 253.632 434.776 254.995 434.776ZM264.667 449.28C263.622 449.28 262.735 448.944 262.007 448.272C261.298 447.581 260.943 446.62 260.943 445.388C260.943 444.1 261.326 443.073 262.091 442.308C262.875 441.524 263.771 440.964 264.779 440.628C265.806 440.292 266.739 440.105 267.579 440.068C267.579 439.247 267.43 438.659 267.131 438.304C266.833 437.949 266.319 437.772 265.591 437.772C265.031 437.772 264.49 437.865 263.967 438.052C263.445 438.22 262.857 438.481 262.203 438.836L261.979 436.008C263.473 435.187 264.975 434.776 266.487 434.776C267.887 434.776 268.979 435.196 269.763 436.036C270.566 436.857 270.967 438.164 270.967 439.956V444.184C270.967 444.875 270.995 445.379 271.051 445.696C271.107 446.013 271.191 446.219 271.303 446.312C271.434 446.387 271.63 446.424 271.891 446.424H272.339L272.115 449.28H270.631C270.109 449.28 269.605 449.131 269.119 448.832C268.653 448.533 268.307 448.141 268.083 447.656C267.579 448.197 267.066 448.608 266.543 448.888C266.021 449.149 265.395 449.28 264.667 449.28ZM265.815 446.62C266.45 446.62 267.047 446.284 267.607 445.612V442.42C266.711 442.532 265.965 442.803 265.367 443.232C264.77 443.643 264.471 444.249 264.471 445.052C264.471 445.593 264.593 445.995 264.835 446.256C265.078 446.499 265.405 446.62 265.815 446.62ZM276.815 449.28C275.789 449.28 275.014 448.953 274.491 448.3C273.987 447.647 273.735 446.751 273.735 445.612V428H277.095V444.464C277.095 445.248 277.17 445.771 277.319 446.032C277.487 446.293 277.833 446.424 278.355 446.424L278.075 449.28H276.815Z" fill="#F3EFD4"/>
<rect x="21" y="465" width="358" height="68" rx="10" fill="#F3EFD4"/>
<rect x="21" y="545" width="358" height="68" rx="10" fill="#F3EFD4"/>
<rect x="21" y="625" width="358" height="68" rx="10" fill="#F3EFD4"/>
<rect x="21" y="705" width="358" height="68" rx="10" fill="#F3EFD4"/>
<path d="M359.75 498.66L347 507.321L354.25 498.66L347 490L359.75 498.66Z" fill="#394648"/>
<path d="M359.75 582.66L347 591.321L354.25 582.66L347 574L359.75 582.66Z" fill="#394648"/>
<path d="M359.75 667.66L347 676.321L354.25 667.66L347 659L359.75 667.66Z" fill="#394648"/>
<path d="M104.747 501.495H101.762L101.042 504H99.2122L102.407 493.5H104.087L107.297 504H105.467L104.747 501.495ZM104.267 499.815L103.247 496.26L102.242 499.815H104.267ZM111.47 496.38C112.08 496.38 112.6 496.555 113.03 496.905C113.47 497.255 113.8 497.725 114.02 498.315C114.25 498.905 114.365 499.555 114.365 500.265C114.365 500.975 114.25 501.625 114.02 502.215C113.8 502.805 113.47 503.275 113.03 503.625C112.6 503.975 112.08 504.15 111.47 504.15C111.09 504.15 110.765 504.105 110.495 504.015C110.235 503.935 109.985 503.8 109.745 503.61V507.63H107.945V496.5H109.385L109.58 497.19C109.85 496.93 110.135 496.73 110.435 496.59C110.735 496.45 111.08 496.38 111.47 496.38ZM111.125 502.68C111.565 502.68 111.91 502.46 112.16 502.02C112.41 501.57 112.535 500.985 112.535 500.265C112.535 499.545 112.41 498.965 112.16 498.525C111.91 498.075 111.565 497.85 111.125 497.85C110.635 497.85 110.265 498.07 110.015 498.51C109.775 498.94 109.655 499.525 109.655 500.265C109.655 501.005 109.775 501.595 110.015 502.035C110.265 502.465 110.635 502.68 111.125 502.68ZM115.342 496.5H116.917L117.037 497.295C117.317 496.985 117.577 496.755 117.817 496.605C118.067 496.455 118.357 496.38 118.687 496.38C118.827 496.38 118.957 496.395 119.077 496.425L118.942 498.24C118.792 498.19 118.632 498.165 118.462 498.165C118.222 498.165 118.007 498.22 117.817 498.33C117.627 498.44 117.402 498.625 117.142 498.885V504H115.342V496.5ZM119.634 493.5H121.434V495.36H119.634V493.5ZM119.634 496.5H121.434V504H119.634V496.5ZM124.434 504.15C123.884 504.15 123.469 503.975 123.189 503.625C122.919 503.275 122.784 502.795 122.784 502.185V492.75H124.584V501.57C124.584 501.99 124.624 502.27 124.704 502.41C124.794 502.55 124.979 502.62 125.259 502.62L125.109 504.15H124.434ZM131.152 500.07C131.652 499.12 131.992 498.395 132.172 497.895C132.352 497.385 132.442 496.9 132.442 496.44C132.442 496.02 132.332 495.7 132.112 495.48C131.892 495.25 131.582 495.135 131.182 495.135C130.642 495.135 130.072 495.375 129.472 495.855L129.262 494.055C130.032 493.545 130.882 493.29 131.812 493.29C132.632 493.29 133.262 493.56 133.702 494.1C134.142 494.64 134.362 495.315 134.362 496.125C134.362 496.755 134.252 497.385 134.032 498.015C133.822 498.635 133.417 499.51 132.817 500.64L131.977 502.23H134.557V504H129.097L131.152 500.07ZM139.06 497.685C139.55 497.685 139.995 497.82 140.395 498.09C140.795 498.36 141.105 498.74 141.325 499.23C141.555 499.72 141.67 500.27 141.67 500.88C141.67 501.91 141.41 502.725 140.89 503.325C140.38 503.915 139.665 504.21 138.745 504.21C137.815 504.21 137.085 503.87 136.555 503.19C136.025 502.5 135.76 501.585 135.76 500.445C135.76 499.395 135.95 498.395 136.33 497.445C136.71 496.485 137.19 495.65 137.77 494.94C138.35 494.23 138.94 493.675 139.54 493.275L140.845 494.37C140.165 494.85 139.565 495.375 139.045 495.945C138.525 496.515 138.135 497.175 137.875 497.925C138.225 497.765 138.62 497.685 139.06 497.685ZM138.775 502.59C139.135 502.59 139.415 502.44 139.615 502.14C139.825 501.83 139.93 501.425 139.93 500.925C139.93 500.435 139.825 500.045 139.615 499.755C139.415 499.455 139.135 499.305 138.775 499.305C138.405 499.305 138.12 499.45 137.92 499.74C137.72 500.03 137.62 500.425 137.62 500.925C137.62 501.425 137.72 501.83 137.92 502.14C138.12 502.44 138.405 502.59 138.775 502.59ZM142.957 505.8L143.602 504H142.837V501.96H144.667V503.82L143.707 505.8H142.957ZM150.884 500.07C151.384 499.12 151.724 498.395 151.904 497.895C152.084 497.385 152.174 496.9 152.174 496.44C152.174 496.02 152.064 495.7 151.844 495.48C151.624 495.25 151.314 495.135 150.914 495.135C150.374 495.135 149.804 495.375 149.204 495.855L148.994 494.055C149.764 493.545 150.614 493.29 151.544 493.29C152.364 493.29 152.994 493.56 153.434 494.1C153.874 494.64 154.094 495.315 154.094 496.125C154.094 496.755 153.984 497.385 153.764 498.015C153.554 498.635 153.149 499.51 152.549 500.64L151.709 502.23H154.289V504H148.829L150.884 500.07ZM159.437 504.21C158.687 504.21 158.022 503.98 157.442 503.52C156.872 503.06 156.427 502.41 156.107 501.57C155.797 500.73 155.642 499.76 155.642 498.66C155.642 497.61 155.797 496.68 156.107 495.87C156.427 495.05 156.872 494.415 157.442 493.965C158.022 493.515 158.687 493.29 159.437 493.29C160.187 493.29 160.847 493.52 161.417 493.98C161.997 494.43 162.442 495.06 162.752 495.87C163.072 496.68 163.232 497.61 163.232 498.66C163.232 499.76 163.072 500.73 162.752 501.57C162.442 502.41 162.002 503.06 161.432 503.52C160.862 503.98 160.197 504.21 159.437 504.21ZM159.437 502.365C160.007 502.365 160.462 502.06 160.802 501.45C161.142 500.84 161.312 499.91 161.312 498.66C161.312 497.51 161.137 496.635 160.787 496.035C160.447 495.435 159.997 495.135 159.437 495.135C158.877 495.135 158.422 495.435 158.072 496.035C157.732 496.635 157.562 497.51 157.562 498.66C157.562 499.9 157.732 500.83 158.072 501.45C158.422 502.06 158.877 502.365 159.437 502.365ZM166.733 500.07C167.233 499.12 167.573 498.395 167.753 497.895C167.933 497.385 168.023 496.9 168.023 496.44C168.023 496.02 167.913 495.7 167.693 495.48C167.473 495.25 167.163 495.135 166.763 495.135C166.223 495.135 165.653 495.375 165.053 495.855L164.843 494.055C165.613 493.545 166.463 493.29 167.393 493.29C168.213 493.29 168.843 493.56 169.283 494.1C169.723 494.64 169.943 495.315 169.943 496.125C169.943 496.755 169.833 497.385 169.613 498.015C169.403 498.635 168.998 499.51 168.398 500.64L167.558 502.23H170.138V504H164.678L166.733 500.07ZM174.641 497.685C175.131 497.685 175.576 497.82 175.976 498.09C176.376 498.36 176.686 498.74 176.906 499.23C177.136 499.72 177.251 500.27 177.251 500.88C177.251 501.91 176.991 502.725 176.471 503.325C175.961 503.915 175.246 504.21 174.326 504.21C173.396 504.21 172.666 503.87 172.136 503.19C171.606 502.5 171.341 501.585 171.341 500.445C171.341 499.395 171.531 498.395 171.911 497.445C172.291 496.485 172.771 495.65 173.351 494.94C173.931 494.23 174.521 493.675 175.121 493.275L176.426 494.37C175.746 494.85 175.146 495.375 174.626 495.945C174.106 496.515 173.716 497.175 173.456 497.925C173.806 497.765 174.201 497.685 174.641 497.685ZM174.356 502.59C174.716 502.59 174.996 502.44 175.196 502.14C175.406 501.83 175.511 501.425 175.511 500.925C175.511 500.435 175.406 500.045 175.196 499.755C174.996 499.455 174.716 499.305 174.356 499.305C173.986 499.305 173.701 499.45 173.501 499.74C173.301 500.03 173.201 500.425 173.201 500.925C173.201 501.425 173.301 501.83 173.501 502.14C173.701 502.44 173.986 502.59 174.356 502.59Z" fill="black"/>
<path d="M104.82 583.495H101.835L101.115 586H99.2854L102.48 575.5H104.16L107.37 586H105.54L104.82 583.495ZM104.34 581.815L103.32 578.26L102.315 581.815H104.34ZM111.543 578.38C112.153 578.38 112.673 578.555 113.103 578.905C113.543 579.255 113.873 579.725 114.093 580.315C114.323 580.905 114.438 581.555 114.438 582.265C114.438 582.975 114.323 583.625 114.093 584.215C113.873 584.805 113.543 585.275 113.103 585.625C112.673 585.975 112.153 586.15 111.543 586.15C111.163 586.15 110.838 586.105 110.568 586.015C110.308 585.935 110.058 585.8 109.818 585.61V589.63H108.018V578.5H109.458L109.653 579.19C109.923 578.93 110.208 578.73 110.508 578.59C110.808 578.45 111.153 578.38 111.543 578.38ZM111.198 584.68C111.638 584.68 111.983 584.46 112.233 584.02C112.483 583.57 112.608 582.985 112.608 582.265C112.608 581.545 112.483 580.965 112.233 580.525C111.983 580.075 111.638 579.85 111.198 579.85C110.708 579.85 110.338 580.07 110.088 580.51C109.848 580.94 109.728 581.525 109.728 582.265C109.728 583.005 109.848 583.595 110.088 584.035C110.338 584.465 110.708 584.68 111.198 584.68ZM115.415 578.5H116.99L117.11 579.295C117.39 578.985 117.65 578.755 117.89 578.605C118.14 578.455 118.43 578.38 118.76 578.38C118.9 578.38 119.03 578.395 119.15 578.425L119.015 580.24C118.865 580.19 118.705 580.165 118.535 580.165C118.295 580.165 118.08 580.22 117.89 580.33C117.7 580.44 117.475 580.625 117.215 580.885V586H115.415V578.5ZM119.707 575.5H121.507V577.36H119.707V575.5ZM119.707 578.5H121.507V586H119.707V578.5ZM124.507 586.15C123.957 586.15 123.542 585.975 123.262 585.625C122.992 585.275 122.857 584.795 122.857 584.185V574.75H124.657V583.57C124.657 583.99 124.697 584.27 124.777 584.41C124.867 584.55 125.052 584.62 125.332 584.62L125.182 586.15H124.507ZM131.225 582.07C131.725 581.12 132.065 580.395 132.245 579.895C132.425 579.385 132.515 578.9 132.515 578.44C132.515 578.02 132.405 577.7 132.185 577.48C131.965 577.25 131.655 577.135 131.255 577.135C130.715 577.135 130.145 577.375 129.545 577.855L129.335 576.055C130.105 575.545 130.955 575.29 131.885 575.29C132.705 575.29 133.335 575.56 133.775 576.1C134.215 576.64 134.435 577.315 134.435 578.125C134.435 578.755 134.325 579.385 134.105 580.015C133.895 580.635 133.49 581.51 132.89 582.64L132.05 584.23H134.63V586H129.17L131.225 582.07ZM138.503 579.4C139.403 579.4 140.128 579.69 140.678 580.27C141.228 580.85 141.503 581.645 141.503 582.655C141.503 583.375 141.358 584.005 141.068 584.545C140.788 585.075 140.398 585.485 139.898 585.775C139.398 586.055 138.828 586.195 138.188 586.195C137.318 586.195 136.533 585.995 135.833 585.595L136.283 583.87C136.863 584.22 137.438 584.395 138.008 584.395C138.508 584.395 138.903 584.245 139.193 583.945C139.493 583.645 139.643 583.24 139.643 582.73C139.643 582.18 139.483 581.75 139.163 581.44C138.853 581.13 138.403 580.975 137.813 580.975C137.403 580.975 136.918 581.045 136.358 581.185L137.033 575.5H141.083L140.963 577.36H138.413L138.158 579.415C138.228 579.405 138.343 579.4 138.503 579.4ZM142.884 587.8L143.529 586H142.764V583.96H144.594V585.82L143.634 587.8H142.884ZM150.81 582.07C151.31 581.12 151.65 580.395 151.83 579.895C152.01 579.385 152.1 578.9 152.1 578.44C152.1 578.02 151.99 577.7 151.77 577.48C151.55 577.25 151.24 577.135 150.84 577.135C150.3 577.135 149.73 577.375 149.13 577.855L148.92 576.055C149.69 575.545 150.54 575.29 151.47 575.29C152.29 575.29 152.92 575.56 153.36 576.1C153.8 576.64 154.02 577.315 154.02 578.125C154.02 578.755 153.91 579.385 153.69 580.015C153.48 580.635 153.075 581.51 152.475 582.64L151.635 584.23H154.215V586H148.755L150.81 582.07ZM159.363 586.21C158.613 586.21 157.948 585.98 157.368 585.52C156.798 585.06 156.353 584.41 156.033 583.57C155.723 582.73 155.568 581.76 155.568 580.66C155.568 579.61 155.723 578.68 156.033 577.87C156.353 577.05 156.798 576.415 157.368 575.965C157.948 575.515 158.613 575.29 159.363 575.29C160.113 575.29 160.773 575.52 161.343 575.98C161.923 576.43 162.368 577.06 162.678 577.87C162.998 578.68 163.158 579.61 163.158 580.66C163.158 581.76 162.998 582.73 162.678 583.57C162.368 584.41 161.928 585.06 161.358 585.52C160.788 585.98 160.123 586.21 159.363 586.21ZM159.363 584.365C159.933 584.365 160.388 584.06 160.728 583.45C161.068 582.84 161.238 581.91 161.238 580.66C161.238 579.51 161.063 578.635 160.713 578.035C160.373 577.435 159.923 577.135 159.363 577.135C158.803 577.135 158.348 577.435 157.998 578.035C157.658 578.635 157.488 579.51 157.488 580.66C157.488 581.9 157.658 582.83 157.998 583.45C158.348 584.06 158.803 584.365 159.363 584.365ZM166.66 582.07C167.16 581.12 167.5 580.395 167.68 579.895C167.86 579.385 167.95 578.9 167.95 578.44C167.95 578.02 167.84 577.7 167.62 577.48C167.4 577.25 167.09 577.135 166.69 577.135C166.15 577.135 165.58 577.375 164.98 577.855L164.77 576.055C165.54 575.545 166.39 575.29 167.32 575.29C168.14 575.29 168.77 575.56 169.21 576.1C169.65 576.64 169.87 577.315 169.87 578.125C169.87 578.755 169.76 579.385 169.54 580.015C169.33 580.635 168.925 581.51 168.325 582.64L167.485 584.23H170.065V586H164.605L166.66 582.07ZM174.568 579.685C175.058 579.685 175.503 579.82 175.903 580.09C176.303 580.36 176.613 580.74 176.833 581.23C177.063 581.72 177.178 582.27 177.178 582.88C177.178 583.91 176.918 584.725 176.398 585.325C175.888 585.915 175.173 586.21 174.253 586.21C173.323 586.21 172.593 585.87 172.063 585.19C171.533 584.5 171.268 583.585 171.268 582.445C171.268 581.395 171.458 580.395 171.838 579.445C172.218 578.485 172.698 577.65 173.278 576.94C173.858 576.23 174.448 575.675 175.048 575.275L176.353 576.37C175.673 576.85 175.073 577.375 174.553 577.945C174.033 578.515 173.643 579.175 173.383 579.925C173.733 579.765 174.128 579.685 174.568 579.685ZM174.283 584.59C174.643 584.59 174.923 584.44 175.123 584.14C175.333 583.83 175.438 583.425 175.438 582.925C175.438 582.435 175.333 582.045 175.123 581.755C174.923 581.455 174.643 581.305 174.283 581.305C173.913 581.305 173.628 581.45 173.428 581.74C173.228 582.03 173.128 582.425 173.128 582.925C173.128 583.425 173.228 583.83 173.428 584.14C173.628 584.44 173.913 584.59 174.283 584.59Z" fill="black"/>
<path d="M104.505 666.495H101.52L100.8 669H98.9705L102.165 658.5H103.845L107.055 669H105.225L104.505 666.495ZM104.025 664.815L103.005 661.26L102 664.815H104.025ZM111.228 661.38C111.838 661.38 112.358 661.555 112.788 661.905C113.228 662.255 113.558 662.725 113.778 663.315C114.008 663.905 114.123 664.555 114.123 665.265C114.123 665.975 114.008 666.625 113.778 667.215C113.558 667.805 113.228 668.275 112.788 668.625C112.358 668.975 111.838 669.15 111.228 669.15C110.848 669.15 110.523 669.105 110.253 669.015C109.993 668.935 109.743 668.8 109.503 668.61V672.63H107.703V661.5H109.143L109.338 662.19C109.608 661.93 109.893 661.73 110.193 661.59C110.493 661.45 110.838 661.38 111.228 661.38ZM110.883 667.68C111.323 667.68 111.668 667.46 111.918 667.02C112.168 666.57 112.293 665.985 112.293 665.265C112.293 664.545 112.168 663.965 111.918 663.525C111.668 663.075 111.323 662.85 110.883 662.85C110.393 662.85 110.023 663.07 109.773 663.51C109.533 663.94 109.413 664.525 109.413 665.265C109.413 666.005 109.533 666.595 109.773 667.035C110.023 667.465 110.393 667.68 110.883 667.68ZM115.1 661.5H116.675L116.795 662.295C117.075 661.985 117.335 661.755 117.575 661.605C117.825 661.455 118.115 661.38 118.445 661.38C118.585 661.38 118.715 661.395 118.835 661.425L118.7 663.24C118.55 663.19 118.39 663.165 118.22 663.165C117.98 663.165 117.765 663.22 117.575 663.33C117.385 663.44 117.16 663.625 116.9 663.885V669H115.1V661.5ZM119.392 658.5H121.192V660.36H119.392V658.5ZM119.392 661.5H121.192V669H119.392V661.5ZM124.192 669.15C123.642 669.15 123.227 668.975 122.947 668.625C122.677 668.275 122.542 667.795 122.542 667.185V657.75H124.342V666.57C124.342 666.99 124.382 667.27 124.462 667.41C124.552 667.55 124.737 667.62 125.017 667.62L124.867 669.15H124.192ZM130.911 665.07C131.411 664.12 131.751 663.395 131.931 662.895C132.111 662.385 132.201 661.9 132.201 661.44C132.201 661.02 132.091 660.7 131.871 660.48C131.651 660.25 131.341 660.135 130.941 660.135C130.401 660.135 129.831 660.375 129.231 660.855L129.021 659.055C129.791 658.545 130.641 658.29 131.571 658.29C132.391 658.29 133.021 658.56 133.461 659.1C133.901 659.64 134.121 660.315 134.121 661.125C134.121 661.755 134.011 662.385 133.791 663.015C133.581 663.635 133.176 664.51 132.576 665.64L131.736 667.23H134.316V669H128.856L130.911 665.07ZM141.788 665.085V666.6H140.888V669H139.058V666.6H134.948L139.643 658.5H140.888V665.085H141.788ZM139.058 665.085V662.19L137.483 665.085H139.058ZM143.198 670.8L143.843 669H143.078V666.96H144.908V668.82L143.948 670.8H143.198ZM151.125 665.07C151.625 664.12 151.965 663.395 152.145 662.895C152.325 662.385 152.415 661.9 152.415 661.44C152.415 661.02 152.305 660.7 152.085 660.48C151.865 660.25 151.555 660.135 151.155 660.135C150.615 660.135 150.045 660.375 149.445 660.855L149.235 659.055C150.005 658.545 150.855 658.29 151.785 658.29C152.605 658.29 153.235 658.56 153.675 659.1C154.115 659.64 154.335 660.315 154.335 661.125C154.335 661.755 154.225 662.385 154.005 663.015C153.795 663.635 153.39 664.51 152.79 665.64L151.95 667.23H154.53V669H149.07L151.125 665.07ZM159.678 669.21C158.928 669.21 158.263 668.98 157.683 668.52C157.113 668.06 156.668 667.41 156.348 666.57C156.038 665.73 155.883 664.76 155.883 663.66C155.883 662.61 156.038 661.68 156.348 660.87C156.668 660.05 157.113 659.415 157.683 658.965C158.263 658.515 158.928 658.29 159.678 658.29C160.428 658.29 161.088 658.52 161.658 658.98C162.238 659.43 162.683 660.06 162.993 660.87C163.313 661.68 163.473 662.61 163.473 663.66C163.473 664.76 163.313 665.73 162.993 666.57C162.683 667.41 162.243 668.06 161.673 668.52C161.103 668.98 160.438 669.21 159.678 669.21ZM159.678 667.365C160.248 667.365 160.703 667.06 161.043 666.45C161.383 665.84 161.553 664.91 161.553 663.66C161.553 662.51 161.378 661.635 161.028 661.035C160.688 660.435 160.238 660.135 159.678 660.135C159.118 660.135 158.663 660.435 158.313 661.035C157.973 661.635 157.803 662.51 157.803 663.66C157.803 664.9 157.973 665.83 158.313 666.45C158.663 667.06 159.118 667.365 159.678 667.365ZM166.975 665.07C167.475 664.12 167.815 663.395 167.995 662.895C168.175 662.385 168.265 661.9 168.265 661.44C168.265 661.02 168.155 660.7 167.935 660.48C167.715 660.25 167.405 660.135 167.005 660.135C166.465 660.135 165.895 660.375 165.295 660.855L165.085 659.055C165.855 658.545 166.705 658.29 167.635 658.29C168.455 658.29 169.085 658.56 169.525 659.1C169.965 659.64 170.185 660.315 170.185 661.125C170.185 661.755 170.075 662.385 169.855 663.015C169.645 663.635 169.24 664.51 168.64 665.64L167.8 667.23H170.38V669H164.92L166.975 665.07ZM174.883 662.685C175.373 662.685 175.818 662.82 176.218 663.09C176.618 663.36 176.928 663.74 177.148 664.23C177.378 664.72 177.493 665.27 177.493 665.88C177.493 666.91 177.233 667.725 176.713 668.325C176.203 668.915 175.488 669.21 174.568 669.21C173.638 669.21 172.908 668.87 172.378 668.19C171.848 667.5 171.583 666.585 171.583 665.445C171.583 664.395 171.773 663.395 172.153 662.445C172.533 661.485 173.013 660.65 173.593 659.94C174.173 659.23 174.763 658.675 175.363 658.275L176.668 659.37C175.988 659.85 175.388 660.375 174.868 660.945C174.348 661.515 173.958 662.175 173.698 662.925C174.048 662.765 174.443 662.685 174.883 662.685ZM174.598 667.59C174.958 667.59 175.238 667.44 175.438 667.14C175.648 666.83 175.753 666.425 175.753 665.925C175.753 665.435 175.648 665.045 175.438 664.755C175.238 664.455 174.958 664.305 174.598 664.305C174.228 664.305 173.943 664.45 173.743 664.74C173.543 665.03 173.443 665.425 173.443 665.925C173.443 666.425 173.543 666.83 173.743 667.14C173.943 667.44 174.228 667.59 174.598 667.59Z" fill="black"/>
<path d="M75.43 662.413C75.43 672.503 70.488 681.995 58.215 681.995C45.942 681.995 41 672.502 41 662.413C41 648.328 48.7074 651.383 58.215 651.383C67.7226 651.383 75.43 646.837 75.43 662.413Z" fill="url(#paint0_linear_582_2)"/>
<ellipse cx="50.5752" cy="666.861" rx="0.772189" ry="2.70266" fill="black"/>
<ellipse cx="66.6367" cy="666.861" rx="0.772189" ry="2.70266" fill="black"/>
<path d="M52.1196 673.424C51.3409 672.917 55.089 672.971 58.9271 672.988C62.7653 673.005 65.324 672.988 65.7874 673.424C66.2507 673.861 62.7653 673.824 58.9271 673.807C55.089 673.79 52.5568 673.709 52.1196 673.424Z" fill="black"/>
<path d="M64.6386 653.193C64.6386 653.704 61.8383 654.119 58.3839 654.119C54.9295 654.119 52.1292 653.704 52.1292 653.193C52.1292 652.681 55.0163 653.115 58.4707 653.115C61.9251 653.115 64.6386 652.681 64.6386 653.193Z" fill="#272525"/>
<path d="M53.5025 643.776L54.9101 643.212L56.6273 646.689L58.5185 650.785L58.8395 653.032L59.1367 653.193L57.9069 653.347L58.1631 652.72L57.9069 650.658L56.4703 647.47L55.4376 645.909L54.675 644.551L53.5025 643.776Z" fill="#272525"/>
<ellipse cx="66.4318" cy="656.95" rx="1.17766" ry="0.638501" transform="rotate(29.2156 66.4318 656.95)" fill="black"/>
<path d="M69.2938 654.037C67.6085 657.385 67.0228 658.212 65.8645 657.363C65.324 656.822 65.7315 657.489 67.8381 653.304C68.9967 651.003 72.271 650.29 72.9601 650.637C74.4645 652.05 70.6899 651.264 69.2938 654.037Z" fill="#C38B8B"/>
<path d="M70.123 651.307L70.8314 652.427L70.2869 652.816L69.3354 651.567L69.4929 651.515L69.7032 651.359L69.9134 651.202L70.123 651.307Z" fill="#DCBEBE"/>
<path d="M74.43 576.413C74.43 586.503 69.488 595.996 57.215 595.996C44.942 595.996 40 586.502 40 576.413C40 562.328 47.7074 565.383 57.215 565.383C66.7226 565.383 74.43 560.837 74.43 576.413Z" fill="url(#paint1_linear_582_2)"/>
<path d="M51.7372 586.034C51.5056 585.185 54.0926 586.941 57.9307 586.957C61.7689 586.974 64.4783 585.313 64.4783 585.88C64.4784 586.447 61.7652 587.824 57.927 587.807C54.0888 587.79 51.8745 586.538 51.7372 586.034Z" fill="black"/>
<path d="M63.6386 567.193C63.6386 567.704 60.8383 568.119 57.3839 568.119C53.9295 568.119 51.1292 567.704 51.1292 567.193C51.1292 566.681 54.0163 567.115 57.4707 567.115C60.9251 567.115 63.6386 566.681 63.6386 567.193Z" fill="#272525"/>
<path d="M52.5028 557.776L53.9104 557.212L55.6275 560.689L57.5188 564.785L57.8398 567.032L58.137 567.193L56.9071 567.347L57.1633 566.72L56.9071 564.658L55.4705 561.47L54.4379 559.909L53.6753 558.551L52.5028 557.776Z" fill="#272525"/>
<ellipse cx="49.5752" cy="580.243" rx="0.772189" ry="2.70267" fill="black"/>
<ellipse cx="65.6367" cy="580.243" rx="0.772189" ry="2.70267" fill="black"/>
<path d="M69.2411 568.862C69.9131 570.072 70.0231 571.294 69.4869 571.592C68.9507 571.89 69.4765 570.157 68.8046 568.947C68.1326 567.736 66.5174 567.507 67.0536 567.21C67.5898 566.912 68.5692 567.651 69.2411 568.862Z" fill="#D9D9D9"/>
<path d="M74.434 498.415C74.434 508.506 69.4914 518 57.217 518C44.9426 518 40 508.506 40 498.415C40 484.329 47.7083 487.384 57.217 487.384C66.7257 487.384 74.434 482.837 74.434 498.415Z" fill="url(#paint2_linear_582_2)"/>
<path d="M52.4337 506.648C52.202 505.798 54.0943 508.944 57.9329 508.961C61.7715 508.978 63.8634 506.08 63.8634 506.648C63.8634 507.215 61.7678 509.827 57.9291 509.81C54.0905 509.794 52.571 507.151 52.4337 506.648Z" fill="black"/>
<path d="M63.6413 489.194C63.6413 489.706 60.8406 490.121 57.3858 490.121C53.931 490.121 51.1304 489.706 51.1304 489.194C51.1304 488.682 54.0179 489.117 57.4727 489.117C60.9275 489.117 63.6413 488.682 63.6413 489.194Z" fill="#272525"/>
<path d="M52.504 479.776L53.9117 479.212L55.6291 482.689L57.5206 486.786L57.8416 489.033L58.1388 489.194L56.9089 489.349L57.1651 488.721L56.9089 486.658L55.4721 483.47L54.4393 481.91L53.6766 480.551L52.504 479.776Z" fill="#272525"/>
<ellipse cx="49.5762" cy="502.246" rx="0.772278" ry="2.70297" fill="black"/>
<ellipse cx="65.6397" cy="502.246" rx="0.772278" ry="2.70297" fill="black"/>
<path d="M69.2446 490.863C69.9166 492.073 70.0266 493.296 69.4904 493.593C68.9541 493.891 69.48 492.158 68.808 490.948C68.136 489.738 66.5205 489.509 67.0568 489.211C67.5931 488.913 68.5726 489.653 69.2446 490.863Z" fill="#D9D9D9"/>
<path d="M168.756 284.2H171.684V298.312H177.348V301H168.756V284.2ZM180.964 301.24C180.068 301.24 179.308 300.952 178.684 300.376C178.076 299.784 177.772 298.96 177.772 297.904C177.772 296.8 178.1 295.92 178.756 295.264C179.428 294.592 180.196 294.112 181.06 293.824C181.94 293.536 182.74 293.376 183.46 293.344C183.46 292.64 183.332 292.136 183.076 291.832C182.82 291.528 182.38 291.376 181.756 291.376C181.276 291.376 180.812 291.456 180.364 291.616C179.916 291.76 179.412 291.984 178.852 292.288L178.66 289.864C179.94 289.16 181.228 288.808 182.524 288.808C183.724 288.808 184.66 289.168 185.332 289.888C186.02 290.592 186.364 291.712 186.364 293.248V296.872C186.364 297.464 186.388 297.896 186.436 298.168C186.484 298.44 186.556 298.616 186.652 298.696C186.764 298.76 186.932 298.792 187.156 298.792H187.54L187.348 301.24H186.076C185.628 301.24 185.196 301.112 184.78 300.856C184.38 300.6 184.084 300.264 183.892 299.848C183.46 300.312 183.02 300.664 182.572 300.904C182.124 301.128 181.588 301.24 180.964 301.24ZM181.948 298.96C182.492 298.96 183.004 298.672 183.484 298.096V295.36C182.716 295.456 182.076 295.688 181.564 296.056C181.052 296.408 180.796 296.928 180.796 297.616C180.796 298.08 180.9 298.424 181.108 298.648C181.316 298.856 181.596 298.96 181.948 298.96ZM197.977 289V301H195.481L195.361 300.064C194.577 300.816 193.601 301.192 192.433 301.192C191.233 301.192 190.313 300.8 189.673 300.016C189.049 299.216 188.737 298.144 188.737 296.8V289H191.617V296.416C191.617 298.032 192.161 298.84 193.249 298.84C194.001 298.84 194.617 298.496 195.097 297.808V289H197.977ZM199.939 289H202.459L202.651 290.272C203.099 289.776 203.515 289.408 203.899 289.168C204.299 288.928 204.763 288.808 205.291 288.808C205.515 288.808 205.723 288.832 205.915 288.88L205.699 291.784C205.459 291.704 205.203 291.664 204.931 291.664C204.547 291.664 204.203 291.752 203.899 291.928C203.595 292.104 203.235 292.4 202.819 292.816V301H199.939V289ZM211.73 301.24C210.515 301.24 209.483 300.96 208.635 300.4C207.787 299.84 207.147 299.088 206.715 298.144C206.299 297.2 206.091 296.152 206.091 295C206.091 293.816 206.291 292.76 206.691 291.832C207.091 290.888 207.683 290.152 208.467 289.624C209.251 289.08 210.187 288.808 211.275 288.808C212.635 288.808 213.707 289.288 214.491 290.248C215.275 291.208 215.667 292.496 215.667 294.112C215.667 294.576 215.619 295.088 215.523 295.648H209.067C209.163 296.736 209.483 297.552 210.027 298.096C210.571 298.624 211.243 298.888 212.043 298.888C213.131 298.888 214.163 298.568 215.139 297.928L215.211 300.448C214.235 300.976 213.075 301.24 211.73 301.24ZM212.763 293.632C212.763 291.984 212.203 291.16 211.083 291.16C209.979 291.16 209.315 291.984 209.09 293.632H212.763ZM223.017 288.808C224.217 288.808 225.129 289.208 225.753 290.008C226.393 290.792 226.713 291.856 226.713 293.2V301H223.833V293.584C223.833 291.968 223.289 291.16 222.201 291.16C221.449 291.16 220.833 291.504 220.353 292.192V301H217.473V289H219.969L220.089 289.936C220.873 289.184 221.849 288.808 223.017 288.808Z" fill="black"/>
<rect x="385" y="465" width="3" height="107" rx="1.5" fill="black"/>
<path d="M109.49 345.712C110.29 344.192 110.834 343.032 111.122 342.232C111.41 341.416 111.554 340.64 111.554 339.904C111.554 339.232 111.378 338.72 111.026 338.368C110.674 338 110.178 337.816 109.538 337.816C108.674 337.816 107.762 338.2 106.802 338.968L106.466 336.088C107.698 335.272 109.058 334.864 110.546 334.864C111.858 334.864 112.866 335.296 113.57 336.16C114.274 337.024 114.626 338.104 114.626 339.4C114.626 340.408 114.45 341.416 114.098 342.424C113.762 343.416 113.114 344.816 112.154 346.624L110.81 349.168H114.938V352H106.202L109.49 345.712ZM126.894 345.736V348.16H125.454V352H122.526V348.16H115.95L123.462 335.2H125.454V345.736H126.894ZM122.526 345.736V341.104L120.006 345.736H122.526Z" fill="black"/>
<path d="M251.924 339.544C251.396 339.976 250.812 340.264 250.172 340.408L249.98 337.816C250.54 337.64 251.076 337.304 251.588 336.808C252.1 336.312 252.452 335.776 252.644 335.2H254.852V352H251.924V339.544ZM268.299 339.808C269.499 339.808 270.411 340.208 271.035 341.008C271.675 341.792 271.995 342.856 271.995 344.2V352H269.115V344.584C269.115 342.968 268.571 342.16 267.483 342.16C266.731 342.16 266.115 342.504 265.635 343.192V352H262.755V334H265.635V340.696C266.355 340.104 267.243 339.808 268.299 339.808ZM274.17 340H276.69L276.882 341.272C277.33 340.776 277.746 340.408 278.13 340.168C278.53 339.928 278.994 339.808 279.522 339.808C279.746 339.808 279.954 339.832 280.146 339.88L279.93 342.784C279.69 342.704 279.434 342.664 279.162 342.664C278.778 342.664 278.434 342.752 278.13 342.928C277.826 343.104 277.466 343.4 277.05 343.816V352H274.17V340Z" fill="black"/>
<rect y="780" width="393" height="72" fill="#BAC15B"/>
<circle cx="44.9811" cy="816" r="22.9811" fill="#EC9808"/>
<path d="M45.5284 803.963L57.3749 814.632H33.6818L45.5284 803.963Z" fill="white"/>
<rect x="36.2263" y="812.717" width="5.4717" height="13.1321" fill="white"/>
<rect x="48.2642" y="812.717" width="5.4717" height="13.1321" fill="white"/>
<circle cx="120.943" cy="816" r="22.9811" fill="#EC9808"/>
<circle cx="114.925" cy="809.981" r="4.92453" fill="white"/>
<path d="M123.132 820.896C123.132 826.018 119.457 826.944 114.925 826.944C110.392 826.944 106.717 826.018 106.717 820.896C106.717 815.775 110.392 811.623 114.925 811.623C119.457 811.623 123.132 815.775 123.132 820.896Z" fill="white"/>
<circle cx="126.962" cy="809.981" r="4.92453" fill="white"/>
<path d="M135.17 820.896C135.17 826.018 131.495 826.944 126.962 826.944C122.429 826.944 118.755 826.018 118.755 820.896C118.755 815.775 122.429 811.623 126.962 811.623C131.495 811.623 135.17 815.775 135.17 820.896Z" fill="white"/>
<circle cx="196.906" cy="816" r="22.9811" fill="#EC9808"/>
<rect x="185.962" y="814.906" width="22.9811" height="3.28302" fill="white"/>
<rect x="195.811" y="829.132" width="24.0755" height="3.28302" transform="rotate(-90 195.811 829.132)" fill="white"/>
<circle cx="272.868" cy="816" r="22.9811" fill="#EC9808"/>
<path d="M259.736 803.963L273.941 805.969L287.094 803.963V828.038L273.941 826.032L259.736 828.038V803.963Z" fill="white"/>
<path d="M261.924 806.151L271.773 807.843V823.064L261.924 824.755V806.151Z" fill="#EC9808"/>
<path d="M284.906 824.755L276.151 823.064V807.843L284.906 806.151V824.755Z" fill="#EC9808"/>
<circle cx="348.83" cy="816" r="22.9811" fill="#A2A652"/>
<rect x="333.614" y="810.5" width="30.4873" height="15.7752" rx="7" fill="black"/>
<path d="M367.065 810.062C367.065 811.03 358.49 811.376 348.434 811.376C338.378 811.376 330.227 811.03 330.227 810.062C330.227 809.094 338.378 807.871 348.434 807.871C358.49 807.871 367.065 809.094 367.065 810.062Z" fill="#8C704E"/>
<path d="M364.101 806.995C364.101 815.708 357.466 822.77 349.281 822.77C341.096 822.77 334.461 815.708 334.461 806.995C334.461 798.283 341.096 799.546 349.281 799.546C357.466 799.546 364.101 798.283 364.101 806.995Z" fill="#D8C59D"/>
<path d="M361.842 800.688C364.698 806.881 365.412 813.023 362.695 814.341C359.977 815.66 355.458 811.708 352.602 805.515C349.746 799.322 349.885 802.007 352.602 800.688C355.803 799.135 359.077 793.736 361.842 800.688Z" fill="black"/>
<path d="M344.217 806.989C342.134 812.646 338.221 816.37 335.477 815.307C332.734 814.244 332.84 809.437 334.923 803.781C337.006 798.124 340.449 797.713 342.93 799.545C345.673 800.608 346.3 801.333 344.217 806.989Z" fill="black"/>
<path d="M367.065 810.062C367.065 810.788 358.49 810.5 348.434 810.5C338.378 810.5 330.227 810.788 330.227 810.062C330.227 809.336 338.378 807.871 348.434 807.871C358.49 807.871 367.065 809.336 367.065 810.062Z" fill="#5B4A36"/>
<path d="M336.578 796.477H361.279L365.372 809.185H333.191L336.578 796.477Z" fill="#726058"/>
<ellipse cx="342.93" cy="815.319" rx="0.846869" ry="1.3146" fill="black"/>
<ellipse cx="342.93" cy="815.319" rx="0.846869" ry="1.3146" fill="black"/>
<ellipse cx="342.93" cy="815.319" rx="0.846869" ry="1.3146" fill="black"/>
<ellipse cx="354.786" cy="815.319" rx="0.846869" ry="1.3146" fill="black"/>
<ellipse cx="354.786" cy="815.319" rx="0.846869" ry="1.3146" fill="black"/>
<ellipse cx="354.786" cy="815.319" rx="0.846869" ry="1.3146" fill="black"/>
<path d="M351.399 818.509C351.399 818.926 350.261 819.264 348.858 819.264C347.455 819.264 346.317 818.926 346.317 818.509C346.317 818.092 347.455 818.886 348.858 818.886C350.261 818.886 351.399 818.092 351.399 818.509Z" fill="black"/>
<path d="M351.399 818.509C351.399 818.926 350.261 819.264 348.858 819.264C347.455 819.264 346.317 818.926 346.317 818.509C346.317 818.092 347.455 818.886 348.858 818.886C350.261 818.886 351.399 818.092 351.399 818.509Z" fill="black"/>
<path d="M351.399 818.509C351.399 818.926 350.261 819.264 348.858 819.264C347.455 819.264 346.317 818.926 346.317 818.509C346.317 818.092 347.455 818.886 348.858 818.886C350.261 818.886 351.399 818.092 351.399 818.509Z" fill="black"/>
<rect x="346.317" y="821.017" width="5.08121" height="3.5056" fill="#D8C59D"/>
<path d="M340.912 826.04C341.199 824.646 342.427 823.646 343.85 823.646H353.866C355.289 823.646 356.516 824.646 356.804 826.04L358.277 833.186C358.661 835.048 357.239 836.792 355.339 836.792H349.535H342.377C340.476 836.792 339.055 835.048 339.439 833.186L340.912 826.04Z" fill="#A71515"/>
<rect x="343.776" y="826.275" width="1.69374" height="2.6292" fill="#726058"/>
<rect x="352.245" y="826.275" width="1.69374" height="2.6292" fill="#726058"/>
<rect x="341.236" y="828.905" width="15.2436" height="7.88761" fill="#726058"/>
</g>
<defs>
<filter id="filter0_d_582_2" x="123.067" y="113.173" width="148.117" height="168.076" filterUnits="userSpaceOnUse" color-interpolation-filters="sRGB">
<feFlood flood-opacity="0" result="BackgroundImageFix"/>
<feColorMatrix in="SourceAlpha" type="matrix" values="0 0 0 0 0 0 0 0 0 0 0 0 0 0 0 0 0 0 127 0" result="hardAlpha"/>
<feOffset dy="4"/>
<feGaussianBlur stdDeviation="3"/>
<feComposite in2="hardAlpha" operator="out"/>
<feColorMatrix type="matrix" values="0 0 0 0 0 0 0 0 0 0 0 0 0 0 0 0 0 0 0.25 0"/>
<feBlend mode="normal" in2="BackgroundImageFix" result="effect1_dropShadow_582_2"/>
<feBlend mode="normal" in="SourceGraphic" in2="effect1_dropShadow_582_2" result="shape"/>
</filter>
<linearGradient id="paint0_linear_582_2" x1="68.0266" y1="658.675" x2="49.0308" y2="682.613" gradientUnits="userSpaceOnUse">
<stop stop-color="#9C865C"/>
<stop offset="0.8796" stop-color="#59462E"/>
<stop offset="1" stop-color="#372518"/>
</linearGradient>
<linearGradient id="paint1_linear_582_2" x1="78.9183" y1="557.386" x2="42.3937" y2="600.551" gradientUnits="userSpaceOnUse">
<stop stop-color="#FDBD5C"/>
<stop offset="0.673077" stop-color="#E68D06"/>
<stop offset="1" stop-color="#B3720F"/>
</linearGradient>
<linearGradient id="paint2_linear_582_2" x1="74.4436" y1="483.325" x2="43.9386" y2="519.622" gradientUnits="userSpaceOnUse">
<stop stop-color="#FF4747"/>
<stop offset="0.73641" stop-color="#D71A1A"/>
<stop offset="0.96582" stop-color="#991514"/>
</linearGradient>
<clipPath id="clip0_582_2">
<rect width="393" height="852" fill="white"/>
</clipPath>
</defs>
</svg>
