<svg width="251" height="280" viewBox="0 0 251 280" fill="none" xmlns="http://www.w3.org/2000/svg">
<g filter="url(#filter0_d_12_59)">
<path d="M239.938 129.325C239.938 194.66 207.938 256.125 128.469 256.125C49 256.125 17 194.657 17 129.325C17 38.1251 66.9063 57.9087 128.469 57.9087C190.031 57.9087 239.938 28.4699 239.938 129.325Z" fill="url(#paint0_linear_12_59)"/>
<ellipse cx="79" cy="158.125" rx="5" ry="17.5" fill="black"/>
<ellipse cx="183" cy="158.125" rx="5" ry="17.5" fill="black"/>
<path d="M89 200.625C83.958 197.34 108.227 197.689 133.079 197.799C157.932 197.909 174.5 197.799 177.5 200.625C180.5 203.452 157.932 203.212 133.079 203.103C108.227 202.993 91.8307 202.47 89 200.625Z" fill="black"/>
<path d="M170.062 69.6246C170.062 72.9383 151.93 75.6246 129.562 75.6246C107.195 75.6246 89.0623 72.9383 89.0623 69.6246C89.0623 66.3109 107.757 69.1246 130.125 69.1246C152.492 69.1246 170.062 66.3109 170.062 69.6246Z" fill="#272525"/>
<path d="M97.9558 8.64725L107.07 4.99994L118.189 27.5117L130.435 54.0334L132.513 68.58L134.438 69.6254L126.474 70.6254L128.133 66.5629L126.474 53.2089L117.172 32.5677L110.486 22.4629L105.548 13.668L97.9558 8.64725Z" fill="#272525"/>
<ellipse cx="181.673" cy="93.9557" rx="7.62549" ry="4.13436" transform="rotate(29.2156 181.673 93.9557)" fill="black"/>
<path d="M200.205 75.0917C189.293 96.7696 185.5 102.125 178 96.6251C174.5 93.1252 177.138 97.4441 190.779 70.3467C198.281 55.4432 219.483 50.832 223.945 53.0782C233.686 62.2272 209.245 57.1331 200.205 75.0917Z" fill="#C38B8B"/>
<path d="M205.573 57.4155L210.161 64.6693L206.635 67.1855L200.474 59.1002L201.494 58.7633L202.855 57.748L204.217 56.7325L205.573 57.4155Z" fill="#DCBEBE"/>
</g>
<defs>
<filter id="filter0_d_12_59" x="0" y="0" width="250.938" height="279.125" filterUnits="userSpaceOnUse" color-interpolation-filters="sRGB">
<feFlood flood-opacity="0" result="BackgroundImageFix"/>
<feColorMatrix in="SourceAlpha" type="matrix" values="0 0 0 0 0 0 0 0 0 0 0 0 0 0 0 0 0 0 127 0" result="hardAlpha"/>
<feOffset dx="-3" dy="9"/>
<feGaussianBlur stdDeviation="7"/>
<feComposite in2="hardAlpha" operator="out"/>
<feColorMatrix type="matrix" values="0 0 0 0 0 0 0 0 0 0 0 0 0 0 0 0 0 0 0.25 0"/>
<feBlend mode="normal" in2="BackgroundImageFix" result="effect1_dropShadow_12_59"/>
<feBlend mode="normal" in="SourceGraphic" in2="effect1_dropShadow_12_59" result="shape"/>
</filter>
<linearGradient id="paint0_linear_12_59" x1="192" y1="105.125" x2="69" y2="260.125" gradientUnits="userSpaceOnUse">
<stop stop-color="#9C865C"/>
<stop offset="0.8796" stop-color="#59462E"/>
<stop offset="1" stop-color="#372518"/>
</linearGradient>
</defs>
</svg>
