<svg width="251" height="280" viewBox="0 0 251 280" fill="none" xmlns="http://www.w3.org/2000/svg">
<g filter="url(#filter0_d_12_58)">
<path d="M239.938 129.325C239.938 194.661 207.938 256.125 128.469 256.125C49 256.125 17 194.657 17 129.325C17 38.1253 66.9063 57.9089 128.469 57.9089C190.031 57.9089 239.938 28.4701 239.938 129.325Z" fill="url(#paint0_linear_12_58)"/>
<ellipse cx="79" cy="154.125" rx="5" ry="17.5" fill="black"/>
<ellipse cx="183" cy="154.125" rx="5" ry="17.5" fill="black"/>
<path d="M89.5419 197.411C84.064 192.387 108.251 197.493 133.104 197.603C157.956 197.712 177.603 194.125 177.603 197.799C177.603 201.473 157.932 203.212 133.079 203.103C108.227 202.993 92.0319 199.695 89.5419 197.411Z" fill="black"/>
<path d="M170.062 69.6247C170.062 72.9384 151.93 75.6247 129.562 75.6247C107.195 75.6247 89.0623 72.9384 89.0623 69.6247C89.0623 66.311 107.757 69.1247 130.125 69.1247C152.492 69.1247 170.062 66.311 170.062 69.6247Z" fill="#272525"/>
<path d="M97.9558 8.64725L107.07 4.99994L118.189 27.5117L130.435 54.0334L132.513 68.58L134.438 69.6254L126.474 70.6254L128.133 66.5629L126.474 53.2089L117.172 32.5677L110.486 22.4629L105.548 13.668L97.9558 8.64725Z" fill="#272525"/>
</g>
<defs>
<filter id="filter0_d_12_58" x="0" y="0" width="250.938" height="279.125" filterUnits="userSpaceOnUse" color-interpolation-filters="sRGB">
<feFlood flood-opacity="0" result="BackgroundImageFix"/>
<feColorMatrix in="SourceAlpha" type="matrix" values="0 0 0 0 0 0 0 0 0 0 0 0 0 0 0 0 0 0 127 0" result="hardAlpha"/>
<feOffset dx="-3" dy="9"/>
<feGaussianBlur stdDeviation="7"/>
<feComposite in2="hardAlpha" operator="out"/>
<feColorMatrix type="matrix" values="0 0 0 0 0 0 0 0 0 0 0 0 0 0 0 0 0 0 0.25 0"/>
<feBlend mode="normal" in2="BackgroundImageFix" result="effect1_dropShadow_12_58"/>
<feBlend mode="normal" in="SourceGraphic" in2="effect1_dropShadow_12_58" result="shape"/>
</filter>
<linearGradient id="paint0_linear_12_58" x1="58" y1="267.125" x2="287.5" y2="19.6255" gradientUnits="userSpaceOnUse">
<stop stop-color="#DD9D1D"/>
<stop offset="0.528208" stop-color="#FBDD12"/>
<stop offset="0.969059" stop-color="#FFF5B5"/>
</linearGradient>
</defs>
</svg>
