<svg width="272" height="280" viewBox="0 0 272 280" fill="none" xmlns="http://www.w3.org/2000/svg">
<g filter="url(#filter0_d_178_616)">
<path d="M250 129.333C250 194.922 217.704 256.625 137.5 256.625C57.296 256.625 25 194.918 25 129.333C25 37.7802 75.368 57.6405 137.5 57.6405C199.632 57.6405 250 28.0876 250 129.333Z" fill="url(#paint0_linear_178_616)"/>
</g>
<ellipse cx="87" cy="155.125" rx="5" ry="17.5" fill="black"/>
<ellipse cx="192" cy="155.125" rx="5" ry="17.5" fill="black"/>
<path d="M179.062 69.6246C179.062 72.9383 160.93 75.6246 138.562 75.6246C116.195 75.6246 98.0623 72.9383 98.0623 69.6246C98.0623 66.3109 116.757 69.1246 139.125 69.1246C161.492 69.1246 179.062 66.3109 179.062 69.6246Z" fill="#272525"/>
<g filter="url(#filter1_d_178_616)">
<path d="M106.956 8.64725L116.07 4.99994L127.189 27.5117L139.435 54.0334L141.513 68.58L143.438 69.6254L135.474 70.6254L137.133 66.5629L135.474 53.2089L126.172 32.5677L119.486 22.4629L114.548 13.668L106.956 8.64725Z" fill="#272525"/>
</g>
<path d="M170 211.229C170 218.353 156.751 195.896 139.151 195.896C121.552 195.896 110.516 213.625 109.1 211.229C107.683 208.834 121.552 190.625 139.151 190.625C156.751 190.625 170 207.875 170 211.229Z" fill="black"/>
<ellipse cx="87.5" cy="186.125" rx="2.5" ry="8.5" fill="#A5A7C0"/>
<path d="M239.113 52.1736C239.559 50.699 241.018 49.5859 243.198 49.0653C245.365 48.548 248.148 48.6475 251.019 49.5161C253.89 50.3847 256.26 51.844 257.777 53.4755C259.304 55.1176 259.902 56.853 259.456 58.3277C259.01 59.8022 257.55 60.9142 255.37 61.4348C253.203 61.9519 250.421 61.8528 247.55 60.9843C244.678 60.1157 242.308 58.6562 240.791 57.0245C239.264 55.3826 238.667 53.6482 239.113 52.1736Z" fill="#292929" stroke="black"/>
<path d="M253.661 70.5255C252.533 71.2052 251.046 71.1661 249.501 70.4381C247.961 69.7119 246.421 68.3207 245.275 66.4198C244.129 64.5188 243.619 62.5065 243.696 60.8049C243.774 59.0993 244.435 57.7662 245.563 57.0865C246.691 56.4067 248.178 56.4459 249.722 57.1738C251.263 57.9001 252.803 59.292 253.949 61.193C255.094 63.0939 255.605 65.1056 255.527 66.8071C255.449 68.5128 254.789 69.8457 253.661 70.5255Z" fill="#D9D9D9" fill-opacity="0.57" stroke="black"/>
<path d="M246.988 53.585C245.939 52.7896 245.423 51.3943 245.526 49.6899C245.629 47.9897 246.35 46.0434 247.69 44.2744C249.03 42.5053 250.709 41.2843 252.318 40.7253C253.931 40.1649 255.414 40.2834 256.464 41.0787C257.514 41.874 258.029 43.2695 257.926 44.9738C257.823 46.674 257.102 48.621 255.762 50.39C254.421 52.159 252.743 53.3794 251.134 53.9384C249.521 54.4988 248.038 54.3803 246.988 53.585Z" fill="#D9D9D9" fill-opacity="0.57" stroke="black"/>
<path d="M38.5108 42.0943C37.6111 43.2549 35.9307 43.7513 33.801 43.4703C31.6851 43.1911 29.2285 42.1493 26.9549 40.3874C24.6811 38.6253 23.0588 36.506 22.2603 34.5266C21.4567 32.5344 21.518 30.7833 22.4174 29.6225C23.3171 28.4616 24.9979 27.9646 27.1278 28.2457C29.2438 28.5249 31.701 29.5671 33.9747 31.3291C36.2483 33.0912 37.8701 35.2101 38.6685 37.1893C39.4722 39.1818 39.4105 40.9334 38.5108 42.0943Z" fill="#292929" stroke="black"/>
<path d="M31.7851 20.683C33.0209 20.4622 34.3347 21.0026 35.4665 22.1819C36.5953 23.3583 37.4961 25.1308 37.8703 27.2245C38.2443 29.3182 38.0128 31.2929 37.3612 32.7875C36.7078 34.2859 35.6626 35.2486 34.4268 35.4694C33.191 35.69 31.878 35.1487 30.7462 33.9693C29.6173 32.7928 28.7155 31.0207 28.3414 28.9269C27.9675 26.8332 28.1998 24.8582 28.8515 23.3637C29.5049 21.8657 30.5495 20.9038 31.7851 20.683Z" fill="#D9D9D9" fill-opacity="0.57" stroke="black"/>
<path d="M31.9338 38.149C32.5973 39.2147 32.5829 40.6352 31.9076 42.1237C31.234 43.6085 29.9222 45.1026 28.1167 46.2268C26.3112 47.3509 24.3916 47.8686 22.7619 47.818C21.128 47.7671 19.8463 47.1537 19.1828 46.088C18.5193 45.0222 18.5349 43.6021 19.2103 42.1135C19.8839 40.6287 21.195 39.1338 23.0006 38.0096C24.8061 36.8856 26.7263 36.3686 28.3559 36.4193C29.9895 36.4703 31.2703 37.0835 31.9338 38.149Z" fill="#D9D9D9" fill-opacity="0.57" stroke="black"/>
<path d="M21.8307 193.466C22.473 194.614 22.2992 196.181 21.3101 197.86C20.328 199.527 18.587 201.211 16.3067 202.487C14.0263 203.764 11.6807 204.367 9.74646 204.333C7.79799 204.298 6.3709 203.627 5.72853 202.479C5.08621 201.332 5.25991 199.764 6.24913 198.085C7.23116 196.418 8.97209 194.735 11.2525 193.458C13.5328 192.182 15.8785 191.578 17.8127 191.612C19.7611 191.647 21.1883 192.319 21.8307 193.466Z" fill="#292929" stroke="black"/>
<path d="M1.56971 191.478C1.81979 190.382 2.72611 189.482 4.10859 188.956C5.48708 188.432 7.28425 188.307 9.16522 188.736C11.0462 189.166 12.6111 190.058 13.6255 191.129C14.6428 192.202 15.0689 193.407 14.8188 194.502C14.5687 195.598 13.6626 196.497 12.2801 197.023C10.9016 197.547 9.1044 197.673 7.22327 197.244C5.34218 196.815 3.77757 195.921 2.76317 194.851C1.74597 193.777 1.31967 192.574 1.56971 191.478Z" fill="#D9D9D9" fill-opacity="0.57" stroke="black"/>
<path d="M16.2298 197.6C17.34 197.426 18.512 197.933 19.5134 199.022C20.5119 200.107 21.2947 201.73 21.5938 203.636C21.893 205.542 21.6448 207.326 21.027 208.666C20.4073 210.009 19.4471 210.851 18.3369 211.025C17.2267 211.199 16.0556 210.692 15.0542 209.603C14.0557 208.517 13.272 206.895 12.9728 204.989C12.6737 203.083 12.9227 201.299 13.5406 199.959C14.1604 198.616 15.1196 197.774 16.2298 197.6Z" fill="#D9D9D9" fill-opacity="0.57" stroke="black"/>
<defs>
<filter id="filter0_d_178_616" x="8" y="48.6252" width="253" height="231" filterUnits="userSpaceOnUse" color-interpolation-filters="sRGB">
<feFlood flood-opacity="0" result="BackgroundImageFix"/>
<feColorMatrix in="SourceAlpha" type="matrix" values="0 0 0 0 0 0 0 0 0 0 0 0 0 0 0 0 0 0 127 0" result="hardAlpha"/>
<feOffset dx="-3" dy="9"/>
<feGaussianBlur stdDeviation="7"/>
<feComposite in2="hardAlpha" operator="out"/>
<feColorMatrix type="matrix" values="0 0 0 0 0 0 0 0 0 0 0 0 0 0 0 0 0 0 0.25 0"/>
<feBlend mode="normal" in2="BackgroundImageFix" result="effect1_dropShadow_178_616"/>
<feBlend mode="normal" in="SourceGraphic" in2="effect1_dropShadow_178_616" result="shape"/>
</filter>
<filter id="filter1_d_178_616" x="89.9558" y="0" width="64.4819" height="93.6254" filterUnits="userSpaceOnUse" color-interpolation-filters="sRGB">
<feFlood flood-opacity="0" result="BackgroundImageFix"/>
<feColorMatrix in="SourceAlpha" type="matrix" values="0 0 0 0 0 0 0 0 0 0 0 0 0 0 0 0 0 0 127 0" result="hardAlpha"/>
<feOffset dx="-3" dy="9"/>
<feGaussianBlur stdDeviation="7"/>
<feComposite in2="hardAlpha" operator="out"/>
<feColorMatrix type="matrix" values="0 0 0 0 0 0 0 0 0 0 0 0 0 0 0 0 0 0 0.25 0"/>
<feBlend mode="normal" in2="BackgroundImageFix" result="effect1_dropShadow_178_616"/>
<feBlend mode="normal" in="SourceGraphic" in2="effect1_dropShadow_178_616" result="shape"/>
</filter>
<linearGradient id="paint0_linear_178_616" x1="197.5" y1="101.125" x2="65.2886" y2="257.293" gradientUnits="userSpaceOnUse">
<stop stop-color="#6A6262"/>
<stop offset="0.623901" stop-color="#393535"/>
<stop offset="1" stop-color="#0B0B0B"/>
</linearGradient>
</defs>
</svg>
