<svg width="53" height="55" viewBox="0 0 53 55" fill="none" xmlns="http://www.w3.org/2000/svg">
<rect width="53" height="54.9854" rx="6" fill="#F2D267"/>
<path d="M10.3932 30.4339C9.58627 26.4025 12.6696 22.6409 16.7809 22.6409H36.7198C40.7484 22.6409 43.8113 26.2608 43.1443 30.2338C42.6175 33.3715 39.9014 35.6697 36.7198 35.6697H16.7809C13.676 35.6697 11.0026 33.4784 10.3932 30.4339Z" fill="black"/>
<path d="M47.6018 22.1019C47.6018 23.2927 37.6634 23.7191 26.0092 23.7191C14.355 23.7191 4.90735 23.2927 4.90735 22.1019C4.90735 20.911 14.355 19.4065 26.0092 19.4065C37.6634 19.4065 47.6018 20.911 47.6018 22.1019Z" fill="#8C704E"/>
<path d="M44.1667 18.3284C44.1667 29.0464 36.4767 37.735 26.9907 37.735C17.5047 37.735 9.81482 29.0464 9.81482 18.3284C9.81482 7.61045 17.5047 9.16419 26.9907 9.16419C36.4767 9.16419 44.1667 7.61045 44.1667 18.3284Z" fill="#D8C59D"/>
<path d="M41.5482 10.5703C44.8584 18.1891 45.6858 25.7445 42.5361 27.3664C39.3865 28.9883 34.1497 24.1268 30.8396 16.508C27.5294 8.88911 27.69 12.1922 30.8396 10.5703C34.5494 8.65993 38.3437 2.01829 41.5482 10.5703Z" fill="black"/>
<path d="M21.1213 18.3223C18.7073 25.2811 14.1725 29.8623 10.9928 28.555C7.81297 27.2476 7.9359 21.3339 10.35 14.3752C12.764 7.41642 16.7542 6.91082 19.6296 9.16411C22.8094 10.4715 23.5353 11.3636 21.1213 18.3223Z" fill="black"/>
<path d="M47.6018 22.1019C47.6018 22.995 37.6634 22.6409 26.0092 22.6409C14.355 22.6409 4.90735 22.995 4.90735 22.1019C4.90735 21.2087 14.355 19.4065 26.0092 19.4065C37.6634 19.4065 47.6018 21.2087 47.6018 22.1019Z" fill="#5B4A36"/>
<path d="M12.2686 5.39087H40.8951L45.6389 21.024H8.34265L12.2686 5.39087Z" fill="#726058"/>
<ellipse cx="19.6297" cy="28.5708" rx="0.981481" ry="1.61722" fill="black"/>
<ellipse cx="19.6297" cy="28.5708" rx="0.981481" ry="1.61722" fill="black"/>
<ellipse cx="19.6297" cy="28.5708" rx="0.981481" ry="1.61722" fill="black"/>
<ellipse cx="33.3704" cy="28.5708" rx="0.981481" ry="1.61722" fill="black"/>
<ellipse cx="33.3704" cy="28.5708" rx="0.981481" ry="1.61722" fill="black"/>
<ellipse cx="33.3704" cy="28.5708" rx="0.981481" ry="1.61722" fill="black"/>
<rect x="23.5555" y="35.5789" width="5.88889" height="4.31258" fill="#D8C59D"/>
<path d="M20.3364 38.863H32.6636C34.0759 38.863 35.2898 39.8643 35.5591 41.2507L37.5347 51.4226C37.8883 53.2434 36.494 54.9352 34.6392 54.9353H18.3608C16.506 54.9353 15.1117 53.2435 15.4653 51.4226L17.4409 41.2507C17.7103 39.8643 18.9241 38.863 20.3364 38.863Z" fill="#60698E" stroke="black" stroke-width="0.1"/>
<rect x="20.6111" y="42.0476" width="1.96296" height="3.23444" fill="#726058"/>
<rect x="30.426" y="42.0476" width="1.96296" height="3.23444" fill="#726058"/>
<rect x="17.6667" y="45.2822" width="17.6667" height="9.70331" fill="#726058"/>
<path d="M22.4063 33.658C21.9053 33.184 24.3199 33.2297 26.7926 33.2406C29.2652 33.2515 30.9137 33.2324 31.2116 33.6404C31.5095 34.0483 29.2642 34.0182 26.7915 34.0073C24.3188 33.9964 22.6876 33.924 22.4063 33.658Z" fill="black"/>
</svg>
