<svg width="52" height="54" viewBox="0 0 52 54" fill="none" xmlns="http://www.w3.org/2000/svg">
<rect width="52" height="53.9479" rx="6" fill="#F3EFD4"/>
<rect x="8.35309" y="22.2751" width="35.1532" height="30.6285" rx="7" fill="#B1AE68"/>
<path d="M46.7037 21.6848C46.7037 22.8532 36.9529 23.2715 25.5185 23.2715C14.0842 23.2715 4.81482 22.8532 4.81482 21.6848C4.81482 20.5164 14.0842 19.0403 25.5185 19.0403C36.9529 19.0403 46.7037 20.5164 46.7037 21.6848Z" fill="#8C704E"/>
<path d="M43.3332 17.9826C43.3332 28.4984 35.7884 37.0231 26.4814 37.0231C17.1743 37.0231 9.62952 28.4984 9.62952 17.9826C9.62952 7.4669 17.1743 8.99132 26.4814 8.99132C35.7884 8.99132 43.3332 7.4669 43.3332 17.9826Z" fill="#D8C59D"/>
<path d="M40.7642 10.3707C44.0119 17.8458 44.8237 25.2587 41.7335 26.85C38.6433 28.4413 33.5053 23.6715 30.2576 16.1964C27.0099 8.72126 27.1674 11.962 30.2577 10.3707C33.8975 8.49641 37.6202 1.98008 40.7642 10.3707Z" fill="#B0AE68"/>
<path d="M20.7227 17.9767C18.3543 24.8041 13.9051 29.2989 10.7853 28.0162C7.66548 26.7335 7.78609 20.9314 10.1546 14.1039C12.5231 7.27651 16.438 6.78045 19.2592 8.99123C22.379 10.2739 23.0912 11.1492 20.7227 17.9767Z" fill="#B0AE68"/>
<path d="M46.7037 21.6848C46.7037 22.5611 36.9529 22.2137 25.5185 22.2137C14.0842 22.2137 4.81482 22.5611 4.81482 21.6848C4.81482 20.8085 14.0842 19.0403 25.5185 19.0403C36.9529 19.0403 46.7037 20.8085 46.7037 21.6848Z" fill="#5B4A36"/>
<path d="M12.037 5.28882H40.1234L44.7777 20.627H8.18512L12.037 5.28882Z" fill="#726058"/>
<ellipse cx="19.2592" cy="28.0318" rx="0.962963" ry="1.5867" fill="black"/>
<ellipse cx="19.2592" cy="28.0318" rx="0.962963" ry="1.5867" fill="black"/>
<ellipse cx="19.2592" cy="28.0318" rx="0.962963" ry="1.5867" fill="black"/>
<ellipse cx="32.7406" cy="28.0318" rx="0.962963" ry="1.5867" fill="black"/>
<ellipse cx="32.7406" cy="28.0318" rx="0.962963" ry="1.5867" fill="black"/>
<ellipse cx="32.7406" cy="28.0318" rx="0.962963" ry="1.5867" fill="black"/>
<path d="M28.8889 31.88C28.8889 32.3835 27.5955 32.7917 26 32.7917C24.4045 32.7917 23.1111 32.3835 23.1111 31.88C23.1111 31.3765 24.4045 32.3359 26 32.3359C27.5955 32.3359 28.8889 31.3765 28.8889 31.88Z" fill="black"/>
<path d="M28.8889 31.88C28.8889 32.3835 27.5955 32.7917 26 32.7917C24.4045 32.7917 23.1111 32.3835 23.1111 31.88C23.1111 31.3765 24.4045 32.3359 26 32.3359C27.5955 32.3359 28.8889 31.3765 28.8889 31.88Z" fill="black"/>
<path d="M28.8889 31.88C28.8889 32.3835 27.5955 32.7917 26 32.7917C24.4045 32.7917 23.1111 32.3835 23.1111 31.88C23.1111 31.3765 24.4045 32.3359 26 32.3359C27.5955 32.3359 28.8889 31.3765 28.8889 31.88Z" fill="black"/>
<rect x="23.1111" y="34.9075" width="5.77778" height="4.23121" fill="#D8C59D"/>
<path d="M19.9991 38.1306H32.001C33.4132 38.1308 34.6273 39.132 34.8965 40.5183L36.8126 50.3855C37.1662 52.2063 35.7718 53.8981 33.9171 53.8982H18.0831C16.2282 53.8982 14.8339 52.2064 15.1876 50.3855L17.1036 40.5183C17.3729 39.132 18.5868 38.1307 19.9991 38.1306Z" fill="#8CA179" stroke="black" stroke-width="0.1"/>
<rect x="20.2222" y="41.2542" width="1.92593" height="3.17341" fill="#726058"/>
<rect x="29.8517" y="41.2542" width="1.92593" height="3.17341" fill="#726058"/>
<rect x="17.3333" y="44.4275" width="17.3333" height="9.52022" fill="#726058"/>
</svg>
