<svg width="52" height="56" viewBox="0 0 52 56" fill="none" xmlns="http://www.w3.org/2000/svg">
<rect width="52" height="55.3957" rx="6" fill="#8C7751"/>
<rect x="8.66656" y="22.8101" width="34.6667" height="19.5514" rx="7" fill="black"/>
<path d="M46.7037 22.267C46.7037 23.4668 36.9529 23.8963 25.5185 23.8963C14.0842 23.8963 4.81482 23.4668 4.81482 22.267C4.81482 21.0672 14.0842 19.5515 25.5185 19.5515C36.9529 19.5515 46.7037 21.0672 46.7037 22.267Z" fill="#836F49"/>
<path d="M43.3333 18.4653C43.3333 29.2632 35.7885 38.0167 26.4815 38.0167C17.1745 38.0167 9.62964 29.2632 9.62964 18.4653C9.62964 7.66731 17.1745 9.23264 26.4815 9.23264C35.7885 9.23264 43.3333 7.66731 43.3333 18.4653Z" fill="#D8C59D"/>
<path d="M40.7643 10.6494C44.012 18.3251 44.8239 25.9369 41.7336 27.5709C38.6434 29.2049 33.5054 24.3071 30.2577 16.6314C27.01 8.95568 27.1676 12.2834 30.2578 10.6494C33.8976 8.7248 37.6203 2.03359 40.7643 10.6494Z" fill="black"/>
<path d="M20.7229 18.4593C18.3544 25.4699 13.9052 30.0854 10.7854 28.7683C7.6656 27.4511 7.78621 21.4933 10.1547 14.4827C12.5232 7.47199 16.4381 6.96262 19.2593 9.23272C22.3791 10.5499 23.0913 11.4486 20.7229 18.4593Z" fill="black"/>
<path d="M46.7037 22.267C46.7037 23.1668 36.9529 22.8101 25.5185 22.8101C14.0842 22.8101 4.81482 23.1668 4.81482 22.267C4.81482 21.3672 14.0842 19.5515 25.5185 19.5515C36.9529 19.5515 46.7037 21.3672 46.7037 22.267Z" fill="#5B4A36"/>
<path d="M12.037 5.43091H40.1234L44.7778 21.1807H8.18518L12.037 5.43091Z" fill="#726058"/>
<ellipse cx="19.2592" cy="28.7841" rx="0.962963" ry="1.62929" fill="black"/>
<ellipse cx="19.2592" cy="28.7841" rx="0.962963" ry="1.62929" fill="black"/>
<ellipse cx="19.2592" cy="28.7841" rx="0.962963" ry="1.62929" fill="black"/>
<ellipse cx="32.7406" cy="28.7841" rx="0.962963" ry="1.62929" fill="black"/>
<ellipse cx="32.7406" cy="28.7841" rx="0.962963" ry="1.62929" fill="black"/>
<ellipse cx="32.7406" cy="28.7841" rx="0.962963" ry="1.62929" fill="black"/>
<path d="M23.1083 33.4999C23.1121 32.9829 24.4085 32.5736 26.0039 32.5857C27.5994 32.5979 28.8897 33.0268 28.886 33.5438C28.8822 34.0608 27.596 33.0659 26.0005 33.0538C24.4051 33.0417 23.1046 34.0169 23.1083 33.4999Z" fill="black"/>
<path d="M23.1083 33.4999C23.1121 32.9829 24.4085 32.5736 26.0039 32.5857C27.5994 32.5979 28.8897 33.0268 28.886 33.5438C28.8822 34.0608 27.596 33.0659 26.0005 33.0538C24.4051 33.0417 23.1046 34.0169 23.1083 33.4999Z" fill="black"/>
<path d="M23.1083 33.4999C23.1121 32.9829 24.4085 32.5736 26.0039 32.5857C27.5994 32.5979 28.8897 33.0268 28.886 33.5438C28.8822 34.0608 27.596 33.0659 26.0005 33.0538C24.4051 33.0417 23.1046 34.0169 23.1083 33.4999Z" fill="black"/>
<rect x="23.1111" y="35.8445" width="5.77778" height="4.34476" fill="#D8C59D"/>
<path d="M20.0118 39.1526H31.9883C33.4061 39.1526 34.6233 40.1618 34.8868 41.5549L36.8331 51.8479C37.1764 53.6645 35.7835 55.3459 33.9346 55.3459H18.0645C16.2159 55.3457 14.8229 53.6643 15.1661 51.8479L17.1133 41.5549C17.3768 40.1618 18.5939 39.1526 20.0118 39.1526Z" fill="#6D1919" stroke="black" stroke-width="0.1"/>
<rect x="20.2221" y="42.3616" width="1.92593" height="3.25857" fill="#726058"/>
<rect x="29.8519" y="42.3616" width="1.92593" height="3.25857" fill="#726058"/>
<rect x="17.3334" y="45.6199" width="17.3333" height="9.77571" fill="#726058"/>
</svg>
