<svg width="393" height="852" viewBox="0 0 393 852" fill="none" xmlns="http://www.w3.org/2000/svg">
<rect width="393" height="852" fill="#B3BA5D"/>
<g filter="url(#filter0_d_190_753)">
<rect x="39" y="168" width="315" height="549" fill="#F3EFD4"/>
<rect x="39.5" y="168.5" width="314" height="548" stroke="#CAC6AF"/>
</g>
<g filter="url(#filter1_d_190_753)">
<path d="M102.38 209.895C102.38 222.316 96.2971 234 81.1901 234C66.0832 234 60 222.315 60 209.895C60 192.558 69.4871 196.319 81.1901 196.319C92.8931 196.319 102.38 190.723 102.38 209.895Z" fill="url(#paint0_linear_190_753)"/>
<path d="M75.303 220.028C75.0179 218.982 77.3468 222.854 82.0712 222.875C86.7957 222.896 89.3703 219.329 89.3703 220.028C89.3703 220.726 86.7911 223.941 82.0666 223.921C77.3422 223.9 75.472 220.647 75.303 220.028Z" fill="black"/>
<path d="M89.097 198.546C89.097 199.176 85.65 199.687 81.398 199.687C77.1459 199.687 73.699 199.176 73.699 198.546C73.699 197.917 77.2528 198.451 81.5049 198.451C85.7569 198.451 89.097 197.917 89.097 198.546Z" fill="#272525"/>
<path d="M75.3894 186.955L77.122 186.261L79.2357 190.541L81.5636 195.582L81.9588 198.348L82.3246 198.547L80.8108 198.737L81.1261 197.964L80.8108 195.426L79.0424 191.502L77.7713 189.581L76.8326 187.909L75.3894 186.955Z" fill="#272525"/>
<ellipse cx="71.7862" cy="214.61" rx="0.950494" ry="3.32673" fill="black"/>
<ellipse cx="91.5564" cy="214.61" rx="0.950494" ry="3.32673" fill="black"/>
<path d="M95.9933 200.601C96.8204 202.09 96.9558 203.595 96.2958 203.961C95.6358 204.328 96.283 202.195 95.4559 200.705C94.6288 199.216 92.6406 198.934 93.3006 198.567C93.9607 198.201 95.1662 199.111 95.9933 200.601Z" fill="#D9D9D9"/>
</g>
<path d="M124.611 203H132.471V205.24H127.051V208.54H131.231V210.78H127.051V214.76H132.651V217H124.611V203ZM138.774 206.84C139.774 206.84 140.534 207.173 141.054 207.84C141.588 208.493 141.854 209.38 141.854 210.5V217H139.454V210.82C139.454 209.473 139.001 208.8 138.094 208.8C137.468 208.8 136.954 209.087 136.554 209.66V217H134.154V207H136.234L136.334 207.78C136.988 207.153 137.801 206.84 138.774 206.84ZM146.486 217.2C145.726 217.2 145.139 216.98 144.726 216.54C144.326 216.1 144.126 215.447 144.126 214.58V209.04H143.006L143.226 207H144.126V204.8L146.526 204.54V207H148.266V209.04H146.526V213.96C146.526 214.373 146.606 214.68 146.766 214.88C146.939 215.067 147.206 215.16 147.566 215.16H148.286L148.066 217.2H146.486ZM153.802 217.2C152.789 217.2 151.929 216.967 151.222 216.5C150.515 216.033 149.982 215.407 149.622 214.62C149.275 213.833 149.102 212.96 149.102 212C149.102 211.013 149.269 210.133 149.602 209.36C149.935 208.573 150.429 207.96 151.082 207.52C151.735 207.067 152.515 206.84 153.422 206.84C154.555 206.84 155.449 207.24 156.102 208.04C156.755 208.84 157.082 209.913 157.082 211.26C157.082 211.647 157.042 212.073 156.962 212.54H151.582C151.662 213.447 151.929 214.127 152.382 214.58C152.835 215.02 153.395 215.24 154.062 215.24C154.969 215.24 155.829 214.973 156.642 214.44L156.702 216.54C155.889 216.98 154.922 217.2 153.802 217.2ZM154.662 210.86C154.662 209.487 154.195 208.8 153.262 208.8C152.342 208.8 151.789 209.487 151.602 210.86H154.662ZM158.488 207H160.588L160.748 208.06C161.121 207.647 161.468 207.34 161.788 207.14C162.121 206.94 162.508 206.84 162.948 206.84C163.135 206.84 163.308 206.86 163.468 206.9L163.288 209.32C163.088 209.253 162.875 209.22 162.648 209.22C162.328 209.22 162.041 209.293 161.788 209.44C161.535 209.587 161.235 209.833 160.888 210.18V217H158.488V207ZM170.997 217.2C170.237 217.2 169.651 216.98 169.237 216.54C168.837 216.1 168.637 215.447 168.637 214.58V209.04H167.517L167.737 207H168.637V204.8L171.037 204.54V207H172.777V209.04H171.037V213.96C171.037 214.373 171.117 214.68 171.277 214.88C171.451 215.067 171.717 215.16 172.077 215.16H172.797L172.577 217.2H170.997ZM174.054 203H176.454V205.48H174.054V203ZM174.054 207H176.454V217H174.054V207ZM181.134 217.2C180.374 217.2 179.787 216.98 179.374 216.54C178.974 216.1 178.774 215.447 178.774 214.58V209.04H177.654L177.874 207H178.774V204.8L181.174 204.54V207H182.914V209.04H181.174V213.96C181.174 214.373 181.254 214.68 181.414 214.88C181.587 215.067 181.854 215.16 182.214 215.16H182.934L182.714 217.2H181.134ZM186.431 217.2C185.697 217.2 185.144 216.967 184.771 216.5C184.411 216.033 184.231 215.393 184.231 214.58V202H186.631V213.76C186.631 214.32 186.684 214.693 186.791 214.88C186.911 215.067 187.157 215.16 187.531 215.16L187.331 217.2H186.431ZM192.923 217.2C191.91 217.2 191.05 216.967 190.343 216.5C189.637 216.033 189.103 215.407 188.743 214.62C188.397 213.833 188.223 212.96 188.223 212C188.223 211.013 188.39 210.133 188.723 209.36C189.057 208.573 189.55 207.96 190.203 207.52C190.857 207.067 191.637 206.84 192.543 206.84C193.677 206.84 194.57 207.24 195.223 208.04C195.877 208.84 196.203 209.913 196.203 211.26C196.203 211.647 196.163 212.073 196.083 212.54H190.703C190.783 213.447 191.05 214.127 191.503 214.58C191.957 215.02 192.517 215.24 193.183 215.24C194.09 215.24 194.95 214.973 195.763 214.44L195.823 216.54C195.01 216.98 194.043 217.2 192.923 217.2ZM193.783 210.86C193.783 209.487 193.317 208.8 192.383 208.8C191.463 208.8 190.91 209.487 190.723 210.86H193.783Z" fill="#AEAA89"/>
<path d="M127.999 227.664H126.407L126.023 229H125.046L126.751 223.4H127.647L129.359 229H128.383L127.999 227.664ZM127.743 226.768L127.199 224.872L126.663 226.768H127.743ZM131.584 224.936C131.909 224.936 132.186 225.029 132.416 225.216C132.65 225.403 132.826 225.653 132.944 225.968C133.066 226.283 133.128 226.629 133.128 227.008C133.128 227.387 133.066 227.733 132.944 228.048C132.826 228.363 132.65 228.613 132.416 228.8C132.186 228.987 131.909 229.08 131.584 229.08C131.381 229.08 131.208 229.056 131.064 229.008C130.925 228.965 130.792 228.893 130.664 228.792V230.936H129.704V225H130.472L130.576 225.368C130.72 225.229 130.872 225.123 131.032 225.048C131.192 224.973 131.376 224.936 131.584 224.936ZM131.4 228.296C131.634 228.296 131.818 228.179 131.952 227.944C132.085 227.704 132.152 227.392 132.152 227.008C132.152 226.624 132.085 226.315 131.952 226.08C131.818 225.84 131.634 225.72 131.4 225.72C131.138 225.72 130.941 225.837 130.808 226.072C130.68 226.301 130.616 226.613 130.616 227.008C130.616 227.403 130.68 227.717 130.808 227.952C130.941 228.181 131.138 228.296 131.4 228.296ZM133.649 225H134.489L134.553 225.424C134.702 225.259 134.841 225.136 134.969 225.056C135.102 224.976 135.257 224.936 135.433 224.936C135.508 224.936 135.577 224.944 135.641 224.96L135.569 225.928C135.489 225.901 135.404 225.888 135.313 225.888C135.185 225.888 135.07 225.917 134.969 225.976C134.868 226.035 134.748 226.133 134.609 226.272V229H133.649V225ZM135.938 223.4H136.898V224.392H135.938V223.4ZM135.938 225H136.898V229H135.938V225ZM138.498 229.08C138.205 229.08 137.983 228.987 137.834 228.8C137.69 228.613 137.618 228.357 137.618 228.032V223H138.578V227.704C138.578 227.928 138.599 228.077 138.642 228.152C138.69 228.227 138.789 228.264 138.938 228.264L138.858 229.08H138.498ZM142.081 226.904C142.348 226.397 142.529 226.011 142.625 225.744C142.721 225.472 142.769 225.213 142.769 224.968C142.769 224.744 142.711 224.573 142.593 224.456C142.476 224.333 142.311 224.272 142.097 224.272C141.809 224.272 141.505 224.4 141.185 224.656L141.073 223.696C141.484 223.424 141.937 223.288 142.433 223.288C142.871 223.288 143.207 223.432 143.441 223.72C143.676 224.008 143.793 224.368 143.793 224.8C143.793 225.136 143.735 225.472 143.617 225.808C143.505 226.139 143.289 226.605 142.969 227.208L142.521 228.056H143.897V229H140.985L142.081 226.904ZM146.299 225.632C146.56 225.632 146.797 225.704 147.011 225.848C147.224 225.992 147.389 226.195 147.507 226.456C147.629 226.717 147.691 227.011 147.691 227.336C147.691 227.885 147.552 228.32 147.275 228.64C147.003 228.955 146.621 229.112 146.131 229.112C145.635 229.112 145.245 228.931 144.963 228.568C144.68 228.2 144.539 227.712 144.539 227.104C144.539 226.544 144.64 226.011 144.843 225.504C145.045 224.992 145.301 224.547 145.611 224.168C145.92 223.789 146.235 223.493 146.555 223.28L147.251 223.864C146.888 224.12 146.568 224.4 146.291 224.704C146.013 225.008 145.805 225.36 145.667 225.76C145.853 225.675 146.064 225.632 146.299 225.632ZM146.147 228.248C146.339 228.248 146.488 228.168 146.595 228.008C146.707 227.843 146.763 227.627 146.763 227.36C146.763 227.099 146.707 226.891 146.595 226.736C146.488 226.576 146.339 226.496 146.147 226.496C145.949 226.496 145.797 226.573 145.691 226.728C145.584 226.883 145.531 227.093 145.531 227.36C145.531 227.627 145.584 227.843 145.691 228.008C145.797 228.168 145.949 228.248 146.147 228.248ZM148.377 229.96L148.721 229H148.313V227.912H149.289V228.904L148.777 229.96H148.377ZM152.605 226.904C152.871 226.397 153.053 226.011 153.149 225.744C153.245 225.472 153.293 225.213 153.293 224.968C153.293 224.744 153.234 224.573 153.117 224.456C152.999 224.333 152.834 224.272 152.621 224.272C152.333 224.272 152.029 224.4 151.709 224.656L151.597 223.696C152.007 223.424 152.461 223.288 152.957 223.288C153.394 223.288 153.73 223.432 153.965 223.72C154.199 224.008 154.317 224.368 154.317 224.8C154.317 225.136 154.258 225.472 154.141 225.808C154.029 226.139 153.813 226.605 153.493 227.208L153.045 228.056H154.421V229H151.509L152.605 226.904ZM157.166 229.112C156.766 229.112 156.412 228.989 156.102 228.744C155.798 228.499 155.561 228.152 155.39 227.704C155.225 227.256 155.142 226.739 155.142 226.152C155.142 225.592 155.225 225.096 155.39 224.664C155.561 224.227 155.798 223.888 156.102 223.648C156.412 223.408 156.766 223.288 157.166 223.288C157.566 223.288 157.918 223.411 158.222 223.656C158.532 223.896 158.769 224.232 158.934 224.664C159.105 225.096 159.19 225.592 159.19 226.152C159.19 226.739 159.105 227.256 158.934 227.704C158.769 228.152 158.534 228.499 158.23 228.744C157.926 228.989 157.572 229.112 157.166 229.112ZM157.166 228.128C157.47 228.128 157.713 227.965 157.894 227.64C158.076 227.315 158.166 226.819 158.166 226.152C158.166 225.539 158.073 225.072 157.886 224.752C157.705 224.432 157.465 224.272 157.166 224.272C156.868 224.272 156.625 224.432 156.438 224.752C156.257 225.072 156.166 225.539 156.166 226.152C156.166 226.813 156.257 227.309 156.438 227.64C156.625 227.965 156.868 228.128 157.166 228.128ZM161.058 226.904C161.324 226.397 161.506 226.011 161.602 225.744C161.698 225.472 161.746 225.213 161.746 224.968C161.746 224.744 161.687 224.573 161.57 224.456C161.452 224.333 161.287 224.272 161.074 224.272C160.786 224.272 160.482 224.4 160.162 224.656L160.05 223.696C160.46 223.424 160.914 223.288 161.41 223.288C161.847 223.288 162.183 223.432 162.418 223.72C162.652 224.008 162.77 224.368 162.77 224.8C162.77 225.136 162.711 225.472 162.594 225.808C162.482 226.139 162.266 226.605 161.946 227.208L161.498 228.056H162.874V229H159.962L161.058 226.904ZM165.275 225.632C165.537 225.632 165.774 225.704 165.987 225.848C166.201 225.992 166.366 226.195 166.483 226.456C166.606 226.717 166.667 227.011 166.667 227.336C166.667 227.885 166.529 228.32 166.251 228.64C165.979 228.955 165.598 229.112 165.107 229.112C164.611 229.112 164.222 228.931 163.939 228.568C163.657 228.2 163.515 227.712 163.515 227.104C163.515 226.544 163.617 226.011 163.819 225.504C164.022 224.992 164.278 224.547 164.587 224.168C164.897 223.789 165.211 223.493 165.531 223.28L166.227 223.864C165.865 224.12 165.545 224.4 165.267 224.704C164.99 225.008 164.782 225.36 164.643 225.76C164.83 225.675 165.041 225.632 165.275 225.632ZM165.123 228.248C165.315 228.248 165.465 228.168 165.571 228.008C165.683 227.843 165.739 227.627 165.739 227.36C165.739 227.099 165.683 226.891 165.571 226.736C165.465 226.576 165.315 226.496 165.123 226.496C164.926 226.496 164.774 226.573 164.667 226.728C164.561 226.883 164.507 227.093 164.507 227.36C164.507 227.627 164.561 227.843 164.667 228.008C164.774 228.168 164.926 228.248 165.123 228.248Z" fill="#394648" fill-opacity="0.7"/>
<path d="M61.1534 265.9H62.7394V269.501H66.1194V265.9H67.7054V275H66.1194V271.061H62.7394V275H61.1534V265.9ZM71.6054 275.13C71.0161 275.13 70.5047 274.978 70.0714 274.675C69.6381 274.372 69.3044 273.964 69.0704 273.453C68.8451 272.942 68.7324 272.378 68.7324 271.763C68.7324 271.148 68.8451 270.584 69.0704 270.073C69.3044 269.562 69.6381 269.154 70.0714 268.851C70.5047 268.548 71.0161 268.396 71.6054 268.396C72.1947 268.396 72.7061 268.548 73.1394 268.851C73.5814 269.154 73.9151 269.562 74.1404 270.073C74.3744 270.584 74.4914 271.148 74.4914 271.763C74.4914 272.378 74.3744 272.942 74.1404 273.453C73.9151 273.964 73.5814 274.372 73.1394 274.675C72.7061 274.978 72.1947 275.13 71.6054 275.13ZM71.6054 273.856C72.0127 273.856 72.3291 273.665 72.5544 273.284C72.7884 272.903 72.9054 272.396 72.9054 271.763C72.9054 271.13 72.7884 270.623 72.5544 270.242C72.3291 269.861 72.0127 269.67 71.6054 269.67C71.2067 269.67 70.8904 269.865 70.6564 270.255C70.4311 270.636 70.3184 271.139 70.3184 271.763C70.3184 272.387 70.4311 272.894 70.6564 273.284C70.8904 273.665 71.2067 273.856 71.6054 273.856ZM74.7687 268.5H76.3417L77.2907 272.92L78.1877 268.63H79.4877L80.4237 272.92L81.3207 268.5H82.8937L81.0867 275H79.7477L78.8377 270.814L77.9277 275H76.5887L74.7687 268.5ZM85.4581 268.5H87.0311L87.9801 272.92L88.8771 268.63H90.1771L91.1131 272.92L92.0101 268.5H93.5831L91.7761 275H90.4371L89.5271 270.814L88.6171 275H87.2781L85.4581 268.5ZM95.4929 275.13C95.0076 275.13 94.5959 274.974 94.2579 274.662C93.9286 274.341 93.7639 273.895 93.7639 273.323C93.7639 272.725 93.9416 272.248 94.2969 271.893C94.6609 271.529 95.0769 271.269 95.5449 271.113C96.0216 270.957 96.4549 270.87 96.8449 270.853C96.8449 270.472 96.7756 270.199 96.6369 270.034C96.4982 269.869 96.2599 269.787 95.9219 269.787C95.6619 269.787 95.4106 269.83 95.1679 269.917C94.9252 269.995 94.6522 270.116 94.3489 270.281L94.2449 268.968C94.9382 268.587 95.6359 268.396 96.3379 268.396C96.9879 268.396 97.4949 268.591 97.8589 268.981C98.2316 269.362 98.4179 269.969 98.4179 270.801V272.764C98.4179 273.085 98.4309 273.319 98.4569 273.466C98.4829 273.613 98.5219 273.709 98.5739 273.752C98.6346 273.787 98.7256 273.804 98.8469 273.804H99.0549L98.9509 275.13H98.2619C98.0192 275.13 97.7852 275.061 97.5599 274.922C97.3432 274.783 97.1829 274.601 97.0789 274.376C96.8449 274.627 96.6066 274.818 96.3639 274.948C96.1212 275.069 95.8309 275.13 95.4929 275.13ZM96.0259 273.895C96.3206 273.895 96.5979 273.739 96.8579 273.427V271.945C96.4419 271.997 96.0952 272.123 95.8179 272.322C95.5406 272.513 95.4019 272.794 95.4019 273.167C95.4019 273.418 95.4582 273.605 95.5709 273.726C95.6836 273.839 95.8352 273.895 96.0259 273.895ZM101.341 275.13C100.986 275.13 100.661 275.091 100.366 275.013C100.08 274.944 99.7853 274.831 99.482 274.675L99.625 273.297C100.232 273.713 100.765 273.921 101.224 273.921C101.519 273.921 101.744 273.865 101.9 273.752C102.056 273.639 102.134 273.483 102.134 273.284C102.134 273.076 102.06 272.907 101.913 272.777C101.774 272.638 101.497 272.469 101.081 272.27C100.526 272.001 100.123 271.728 99.872 271.451C99.6293 271.165 99.508 270.775 99.508 270.281C99.508 269.718 99.7073 269.263 100.106 268.916C100.505 268.569 101.042 268.396 101.718 268.396C102.325 268.396 102.892 268.556 103.421 268.877L103.278 270.216C103.027 269.999 102.784 269.835 102.55 269.722C102.325 269.609 102.082 269.553 101.822 269.553C101.571 269.553 101.367 269.609 101.211 269.722C101.064 269.826 100.99 269.978 100.99 270.177C100.99 270.376 101.068 270.541 101.224 270.671C101.389 270.792 101.714 270.979 102.199 271.23C102.684 271.481 103.04 271.759 103.265 272.062C103.499 272.357 103.616 272.742 103.616 273.219C103.616 273.808 103.408 274.276 102.992 274.623C102.585 274.961 102.034 275.13 101.341 275.13ZM108.887 275.13C108.393 275.13 108.012 274.987 107.743 274.701C107.483 274.415 107.353 273.99 107.353 273.427V269.826H106.625L106.768 268.5H107.353V267.07L108.913 266.901V268.5H110.044V269.826H108.913V273.024C108.913 273.293 108.965 273.492 109.069 273.622C109.182 273.743 109.355 273.804 109.589 273.804H110.057L109.914 275.13H108.887ZM113.487 275.13C112.898 275.13 112.387 274.978 111.953 274.675C111.52 274.372 111.186 273.964 110.952 273.453C110.727 272.942 110.614 272.378 110.614 271.763C110.614 271.148 110.727 270.584 110.952 270.073C111.186 269.562 111.52 269.154 111.953 268.851C112.387 268.548 112.898 268.396 113.487 268.396C114.077 268.396 114.588 268.548 115.021 268.851C115.463 269.154 115.797 269.562 116.022 270.073C116.256 270.584 116.373 271.148 116.373 271.763C116.373 272.378 116.256 272.942 116.022 273.453C115.797 273.964 115.463 274.372 115.021 274.675C114.588 274.978 114.077 275.13 113.487 275.13ZM113.487 273.856C113.895 273.856 114.211 273.665 114.436 273.284C114.67 272.903 114.787 272.396 114.787 271.763C114.787 271.13 114.67 270.623 114.436 270.242C114.211 269.861 113.895 269.67 113.487 269.67C113.089 269.67 112.772 269.865 112.538 270.255C112.313 270.636 112.2 271.139 112.2 271.763C112.2 272.387 112.313 272.894 112.538 273.284C112.772 273.665 113.089 273.856 113.487 273.856ZM122.447 265.25V275H120.978L120.952 274.584C120.744 274.766 120.519 274.905 120.276 275C120.042 275.087 119.769 275.13 119.457 275.13C118.92 275.13 118.456 274.978 118.066 274.675C117.676 274.372 117.381 273.964 117.182 273.453C116.983 272.942 116.883 272.378 116.883 271.763C116.883 271.148 116.983 270.584 117.182 270.073C117.381 269.562 117.676 269.154 118.066 268.851C118.456 268.548 118.92 268.396 119.457 268.396C120.02 268.396 120.497 268.565 120.887 268.903V265.25H122.447ZM119.691 273.856C120.116 273.856 120.432 273.67 120.64 273.297C120.857 272.916 120.965 272.404 120.965 271.763C120.965 271.122 120.857 270.615 120.64 270.242C120.432 269.861 120.116 269.67 119.691 269.67C119.31 269.67 119.011 269.861 118.794 270.242C118.577 270.623 118.469 271.13 118.469 271.763C118.469 272.396 118.577 272.903 118.794 273.284C119.011 273.665 119.31 273.856 119.691 273.856ZM124.984 275.13C124.499 275.13 124.087 274.974 123.749 274.662C123.42 274.341 123.255 273.895 123.255 273.323C123.255 272.725 123.433 272.248 123.788 271.893C124.152 271.529 124.568 271.269 125.036 271.113C125.513 270.957 125.946 270.87 126.336 270.853C126.336 270.472 126.267 270.199 126.128 270.034C125.989 269.869 125.751 269.787 125.413 269.787C125.153 269.787 124.902 269.83 124.659 269.917C124.416 269.995 124.143 270.116 123.84 270.281L123.736 268.968C124.429 268.587 125.127 268.396 125.829 268.396C126.479 268.396 126.986 268.591 127.35 268.981C127.723 269.362 127.909 269.969 127.909 270.801V272.764C127.909 273.085 127.922 273.319 127.948 273.466C127.974 273.613 128.013 273.709 128.065 273.752C128.126 273.787 128.217 273.804 128.338 273.804H128.546L128.442 275.13H127.753C127.51 275.13 127.276 275.061 127.051 274.922C126.834 274.783 126.674 274.601 126.57 274.376C126.336 274.627 126.098 274.818 125.855 274.948C125.612 275.069 125.322 275.13 124.984 275.13ZM125.517 273.895C125.812 273.895 126.089 273.739 126.349 273.427V271.945C125.933 271.997 125.586 272.123 125.309 272.322C125.032 272.513 124.893 272.794 124.893 273.167C124.893 273.418 124.949 273.605 125.062 273.726C125.175 273.839 125.326 273.895 125.517 273.895ZM130.72 274.701L128.497 268.5H130.122L131.5 272.92L132.878 268.5H134.503L130.954 278.146H129.368L130.72 274.701ZM135.497 272.179C135.497 271.746 135.575 271.386 135.731 271.1C135.887 270.814 136.147 270.454 136.511 270.021C136.849 269.622 137.088 269.31 137.226 269.085C137.374 268.851 137.447 268.591 137.447 268.305C137.447 267.976 137.335 267.72 137.109 267.538C136.884 267.356 136.581 267.265 136.199 267.265C135.749 267.265 135.255 267.369 134.717 267.577L134.535 266.095C134.873 265.965 135.203 265.87 135.523 265.809C135.844 265.748 136.221 265.718 136.654 265.718C137.174 265.718 137.625 265.818 138.006 266.017C138.396 266.216 138.695 266.489 138.903 266.836C139.111 267.183 139.215 267.577 139.215 268.019C139.215 268.305 139.168 268.569 139.072 268.812C138.977 269.046 138.851 269.267 138.695 269.475C138.548 269.683 138.327 269.96 138.032 270.307C137.668 270.732 137.417 271.061 137.278 271.295C137.148 271.52 137.083 271.789 137.083 272.101V272.309H135.497V272.179ZM135.497 273.232H137.083V275H135.497V273.232Z" fill="#AEAA89"/>
<rect x="214" y="737" width="68" height="22" rx="3" fill="#EBEBEA"/>
<path d="M239.447 753.182C238.979 753.182 238.511 753.13 238.043 753.026C237.584 752.931 237.181 752.796 236.834 752.623L237.029 750.855C237.913 751.34 238.754 751.583 239.551 751.583C239.967 751.583 240.292 751.501 240.526 751.336C240.76 751.163 240.877 750.92 240.877 750.608C240.877 750.374 240.817 750.175 240.695 750.01C240.583 749.837 240.396 749.672 240.136 749.516C239.885 749.351 239.521 749.161 239.044 748.944C238.273 748.597 237.71 748.229 237.354 747.839C237.008 747.449 236.834 746.938 236.834 746.305C236.834 745.802 236.956 745.356 237.198 744.966C237.441 744.576 237.792 744.273 238.251 744.056C238.711 743.831 239.257 743.718 239.889 743.718C240.678 743.718 241.467 743.896 242.255 744.251L242.086 745.967C241.644 745.75 241.237 745.59 240.864 745.486C240.5 745.373 240.132 745.317 239.759 745.317C239.361 745.317 239.053 745.395 238.836 745.551C238.628 745.707 238.524 745.937 238.524 746.24C238.524 746.474 238.594 746.673 238.732 746.838C238.871 746.994 239.04 747.133 239.239 747.254C239.447 747.367 239.82 747.549 240.357 747.8C241.129 748.173 241.688 748.563 242.034 748.97C242.39 749.377 242.567 749.902 242.567 750.543C242.567 751.349 242.29 751.99 241.735 752.467C241.181 752.944 240.418 753.182 239.447 753.182ZM244.775 753.13C244.29 753.13 243.878 752.974 243.54 752.662C243.211 752.341 243.046 751.895 243.046 751.323C243.046 750.725 243.224 750.248 243.579 749.893C243.943 749.529 244.359 749.269 244.827 749.113C245.304 748.957 245.737 748.87 246.127 748.853C246.127 748.472 246.058 748.199 245.919 748.034C245.78 747.869 245.542 747.787 245.204 747.787C244.944 747.787 244.693 747.83 244.45 747.917C244.207 747.995 243.934 748.116 243.631 748.281L243.527 746.968C244.22 746.587 244.918 746.396 245.62 746.396C246.27 746.396 246.777 746.591 247.141 746.981C247.514 747.362 247.7 747.969 247.7 748.801V750.764C247.7 751.085 247.713 751.319 247.739 751.466C247.765 751.613 247.804 751.709 247.856 751.752C247.917 751.787 248.008 751.804 248.129 751.804H248.337L248.233 753.13H247.544C247.301 753.13 247.067 753.061 246.842 752.922C246.625 752.783 246.465 752.601 246.361 752.376C246.127 752.627 245.889 752.818 245.646 752.948C245.403 753.069 245.113 753.13 244.775 753.13ZM245.308 751.895C245.603 751.895 245.88 751.739 246.14 751.427V749.945C245.724 749.997 245.377 750.123 245.1 750.322C244.823 750.513 244.684 750.794 244.684 751.167C244.684 751.418 244.74 751.605 244.853 751.726C244.966 751.839 245.117 751.895 245.308 751.895ZM248.223 746.5H249.848L251.096 750.92L252.344 746.5H253.969L251.772 753H250.42L248.223 746.5ZM257.238 753.13C256.579 753.13 256.02 752.978 255.561 752.675C255.102 752.372 254.755 751.964 254.521 751.453C254.296 750.942 254.183 750.374 254.183 749.75C254.183 749.109 254.291 748.537 254.508 748.034C254.725 747.523 255.045 747.124 255.47 746.838C255.895 746.543 256.402 746.396 256.991 746.396C257.728 746.396 258.308 746.656 258.733 747.176C259.158 747.696 259.37 748.394 259.37 749.269C259.37 749.52 259.344 749.798 259.292 750.101H255.795C255.847 750.69 256.02 751.132 256.315 751.427C256.61 751.713 256.974 751.856 257.407 751.856C257.996 751.856 258.555 751.683 259.084 751.336L259.123 752.701C258.594 752.987 257.966 753.13 257.238 753.13ZM257.797 749.009C257.797 748.116 257.494 747.67 256.887 747.67C256.289 747.67 255.929 748.116 255.808 749.009H257.797Z" fill="#394648"/>
<rect x="107" y="737" width="67" height="22" rx="3" fill="#EBEBEA"/>
<path d="M129.784 753.182C129.021 753.182 128.337 752.991 127.73 752.61C127.123 752.22 126.642 751.67 126.287 750.959C125.94 750.24 125.767 749.403 125.767 748.45C125.767 747.497 125.94 746.665 126.287 745.954C126.634 745.235 127.115 744.684 127.73 744.303C128.345 743.913 129.039 743.718 129.81 743.718C130.555 743.718 131.236 743.861 131.851 744.147L131.669 745.733C131.348 745.594 131.067 745.49 130.824 745.421C130.581 745.352 130.313 745.317 130.018 745.317C129.229 745.317 128.614 745.594 128.172 746.149C127.73 746.704 127.509 747.471 127.509 748.45C127.509 749.429 127.73 750.196 128.172 750.751C128.614 751.306 129.225 751.583 130.005 751.583C130.308 751.583 130.581 751.548 130.824 751.479C131.067 751.41 131.348 751.306 131.669 751.167L131.851 752.753C131.279 753.039 130.59 753.182 129.784 753.182ZM134.079 753.13C133.594 753.13 133.182 752.974 132.844 752.662C132.515 752.341 132.35 751.895 132.35 751.323C132.35 750.725 132.528 750.248 132.883 749.893C133.247 749.529 133.663 749.269 134.131 749.113C134.608 748.957 135.041 748.87 135.431 748.853C135.431 748.472 135.362 748.199 135.223 748.034C135.085 747.869 134.846 747.787 134.508 747.787C134.248 747.787 133.997 747.83 133.754 747.917C133.512 747.995 133.239 748.116 132.935 748.281L132.831 746.968C133.525 746.587 134.222 746.396 134.924 746.396C135.574 746.396 136.081 746.591 136.445 746.981C136.818 747.362 137.004 747.969 137.004 748.801V750.764C137.004 751.085 137.017 751.319 137.043 751.466C137.069 751.613 137.108 751.709 137.16 751.752C137.221 751.787 137.312 751.804 137.433 751.804H137.641L137.537 753.13H136.848C136.606 753.13 136.372 753.061 136.146 752.922C135.93 752.783 135.769 752.601 135.665 752.376C135.431 752.627 135.193 752.818 134.95 752.948C134.708 753.069 134.417 753.13 134.079 753.13ZM134.612 751.895C134.907 751.895 135.184 751.739 135.444 751.427V749.945C135.028 749.997 134.682 750.123 134.404 750.322C134.127 750.513 133.988 750.794 133.988 751.167C133.988 751.418 134.045 751.605 134.157 751.726C134.27 751.839 134.422 751.895 134.612 751.895ZM141.344 746.396C141.994 746.396 142.488 746.613 142.826 747.046C143.173 747.471 143.346 748.047 143.346 748.775V753H141.786V748.983C141.786 748.108 141.492 747.67 140.902 747.67C140.495 747.67 140.161 747.856 139.901 748.229V753H138.341V746.5H139.693L139.758 747.007C140.183 746.6 140.712 746.396 141.344 746.396ZM147.33 753.13C146.68 753.13 146.121 752.983 145.653 752.688C145.194 752.385 144.847 751.977 144.613 751.466C144.379 750.955 144.262 750.387 144.262 749.763C144.262 749.13 144.379 748.563 144.613 748.06C144.847 747.549 145.198 747.146 145.666 746.851C146.134 746.548 146.706 746.396 147.382 746.396C147.876 746.396 148.292 746.47 148.63 746.617L148.513 747.891C148.201 747.744 147.885 747.67 147.564 747.67C147.027 747.67 146.607 747.861 146.303 748.242C146 748.623 145.848 749.13 145.848 749.763C145.848 750.378 145.996 750.881 146.29 751.271C146.594 751.661 147.014 751.856 147.551 751.856C147.907 751.856 148.24 751.778 148.552 751.622L148.656 752.87C148.492 752.948 148.292 753.009 148.058 753.052C147.824 753.104 147.582 753.13 147.33 753.13ZM152.204 753.13C151.546 753.13 150.987 752.978 150.527 752.675C150.068 752.372 149.721 751.964 149.487 751.453C149.262 750.942 149.149 750.374 149.149 749.75C149.149 749.109 149.258 748.537 149.474 748.034C149.691 747.523 150.012 747.124 150.436 746.838C150.861 746.543 151.368 746.396 151.957 746.396C152.694 746.396 153.275 746.656 153.699 747.176C154.124 747.696 154.336 748.394 154.336 749.269C154.336 749.52 154.31 749.798 154.258 750.101H150.761C150.813 750.69 150.987 751.132 151.281 751.427C151.576 751.713 151.94 751.856 152.373 751.856C152.963 751.856 153.522 751.683 154.05 751.336L154.089 752.701C153.561 752.987 152.932 753.13 152.204 753.13ZM152.763 749.009C152.763 748.116 152.46 747.67 151.853 747.67C151.255 747.67 150.896 748.116 150.774 749.009H152.763ZM156.693 753.13C156.216 753.13 155.857 752.978 155.614 752.675C155.38 752.372 155.263 751.956 155.263 751.427V743.25H156.823V750.894C156.823 751.258 156.858 751.501 156.927 751.622C157.005 751.743 157.165 751.804 157.408 751.804L157.278 753.13H156.693Z" fill="#394648"/>
<circle cx="321.5" cy="201.5" r="15.5" fill="#DFDFDF"/>
<ellipse cx="317.72" cy="197.166" rx="3.40245" ry="3.60459" fill="#394648"/>
<path d="M323.39 205.155C323.39 208.903 320.851 209.581 317.72 209.581C314.588 209.581 312.049 208.903 312.049 205.155C312.049 201.406 314.588 198.367 317.72 198.367C320.851 198.367 323.39 201.406 323.39 205.155Z" fill="#394648"/>
<ellipse cx="326.036" cy="197.166" rx="3.40245" ry="3.60459" fill="#394648"/>
<path d="M331.707 205.155C331.707 208.903 329.169 209.581 326.037 209.581C322.905 209.581 320.366 208.903 320.366 205.155C320.366 201.406 322.905 198.367 326.037 198.367C329.169 198.367 331.707 201.406 331.707 205.155Z" fill="#394648"/>
<defs>
<filter id="filter0_d_190_753" x="35" y="168" width="323" height="557" filterUnits="userSpaceOnUse" color-interpolation-filters="sRGB">
<feFlood flood-opacity="0" result="BackgroundImageFix"/>
<feColorMatrix in="SourceAlpha" type="matrix" values="0 0 0 0 0 0 0 0 0 0 0 0 0 0 0 0 0 0 127 0" result="hardAlpha"/>
<feOffset dy="4"/>
<feGaussianBlur stdDeviation="2"/>
<feComposite in2="hardAlpha" operator="out"/>
<feColorMatrix type="matrix" values="0 0 0 0 0 0 0 0 0 0 0 0 0 0 0 0 0 0 0.25 0"/>
<feBlend mode="normal" in2="BackgroundImageFix" result="effect1_dropShadow_190_753"/>
<feBlend mode="normal" in="SourceGraphic" in2="effect1_dropShadow_190_753" result="shape"/>
</filter>
<filter id="filter1_d_190_753" x="51.7" y="179.961" width="58.9801" height="64.3388" filterUnits="userSpaceOnUse" color-interpolation-filters="sRGB">
<feFlood flood-opacity="0" result="BackgroundImageFix"/>
<feColorMatrix in="SourceAlpha" type="matrix" values="0 0 0 0 0 0 0 0 0 0 0 0 0 0 0 0 0 0 127 0" result="hardAlpha"/>
<feOffset dy="2"/>
<feGaussianBlur stdDeviation="4.15"/>
<feComposite in2="hardAlpha" operator="out"/>
<feColorMatrix type="matrix" values="0 0 0 0 0 0 0 0 0 0 0 0 0 0 0 0 0 0 0.25 0"/>
<feBlend mode="normal" in2="BackgroundImageFix" result="effect1_dropShadow_190_753"/>
<feBlend mode="normal" in="SourceGraphic" in2="effect1_dropShadow_190_753" result="shape"/>
</filter>
<linearGradient id="paint0_linear_190_753" x1="102.392" y1="191.323" x2="64.8475" y2="235.996" gradientUnits="userSpaceOnUse">
<stop stop-color="#FF4747"/>
<stop offset="0.73641" stop-color="#D71A1A"/>
<stop offset="0.96582" stop-color="#991514"/>
</linearGradient>
</defs>
</svg>
