<svg width="393" height="852" viewBox="0 0 393 852" fill="none" xmlns="http://www.w3.org/2000/svg">
<g clip-path="url(#clip0_509_84)">
<rect width="393" height="852" fill="#F3EFD4"/>
<rect y="780" width="393" height="72" fill="#EBE4B3"/>
<circle cx="44.9811" cy="815.981" r="22.9811" fill="#EC9808"/>
<path d="M45.5284 803.944L57.3749 814.613H33.6818L45.5284 803.944Z" fill="white"/>
<rect x="36.2266" y="812.698" width="5.4717" height="13.1321" fill="white"/>
<rect x="48.2642" y="812.698" width="5.4717" height="13.1321" fill="white"/>
<circle cx="120.944" cy="815.981" r="22.9811" fill="#EC9808"/>
<circle cx="114.925" cy="809.962" r="4.92453" fill="white"/>
<path d="M123.132 820.877C123.132 825.998 119.458 826.925 114.925 826.925C110.392 826.925 106.717 825.998 106.717 820.877C106.717 815.756 110.392 811.604 114.925 811.604C119.458 811.604 123.132 815.756 123.132 820.877Z" fill="white"/>
<circle cx="126.963" cy="809.962" r="4.92453" fill="white"/>
<path d="M135.17 820.877C135.17 825.998 131.495 826.925 126.962 826.925C122.43 826.925 118.755 825.998 118.755 820.877C118.755 815.756 122.43 811.604 126.962 811.604C131.495 811.604 135.17 815.756 135.17 820.877Z" fill="white"/>
<circle cx="196.905" cy="815.981" r="22.9811" fill="#EC9808"/>
<rect x="185.962" y="814.887" width="22.9811" height="3.28302" fill="white"/>
<rect x="195.811" y="829.113" width="24.0755" height="3.28302" transform="rotate(-90 195.811 829.113)" fill="white"/>
<circle cx="272.868" cy="815.981" r="22.9811" fill="#EC9808"/>
<path d="M259.736 803.944L273.941 805.95L287.094 803.944V828.019L273.941 826.013L259.736 828.019V803.944Z" fill="white"/>
<path d="M261.924 806.132L271.773 807.824V823.045L261.924 824.736V806.132Z" fill="#EC9808"/>
<path d="M284.906 824.736L276.151 823.045V807.824L284.906 806.132V824.736Z" fill="#EC9808"/>
<circle cx="348.83" cy="815.981" r="22.9811" fill="#A2A652"/>
<rect x="333.614" y="810.481" width="30.4873" height="15.7752" rx="7" fill="black"/>
<path d="M367.065 810.043C367.065 811.011 358.49 811.357 348.434 811.357C338.378 811.357 330.227 811.011 330.227 810.043C330.227 809.075 338.378 807.852 348.434 807.852C358.49 807.852 367.065 809.075 367.065 810.043Z" fill="#8C704E"/>
<path d="M364.101 806.976C364.101 815.689 357.466 822.751 349.281 822.751C341.096 822.751 334.461 815.689 334.461 806.976C334.461 798.264 341.096 799.527 349.281 799.527C357.466 799.527 364.101 798.264 364.101 806.976Z" fill="#D8C59D"/>
<path d="M361.842 800.669C364.698 806.862 365.412 813.004 362.695 814.322C359.977 815.641 355.458 811.689 352.602 805.496C349.746 799.303 349.885 801.988 352.602 800.669C355.803 799.116 359.077 793.717 361.842 800.669Z" fill="black"/>
<path d="M344.217 806.97C342.134 812.627 338.221 816.351 335.477 815.288C332.734 814.225 332.84 809.418 334.923 803.762C337.006 798.105 340.449 797.694 342.93 799.526C345.673 800.588 346.3 801.314 344.217 806.97Z" fill="black"/>
<path d="M367.065 810.043C367.065 810.769 358.49 810.481 348.434 810.481C338.378 810.481 330.227 810.769 330.227 810.043C330.227 809.317 338.378 807.852 348.434 807.852C358.49 807.852 367.065 809.317 367.065 810.043Z" fill="#5B4A36"/>
<path d="M336.578 796.458H361.279L365.372 809.166H333.191L336.578 796.458Z" fill="#726058"/>
<ellipse cx="342.93" cy="815.3" rx="0.846869" ry="1.3146" fill="black"/>
<ellipse cx="342.93" cy="815.3" rx="0.846869" ry="1.3146" fill="black"/>
<ellipse cx="342.93" cy="815.3" rx="0.846869" ry="1.3146" fill="black"/>
<ellipse cx="354.786" cy="815.3" rx="0.846869" ry="1.3146" fill="black"/>
<ellipse cx="354.786" cy="815.3" rx="0.846869" ry="1.3146" fill="black"/>
<ellipse cx="354.786" cy="815.3" rx="0.846869" ry="1.3146" fill="black"/>
<path d="M351.399 818.49C351.399 818.907 350.261 819.245 348.858 819.245C347.455 819.245 346.317 818.907 346.317 818.49C346.317 818.073 347.455 818.867 348.858 818.867C350.261 818.867 351.399 818.073 351.399 818.49Z" fill="black"/>
<path d="M351.399 818.49C351.399 818.907 350.261 819.245 348.858 819.245C347.455 819.245 346.317 818.907 346.317 818.49C346.317 818.073 347.455 818.867 348.858 818.867C350.261 818.867 351.399 818.073 351.399 818.49Z" fill="black"/>
<path d="M351.399 818.49C351.399 818.907 350.261 819.245 348.858 819.245C347.455 819.245 346.317 818.907 346.317 818.49C346.317 818.073 347.455 818.867 348.858 818.867C350.261 818.867 351.399 818.073 351.399 818.49Z" fill="black"/>
<rect x="346.317" y="820.998" width="5.08121" height="3.5056" fill="#D8C59D"/>
<path d="M340.912 826.021C341.199 824.627 342.427 823.627 343.85 823.627H353.866C355.289 823.627 356.516 824.627 356.804 826.021L358.277 833.167C358.661 835.028 357.239 836.773 355.339 836.773H349.535H342.377C340.476 836.773 339.055 835.028 339.439 833.167L340.912 826.021Z" fill="#A71515"/>
<rect x="343.776" y="826.256" width="1.69374" height="2.6292" fill="#726058"/>
<rect x="352.245" y="826.256" width="1.69374" height="2.6292" fill="#726058"/>
<rect x="341.236" y="828.885" width="15.2436" height="7.88761" fill="#726058"/>
<path d="M24.9602 205.336C23.5522 205.336 22.2882 204.984 21.1682 204.28C20.0482 203.56 19.1602 202.544 18.5042 201.232C17.8642 199.904 17.5442 198.36 17.5442 196.6C17.5442 194.84 17.8642 193.304 18.5042 191.992C19.1442 190.664 20.0322 189.648 21.1682 188.944C22.3042 188.224 23.5842 187.864 25.0082 187.864C26.3842 187.864 27.6402 188.128 28.7762 188.656L28.4402 191.584C27.8482 191.328 27.3282 191.136 26.8802 191.008C26.4322 190.88 25.9362 190.816 25.3922 190.816C23.9362 190.816 22.8002 191.328 21.9842 192.352C21.1682 193.376 20.7602 194.792 20.7602 196.6C20.7602 198.408 21.1682 199.824 21.9842 200.848C22.8002 201.872 23.9282 202.384 25.3682 202.384C25.9282 202.384 26.4322 202.32 26.8802 202.192C27.3282 202.064 27.8482 201.872 28.4402 201.616L28.7762 204.544C27.7202 205.072 26.4482 205.336 24.9602 205.336ZM39.5432 193V205H37.0472L36.9272 204.064C36.1432 204.816 35.1672 205.192 33.9992 205.192C32.7992 205.192 31.8792 204.8 31.2392 204.016C30.6152 203.216 30.3032 202.144 30.3032 200.8V193H33.1832V200.416C33.1832 202.032 33.7272 202.84 34.8152 202.84C35.5672 202.84 36.1832 202.496 36.6632 201.808V193H39.5432ZM44.5538 205.24C43.8978 205.24 43.2978 205.168 42.7538 205.024C42.2258 204.896 41.6818 204.688 41.1218 204.4L41.3858 201.856C42.5058 202.624 43.4898 203.008 44.3378 203.008C44.8818 203.008 45.2978 202.904 45.5858 202.696C45.8738 202.488 46.0178 202.2 46.0178 201.832C46.0178 201.448 45.8818 201.136 45.6098 200.896C45.3538 200.64 44.8418 200.328 44.0738 199.96C43.0498 199.464 42.3058 198.96 41.8418 198.448C41.3938 197.92 41.1698 197.2 41.1698 196.288C41.1698 195.248 41.5378 194.408 42.2738 193.768C43.0098 193.128 44.0018 192.808 45.2498 192.808C46.3698 192.808 47.4178 193.104 48.3938 193.696L48.1298 196.168C47.6658 195.768 47.2178 195.464 46.7858 195.256C46.3698 195.048 45.9218 194.944 45.4418 194.944C44.9778 194.944 44.6018 195.048 44.3138 195.256C44.0418 195.448 43.9058 195.728 43.9058 196.096C43.9058 196.464 44.0498 196.768 44.3378 197.008C44.6418 197.232 45.2418 197.576 46.1378 198.04C47.0338 198.504 47.6898 199.016 48.1058 199.576C48.5378 200.12 48.7538 200.832 48.7538 201.712C48.7538 202.8 48.3698 203.664 47.6018 204.304C46.8498 204.928 45.8338 205.24 44.5538 205.24ZM53.8452 205.24C52.9332 205.24 52.2292 204.976 51.7332 204.448C51.2532 203.92 51.0132 203.136 51.0132 202.096V195.448H49.6692L49.9332 193H51.0132V190.36L53.8932 190.048V193H55.9812V195.448H53.8932V201.352C53.8932 201.848 53.9892 202.216 54.1812 202.456C54.3892 202.68 54.7092 202.792 55.1412 202.792H56.0052L55.7412 205.24H53.8452ZM62.337 205.24C61.249 205.24 60.305 204.96 59.505 204.4C58.705 203.84 58.089 203.088 57.657 202.144C57.241 201.2 57.033 200.16 57.033 199.024C57.033 197.888 57.241 196.848 57.657 195.904C58.089 194.96 58.705 194.208 59.505 193.648C60.305 193.088 61.249 192.808 62.337 192.808C63.425 192.808 64.369 193.088 65.169 193.648C65.985 194.208 66.601 194.96 67.017 195.904C67.449 196.848 67.665 197.888 67.665 199.024C67.665 200.16 67.449 201.2 67.017 202.144C66.601 203.088 65.985 203.84 65.169 204.4C64.369 204.96 63.425 205.24 62.337 205.24ZM62.337 202.888C63.089 202.888 63.673 202.536 64.089 201.832C64.521 201.128 64.737 200.192 64.737 199.024C64.737 197.856 64.521 196.92 64.089 196.216C63.673 195.512 63.089 195.16 62.337 195.16C61.601 195.16 61.017 195.52 60.585 196.24C60.169 196.944 59.961 197.872 59.961 199.024C59.961 200.176 60.169 201.112 60.585 201.832C61.017 202.536 61.601 202.888 62.337 202.888ZM81.1101 192.808C82.3901 192.808 83.3661 193.208 84.0381 194.008C84.7101 194.792 85.0461 195.856 85.0461 197.2V205H82.1661V197.584C82.1661 196.8 82.0381 196.2 81.7821 195.784C81.5261 195.368 81.1021 195.16 80.5101 195.16C79.9181 195.16 79.4621 195.336 79.1421 195.688C78.8381 196.024 78.6861 196.528 78.6861 197.2V205H75.8061V197.584C75.8061 195.968 75.2621 195.16 74.1741 195.16C73.4221 195.16 72.8061 195.504 72.3261 196.192V205H69.4461V193H71.8941L72.0141 193.96C72.7501 193.192 73.6861 192.808 74.8221 192.808C75.4781 192.808 76.0621 192.944 76.5741 193.216C77.0861 193.488 77.4861 193.872 77.7741 194.368C78.1581 193.872 78.6301 193.488 79.1901 193.216C79.7661 192.944 80.4061 192.808 81.1101 192.808Z" fill="#394648"/>
<path d="M18.6966 220.8H20.6486V225.232H24.8086V220.8H26.7606V232H24.8086V227.152H20.6486V232H18.6966V220.8ZM29.9919 232.16C29.3945 232.16 28.8879 231.968 28.4719 231.584C28.0665 231.189 27.8639 230.64 27.8639 229.936C27.8639 229.2 28.0825 228.613 28.5199 228.176C28.9679 227.728 29.4799 227.408 30.0559 227.216C30.6425 227.024 31.1759 226.917 31.6559 226.896C31.6559 226.427 31.5705 226.091 31.3999 225.888C31.2292 225.685 30.9359 225.584 30.5199 225.584C30.1999 225.584 29.8905 225.637 29.5919 225.744C29.2932 225.84 28.9572 225.989 28.5839 226.192L28.4559 224.576C29.3092 224.107 30.1679 223.872 31.0319 223.872C31.8319 223.872 32.4559 224.112 32.9039 224.592C33.3625 225.061 33.5919 225.808 33.5919 226.832V229.248C33.5919 229.643 33.6079 229.931 33.6399 230.112C33.6719 230.293 33.7199 230.411 33.7839 230.464C33.8585 230.507 33.9705 230.528 34.1199 230.528H34.3759L34.2479 232.16H33.3999C33.1012 232.16 32.8132 232.075 32.5359 231.904C32.2692 231.733 32.0719 231.509 31.9439 231.232C31.6559 231.541 31.3625 231.776 31.0639 231.936C30.7652 232.085 30.4079 232.16 29.9919 232.16ZM30.6479 230.64C31.0105 230.64 31.3519 230.448 31.6719 230.064V228.24C31.1599 228.304 30.7332 228.459 30.3919 228.704C30.0505 228.939 29.8799 229.285 29.8799 229.744C29.8799 230.053 29.9492 230.283 30.0879 230.432C30.2265 230.571 30.4132 230.64 30.6479 230.64ZM34.2351 224H36.2351L37.7711 229.44L39.3071 224H41.3071L38.6031 232H36.9391L34.2351 224ZM45.3307 232.16C44.5201 232.16 43.8321 231.973 43.2668 231.6C42.7014 231.227 42.2748 230.725 41.9868 230.096C41.7094 229.467 41.5708 228.768 41.5708 228C41.5708 227.211 41.7041 226.507 41.9708 225.888C42.2374 225.259 42.6321 224.768 43.1548 224.416C43.6774 224.053 44.3014 223.872 45.0268 223.872C45.9334 223.872 46.6481 224.192 47.1708 224.832C47.6934 225.472 47.9548 226.331 47.9548 227.408C47.9548 227.717 47.9228 228.059 47.8588 228.432H43.5548C43.6188 229.157 43.8321 229.701 44.1948 230.064C44.5574 230.416 45.0054 230.592 45.5388 230.592C46.2641 230.592 46.9521 230.379 47.6028 229.952L47.6508 231.632C47.0001 231.984 46.2268 232.16 45.3307 232.16ZM46.0188 227.088C46.0188 225.989 45.6454 225.44 44.8988 225.44C44.1628 225.44 43.7201 225.989 43.5707 227.088H46.0188ZM53.7731 232.16C53.1758 232.16 52.6691 231.968 52.2531 231.584C51.8478 231.189 51.6451 230.64 51.6451 229.936C51.6451 229.2 51.8638 228.613 52.3011 228.176C52.7491 227.728 53.2611 227.408 53.8371 227.216C54.4238 227.024 54.9571 226.917 55.4371 226.896C55.4371 226.427 55.3518 226.091 55.1811 225.888C55.0105 225.685 54.7171 225.584 54.3011 225.584C53.9811 225.584 53.6718 225.637 53.3731 225.744C53.0745 225.84 52.7385 225.989 52.3651 226.192L52.2371 224.576C53.0905 224.107 53.9491 223.872 54.8131 223.872C55.6131 223.872 56.2371 224.112 56.6851 224.592C57.1438 225.061 57.3731 225.808 57.3731 226.832V229.248C57.3731 229.643 57.3891 229.931 57.4211 230.112C57.4531 230.293 57.5011 230.411 57.5651 230.464C57.6398 230.507 57.7518 230.528 57.9011 230.528H58.1571L58.0291 232.16H57.1811C56.8825 232.16 56.5945 232.075 56.3171 231.904C56.0505 231.733 55.8531 231.509 55.7251 231.232C55.4371 231.541 55.1438 231.776 54.8451 231.936C54.5465 232.085 54.1891 232.16 53.7731 232.16ZM54.4291 230.64C54.7918 230.64 55.1331 230.448 55.4531 230.064V228.24C54.9411 228.304 54.5145 228.459 54.1731 228.704C53.8318 228.939 53.6611 229.285 53.6611 229.744C53.6611 230.053 53.7305 230.283 53.8691 230.432C54.0078 230.571 54.1945 230.64 54.4291 230.64ZM65.7925 223.872C66.4432 223.872 66.9978 224.059 67.4565 224.432C67.9258 224.805 68.2778 225.307 68.5125 225.936C68.7578 226.565 68.8805 227.259 68.8805 228.016C68.8805 228.773 68.7578 229.467 68.5125 230.096C68.2778 230.725 67.9258 231.227 67.4565 231.6C66.9978 231.973 66.4432 232.16 65.7925 232.16C65.3872 232.16 65.0405 232.112 64.7525 232.016C64.4752 231.931 64.2085 231.787 63.9525 231.584V235.872H62.0325V224H63.5685L63.7765 224.736C64.0645 224.459 64.3685 224.245 64.6885 224.096C65.0085 223.947 65.3765 223.872 65.7925 223.872ZM65.4245 230.592C65.8938 230.592 66.2618 230.357 66.5285 229.888C66.7952 229.408 66.9285 228.784 66.9285 228.016C66.9285 227.248 66.7952 226.629 66.5285 226.16C66.2618 225.68 65.8938 225.44 65.4245 225.44C64.9018 225.44 64.5072 225.675 64.2405 226.144C63.9845 226.603 63.8565 227.227 63.8565 228.016C63.8565 228.805 63.9845 229.435 64.2405 229.904C64.5072 230.363 64.9018 230.592 65.4245 230.592ZM73.3151 232.16C72.5045 232.16 71.8165 231.973 71.2511 231.6C70.6858 231.227 70.2591 230.725 69.9711 230.096C69.6938 229.467 69.5551 228.768 69.5551 228C69.5551 227.211 69.6885 226.507 69.9551 225.888C70.2218 225.259 70.6165 224.768 71.1391 224.416C71.6618 224.053 72.2858 223.872 73.0111 223.872C73.9178 223.872 74.6325 224.192 75.1551 224.832C75.6778 225.472 75.9391 226.331 75.9391 227.408C75.9391 227.717 75.9071 228.059 75.8431 228.432H71.5391C71.6031 229.157 71.8165 229.701 72.1791 230.064C72.5418 230.416 72.9898 230.592 73.5231 230.592C74.2485 230.592 74.9365 230.379 75.5871 229.952L75.6351 231.632C74.9845 231.984 74.2111 232.16 73.3151 232.16ZM74.0031 227.088C74.0031 225.989 73.6298 225.44 72.8831 225.44C72.1471 225.44 71.7045 225.989 71.5551 227.088H74.0031ZM77.0638 224H78.7438L78.8718 224.848C79.1704 224.517 79.4478 224.272 79.7038 224.112C79.9704 223.952 80.2798 223.872 80.6318 223.872C80.7811 223.872 80.9198 223.888 81.0477 223.92L80.9038 225.856C80.7438 225.803 80.5731 225.776 80.3918 225.776C80.1358 225.776 79.9064 225.835 79.7038 225.952C79.5011 226.069 79.2611 226.267 78.9838 226.544V232H77.0638V224ZM83.6895 232.16C83.2522 232.16 82.8522 232.112 82.4895 232.016C82.1375 231.931 81.7748 231.792 81.4015 231.6L81.5775 229.904C82.3242 230.416 82.9802 230.672 83.5455 230.672C83.9082 230.672 84.1855 230.603 84.3775 230.464C84.5695 230.325 84.6655 230.133 84.6655 229.888C84.6655 229.632 84.5748 229.424 84.3935 229.264C84.2228 229.093 83.8815 228.885 83.3695 228.64C82.6868 228.309 82.1908 227.973 81.8815 227.632C81.5828 227.28 81.4335 226.8 81.4335 226.192C81.4335 225.499 81.6788 224.939 82.1695 224.512C82.6602 224.085 83.3215 223.872 84.1535 223.872C84.9002 223.872 85.5988 224.069 86.2495 224.464L86.0735 226.112C85.7642 225.845 85.4655 225.643 85.1775 225.504C84.9002 225.365 84.6015 225.296 84.2815 225.296C83.9722 225.296 83.7215 225.365 83.5295 225.504C83.3482 225.632 83.2575 225.819 83.2575 226.064C83.2575 226.309 83.3535 226.512 83.5455 226.672C83.7482 226.821 84.1482 227.051 84.7455 227.36C85.3428 227.669 85.7802 228.011 86.0575 228.384C86.3455 228.747 86.4895 229.221 86.4895 229.808C86.4895 230.533 86.2335 231.109 85.7215 231.536C85.2202 231.952 84.5428 232.16 83.6895 232.16ZM90.7638 232.16C90.0384 232.16 89.4091 231.973 88.8758 231.6C88.3424 231.227 87.9318 230.725 87.6438 230.096C87.3664 229.467 87.2278 228.773 87.2278 228.016C87.2278 227.259 87.3664 226.565 87.6438 225.936C87.9318 225.307 88.3424 224.805 88.8758 224.432C89.4091 224.059 90.0384 223.872 90.7638 223.872C91.4891 223.872 92.1184 224.059 92.6518 224.432C93.1958 224.805 93.6064 225.307 93.8838 225.936C94.1718 226.565 94.3158 227.259 94.3158 228.016C94.3158 228.773 94.1718 229.467 93.8838 230.096C93.6064 230.725 93.1958 231.227 92.6518 231.6C92.1184 231.973 91.4891 232.16 90.7638 232.16ZM90.7638 230.592C91.2651 230.592 91.6544 230.357 91.9318 229.888C92.2198 229.419 92.3638 228.795 92.3638 228.016C92.3638 227.237 92.2198 226.613 91.9318 226.144C91.6544 225.675 91.2651 225.44 90.7638 225.44C90.2731 225.44 89.8838 225.68 89.5958 226.16C89.3184 226.629 89.1798 227.248 89.1798 228.016C89.1798 228.784 89.3184 229.408 89.5958 229.888C89.8838 230.357 90.2731 230.592 90.7638 230.592ZM99.1991 223.872C99.9991 223.872 100.607 224.139 101.023 224.672C101.45 225.195 101.663 225.904 101.663 226.8V232H99.7431V227.056C99.7431 225.979 99.3805 225.44 98.6551 225.44C98.1538 225.44 97.7431 225.669 97.4231 226.128V232H95.5031V224H97.1671L97.2471 224.624C97.7698 224.123 98.4205 223.872 99.1991 223.872ZM104.726 232.16C104.129 232.16 103.622 231.968 103.206 231.584C102.801 231.189 102.598 230.64 102.598 229.936C102.598 229.2 102.817 228.613 103.254 228.176C103.702 227.728 104.214 227.408 104.79 227.216C105.377 227.024 105.91 226.917 106.39 226.896C106.39 226.427 106.305 226.091 106.134 225.888C105.964 225.685 105.67 225.584 105.254 225.584C104.934 225.584 104.625 225.637 104.326 225.744C104.028 225.84 103.692 225.989 103.318 226.192L103.19 224.576C104.044 224.107 104.902 223.872 105.766 223.872C106.566 223.872 107.19 224.112 107.638 224.592C108.097 225.061 108.326 225.808 108.326 226.832V229.248C108.326 229.643 108.342 229.931 108.374 230.112C108.406 230.293 108.454 230.411 108.518 230.464C108.593 230.507 108.705 230.528 108.854 230.528H109.11L108.982 232.16H108.134C107.836 232.16 107.548 232.075 107.27 231.904C107.004 231.733 106.806 231.509 106.678 231.232C106.39 231.541 106.097 231.776 105.798 231.936C105.5 232.085 105.142 232.16 104.726 232.16ZM105.382 230.64C105.745 230.64 106.086 230.448 106.406 230.064V228.24C105.894 228.304 105.468 228.459 105.126 228.704C104.785 228.939 104.614 229.285 104.614 229.744C104.614 230.053 104.684 230.283 104.822 230.432C104.961 230.571 105.148 230.64 105.382 230.64ZM111.668 232.16C111.081 232.16 110.639 231.973 110.34 231.6C110.052 231.227 109.908 230.715 109.908 230.064V220H111.828V229.408C111.828 229.856 111.871 230.155 111.956 230.304C112.052 230.453 112.249 230.528 112.548 230.528L112.388 232.16H111.668ZM124.482 223.872C125.336 223.872 125.986 224.139 126.434 224.672C126.882 225.195 127.106 225.904 127.106 226.8V232H125.186V227.056C125.186 226.533 125.101 226.133 124.93 225.856C124.76 225.579 124.477 225.44 124.082 225.44C123.688 225.44 123.384 225.557 123.17 225.792C122.968 226.016 122.866 226.352 122.866 226.8V232H120.946V227.056C120.946 225.979 120.584 225.44 119.858 225.44C119.357 225.44 118.946 225.669 118.626 226.128V232H116.706V224H118.338L118.418 224.64C118.909 224.128 119.533 223.872 120.29 223.872C120.728 223.872 121.117 223.963 121.458 224.144C121.8 224.325 122.066 224.581 122.258 224.912C122.514 224.581 122.829 224.325 123.202 224.144C123.586 223.963 124.013 223.872 124.482 223.872ZM131.971 232.16C131.161 232.16 130.473 231.973 129.907 231.6C129.342 231.227 128.915 230.725 128.627 230.096C128.35 229.467 128.211 228.768 128.211 228C128.211 227.211 128.345 226.507 128.611 225.888C128.878 225.259 129.273 224.768 129.795 224.416C130.318 224.053 130.942 223.872 131.667 223.872C132.574 223.872 133.289 224.192 133.811 224.832C134.334 225.472 134.595 226.331 134.595 227.408C134.595 227.717 134.563 228.059 134.499 228.432H130.195C130.259 229.157 130.473 229.701 130.835 230.064C131.198 230.416 131.646 230.592 132.179 230.592C132.905 230.592 133.593 230.379 134.243 229.952L134.291 231.632C133.641 231.984 132.867 232.16 131.971 232.16ZM132.659 227.088C132.659 225.989 132.286 225.44 131.539 225.44C130.803 225.44 130.361 225.989 130.211 227.088H132.659ZM137.752 232.16C137.315 232.16 136.915 232.112 136.552 232.016C136.2 231.931 135.837 231.792 135.464 231.6L135.64 229.904C136.387 230.416 137.043 230.672 137.608 230.672C137.971 230.672 138.248 230.603 138.44 230.464C138.632 230.325 138.728 230.133 138.728 229.888C138.728 229.632 138.637 229.424 138.456 229.264C138.285 229.093 137.944 228.885 137.432 228.64C136.749 228.309 136.253 227.973 135.944 227.632C135.645 227.28 135.496 226.8 135.496 226.192C135.496 225.499 135.741 224.939 136.232 224.512C136.723 224.085 137.384 223.872 138.216 223.872C138.963 223.872 139.661 224.069 140.312 224.464L140.136 226.112C139.827 225.845 139.528 225.643 139.24 225.504C138.963 225.365 138.664 225.296 138.344 225.296C138.035 225.296 137.784 225.365 137.592 225.504C137.411 225.632 137.32 225.819 137.32 226.064C137.32 226.309 137.416 226.512 137.608 226.672C137.811 226.821 138.211 227.051 138.808 227.36C139.405 227.669 139.843 228.011 140.12 228.384C140.408 228.747 140.552 229.221 140.552 229.808C140.552 230.533 140.296 231.109 139.784 231.536C139.283 231.952 138.605 232.16 137.752 232.16ZM143.658 232.16C143.221 232.16 142.821 232.112 142.458 232.016C142.106 231.931 141.744 231.792 141.37 231.6L141.546 229.904C142.293 230.416 142.949 230.672 143.514 230.672C143.877 230.672 144.154 230.603 144.346 230.464C144.538 230.325 144.634 230.133 144.634 229.888C144.634 229.632 144.544 229.424 144.362 229.264C144.192 229.093 143.85 228.885 143.338 228.64C142.656 228.309 142.16 227.973 141.85 227.632C141.552 227.28 141.402 226.8 141.402 226.192C141.402 225.499 141.648 224.939 142.138 224.512C142.629 224.085 143.29 223.872 144.122 223.872C144.869 223.872 145.568 224.069 146.218 224.464L146.042 226.112C145.733 225.845 145.434 225.643 145.146 225.504C144.869 225.365 144.57 225.296 144.25 225.296C143.941 225.296 143.69 225.365 143.498 225.504C143.317 225.632 143.226 225.819 143.226 226.064C143.226 226.309 143.322 226.512 143.514 226.672C143.717 226.821 144.117 227.051 144.714 227.36C145.312 227.669 145.749 228.011 146.026 228.384C146.314 228.747 146.458 229.221 146.458 229.808C146.458 230.533 146.202 231.109 145.69 231.536C145.189 231.952 144.512 232.16 143.658 232.16ZM149.133 232.16C148.535 232.16 148.029 231.968 147.613 231.584C147.207 231.189 147.005 230.64 147.005 229.936C147.005 229.2 147.223 228.613 147.661 228.176C148.109 227.728 148.621 227.408 149.197 227.216C149.783 227.024 150.317 226.917 150.797 226.896C150.797 226.427 150.711 226.091 150.541 225.888C150.37 225.685 150.077 225.584 149.661 225.584C149.341 225.584 149.031 225.637 148.733 225.744C148.434 225.84 148.098 225.989 147.725 226.192L147.597 224.576C148.45 224.107 149.309 223.872 150.173 223.872C150.973 223.872 151.597 224.112 152.045 224.592C152.503 225.061 152.733 225.808 152.733 226.832V229.248C152.733 229.643 152.749 229.931 152.781 230.112C152.813 230.293 152.861 230.411 152.925 230.464C152.999 230.507 153.111 230.528 153.261 230.528H153.517L153.389 232.16H152.541C152.242 232.16 151.954 232.075 151.677 231.904C151.41 231.733 151.213 231.509 151.085 231.232C150.797 231.541 150.503 231.776 150.205 231.936C149.906 232.085 149.549 232.16 149.133 232.16ZM149.789 230.64C150.151 230.64 150.493 230.448 150.812 230.064V228.24C150.301 228.304 149.874 228.459 149.533 228.704C149.191 228.939 149.021 229.285 149.021 229.744C149.021 230.053 149.09 230.283 149.229 230.432C149.367 230.571 149.554 230.64 149.789 230.64ZM157.098 236C156.138 236 155.365 235.803 154.778 235.408C154.202 235.013 153.914 234.464 153.914 233.76C153.914 233.365 154.015 233.019 154.218 232.72C154.421 232.421 154.719 232.155 155.114 231.92C154.655 231.653 154.426 231.285 154.426 230.816C154.426 230.357 154.677 229.979 155.178 229.68C154.794 229.392 154.495 229.019 154.282 228.56C154.069 228.091 153.962 227.579 153.962 227.024C153.962 226.437 154.074 225.904 154.298 225.424C154.533 224.944 154.869 224.565 155.306 224.288C155.743 224.011 156.255 223.872 156.842 223.872C157.535 223.872 158.122 224.064 158.602 224.448C159.039 224.064 159.487 223.872 159.946 223.872C160.085 223.872 160.218 223.883 160.346 223.904L160.202 225.136C160.095 225.115 159.989 225.104 159.882 225.104C159.658 225.104 159.455 225.147 159.274 225.232C159.573 225.744 159.722 226.341 159.722 227.024C159.722 227.611 159.605 228.144 159.37 228.624C159.146 229.104 158.815 229.488 158.378 229.776C157.941 230.053 157.429 230.192 156.842 230.192C156.607 230.192 156.405 230.171 156.234 230.128C156.138 230.203 156.09 230.293 156.09 230.4C156.09 230.507 156.127 230.592 156.202 230.656C156.277 230.709 156.405 230.757 156.586 230.8L158.234 231.184C159.013 231.365 159.578 231.637 159.93 232C160.282 232.352 160.458 232.848 160.458 233.488C160.458 233.989 160.314 234.427 160.026 234.8C159.749 235.184 159.354 235.477 158.842 235.68C158.33 235.893 157.749 236 157.098 236ZM156.842 228.752C157.194 228.752 157.466 228.597 157.658 228.288C157.861 227.968 157.962 227.547 157.962 227.024C157.962 226.512 157.861 226.101 157.658 225.792C157.466 225.472 157.194 225.312 156.842 225.312C156.479 225.312 156.202 225.472 156.01 225.792C155.818 226.101 155.722 226.512 155.722 227.024C155.722 227.547 155.818 227.968 156.01 228.288C156.202 228.597 156.479 228.752 156.842 228.752ZM157.146 234.56C157.637 234.56 158.031 234.475 158.33 234.304C158.639 234.144 158.794 233.909 158.794 233.6C158.794 233.344 158.709 233.141 158.538 232.992C158.378 232.853 158.095 232.736 157.69 232.64L156.314 232.304C156.026 232.475 155.807 232.651 155.658 232.832C155.519 233.024 155.45 233.243 155.45 233.488C155.45 233.829 155.605 234.091 155.914 234.272C156.223 234.464 156.634 234.56 157.146 234.56ZM164.596 232.16C163.786 232.16 163.098 231.973 162.532 231.6C161.967 231.227 161.54 230.725 161.252 230.096C160.975 229.467 160.836 228.768 160.836 228C160.836 227.211 160.97 226.507 161.236 225.888C161.503 225.259 161.898 224.768 162.42 224.416C162.943 224.053 163.567 223.872 164.292 223.872C165.199 223.872 165.914 224.192 166.436 224.832C166.959 225.472 167.22 226.331 167.22 227.408C167.22 227.717 167.188 228.059 167.124 228.432H162.82C162.884 229.157 163.098 229.701 163.46 230.064C163.823 230.416 164.271 230.592 164.804 230.592C165.53 230.592 166.218 230.379 166.868 229.952L166.916 231.632C166.266 231.984 165.492 232.16 164.596 232.16ZM165.284 227.088C165.284 225.989 164.911 225.44 164.164 225.44C163.428 225.44 162.986 225.989 162.836 227.088H165.284ZM168.994 228.528C168.994 227.995 169.09 227.552 169.282 227.2C169.474 226.848 169.794 226.405 170.242 225.872C170.658 225.381 170.951 224.997 171.122 224.72C171.303 224.432 171.394 224.112 171.394 223.76C171.394 223.355 171.255 223.04 170.978 222.816C170.7 222.592 170.327 222.48 169.858 222.48C169.303 222.48 168.695 222.608 168.034 222.864L167.81 221.04C168.226 220.88 168.631 220.763 169.026 220.688C169.42 220.613 169.884 220.576 170.418 220.576C171.058 220.576 171.612 220.699 172.082 220.944C172.562 221.189 172.93 221.525 173.186 221.952C173.442 222.379 173.57 222.864 173.57 223.408C173.57 223.76 173.511 224.085 173.394 224.384C173.276 224.672 173.122 224.944 172.93 225.2C172.748 225.456 172.476 225.797 172.114 226.224C171.666 226.747 171.356 227.152 171.186 227.44C171.026 227.717 170.946 228.048 170.946 228.432V228.688H168.994V228.528ZM168.994 229.824H170.946V232H168.994V229.824ZM177.234 220.8H179.186L180.818 229.072L182.706 221.008H184.786L186.674 229.072L188.306 220.8H190.258L187.762 232H185.682L183.746 223.936L181.81 232H179.73L177.234 220.8ZM190.486 224H192.166L192.294 224.848C192.592 224.517 192.87 224.272 193.126 224.112C193.392 223.952 193.702 223.872 194.054 223.872C194.203 223.872 194.342 223.888 194.47 223.92L194.326 225.856C194.166 225.803 193.995 225.776 193.814 225.776C193.558 225.776 193.328 225.835 193.126 225.952C192.923 226.069 192.683 226.267 192.406 226.544V232H190.486V224ZM195.063 220.8H196.983V222.784H195.063V220.8ZM195.063 224H196.983V232H195.063V224ZM200.728 232.16C200.12 232.16 199.65 231.984 199.32 231.632C199 231.28 198.84 230.757 198.84 230.064V225.632H197.944L198.12 224H198.84V222.24L200.76 222.032V224H202.152V225.632H200.76V229.568C200.76 229.899 200.824 230.144 200.952 230.304C201.09 230.453 201.304 230.528 201.592 230.528H202.168L201.992 232.16H200.728ZM206.581 232.16C205.77 232.16 205.082 231.973 204.517 231.6C203.951 231.227 203.525 230.725 203.237 230.096C202.959 229.467 202.821 228.768 202.821 228C202.821 227.211 202.954 226.507 203.221 225.888C203.487 225.259 203.882 224.768 204.405 224.416C204.927 224.053 205.551 223.872 206.277 223.872C207.183 223.872 207.898 224.192 208.421 224.832C208.943 225.472 209.205 226.331 209.205 227.408C209.205 227.717 209.173 228.059 209.109 228.432H204.805C204.869 229.157 205.082 229.701 205.445 230.064C205.807 230.416 206.255 230.592 206.789 230.592C207.514 230.592 208.202 230.379 208.853 229.952L208.901 231.632C208.25 231.984 207.477 232.16 206.581 232.16ZM207.269 227.088C207.269 225.989 206.895 225.44 206.149 225.44C205.413 225.44 204.97 225.989 204.821 227.088H207.269ZM213.407 220.8H215.327V222.784H213.407V220.8ZM213.407 224H215.327V232H213.407V224ZM219.071 232.16C218.463 232.16 217.994 231.984 217.663 231.632C217.343 231.28 217.183 230.757 217.183 230.064V225.632H216.287L216.463 224H217.183V222.24L219.103 222.032V224H220.495V225.632H219.103V229.568C219.103 229.899 219.167 230.144 219.295 230.304C219.434 230.453 219.647 230.528 219.935 230.528H220.511L220.335 232.16H219.071ZM228.306 223.872C229.106 223.872 229.714 224.139 230.13 224.672C230.557 225.195 230.77 225.904 230.77 226.8V232H228.85V227.056C228.85 225.979 228.488 225.44 227.762 225.44C227.261 225.44 226.85 225.669 226.53 226.128V232H224.61V220H226.53V224.464C227.01 224.069 227.602 223.872 228.306 223.872ZM235.612 232.16C234.801 232.16 234.113 231.973 233.548 231.6C232.983 231.227 232.556 230.725 232.268 230.096C231.991 229.467 231.852 228.768 231.852 228C231.852 227.211 231.985 226.507 232.252 225.888C232.519 225.259 232.913 224.768 233.436 224.416C233.959 224.053 234.583 223.872 235.308 223.872C236.215 223.872 236.929 224.192 237.452 224.832C237.975 225.472 238.236 226.331 238.236 227.408C238.236 227.717 238.204 228.059 238.14 228.432H233.836C233.9 229.157 234.113 229.701 234.476 230.064C234.839 230.416 235.287 230.592 235.82 230.592C236.545 230.592 237.233 230.379 237.884 229.952L237.932 231.632C237.281 231.984 236.508 232.16 235.612 232.16ZM236.3 227.088C236.3 225.989 235.927 225.44 235.18 225.44C234.444 225.44 234.001 225.989 233.852 227.088H236.3ZM239.361 224H241.041L241.169 224.848C241.467 224.517 241.745 224.272 242.001 224.112C242.267 223.952 242.577 223.872 242.929 223.872C243.078 223.872 243.217 223.888 243.345 223.92L243.201 225.856C243.041 225.803 242.87 225.776 242.689 225.776C242.433 225.776 242.203 225.835 242.001 225.952C241.798 226.069 241.558 226.267 241.281 226.544V232H239.361V224ZM247.221 232.16C246.411 232.16 245.723 231.973 245.157 231.6C244.592 231.227 244.165 230.725 243.877 230.096C243.6 229.467 243.461 228.768 243.461 228C243.461 227.211 243.595 226.507 243.861 225.888C244.128 225.259 244.523 224.768 245.045 224.416C245.568 224.053 246.192 223.872 246.917 223.872C247.824 223.872 248.539 224.192 249.061 224.832C249.584 225.472 249.845 226.331 249.845 227.408C249.845 227.717 249.813 228.059 249.749 228.432H245.445C245.509 229.157 245.723 229.701 246.085 230.064C246.448 230.416 246.896 230.592 247.429 230.592C248.155 230.592 248.843 230.379 249.493 229.952L249.541 231.632C248.891 231.984 248.117 232.16 247.221 232.16ZM247.909 227.088C247.909 225.989 247.536 225.44 246.789 225.44C246.053 225.44 245.611 225.989 245.461 227.088H247.909ZM250.826 224H252.778V226.176H250.826V224ZM250.826 229.824H252.778V232H250.826V229.824Z" fill="#394648"/>
<ellipse cx="59.5667" cy="675.18" rx="1" ry="2.5" transform="rotate(85.8014 59.5667 675.18)" fill="#F3EFD4"/>
<rect x="17" y="241" width="355" height="63" rx="6" fill="#EBE4B3"/>
</g>
<defs>
<clipPath id="clip0_509_84">
<rect width="393" height="852" fill="white"/>
</clipPath>
</defs>
</svg>
